<svg width="70" height="70" viewBox="0 0 70 70" fill="none" xmlns="http://www.w3.org/2000/svg">
<path d="M4.66894 2.33331C2.10379 2.33331 0 4.39618 0 7.00001V62.9977C0 65.5993 2.10379 67.6666 4.66894 67.6666H65.3333C67.8985 67.6666 70 65.5948 70 62.9977V7.00001C70 4.40293 67.8985 2.33331 65.3333 2.33331H4.66894ZM4.66894 4.66666H65.3333C66.6462 4.66666 67.6666 5.71293 67.6666 7.00001V14.0023C67.6666 15.2787 66.6462 16.3265 65.3333 16.3265H4.66894C3.35612 16.3265 2.3356 15.2923 2.3356 14.0023V7.00001C2.3356 5.71937 3.35612 4.66666 4.66894 4.66666ZM19.8288 6.99772C17.8959 6.99772 16.3311 8.57396 16.3311 10.4932C16.3311 12.4123 17.8731 13.9977 19.8288 13.9977C21.7845 13.9977 23.3333 12.4123 23.3333 10.4932C23.3333 8.57396 21.7616 6.99772 19.8288 6.99772ZM37.3356 7.00001C35.4168 7.00001 33.8333 8.54473 33.8333 10.4954C33.8333 12.4462 35.4168 14.0023 37.3356 14.0023H59.5023C61.4211 14.0023 62.9977 12.4465 62.9977 10.4954C62.9977 8.54438 61.4211 7.00001 59.5023 7.00001H37.3356ZM19.8288 9.33106C20.4596 9.33106 21 9.83502 21 10.4932C21 11.1513 20.4642 11.6644 19.8288 11.6644C19.1934 11.6644 18.6667 11.1513 18.6667 10.4932C18.6667 9.83502 19.1979 9.33106 19.8288 9.33106ZM37.3356 9.33331H59.5023C60.1688 9.33331 60.6644 9.86082 60.6644 10.4954C60.6644 11.13 60.1688 11.669 59.5023 11.669H37.3356C36.6691 11.669 36.1621 11.13 36.1621 10.4954C36.1621 9.86082 36.6691 9.33331 37.3356 9.33331ZM2.3356 18.0423C3.02554 18.4449 3.81682 18.6598 4.66894 18.6598H65.3333C66.1855 18.6598 66.9767 18.4451 67.6666 18.0423V62.9977C67.6666 64.2832 66.6462 65.3333 65.3333 65.3333H4.66894C3.35612 65.3333 2.3356 64.2878 2.3356 62.9977V18.0423ZM35.0023 22.1667C31.7705 22.1667 29.1689 24.7921 29.1689 28C29.1689 28.802 29.3264 29.5495 29.6201 30.2468C26.5723 31.7188 24.5 34.8253 24.5 38.4134V39.8421C24.5 41.6615 25.955 43.1667 27.8245 43.1667H42.1777C44.0473 43.1667 45.5023 41.6615 45.5023 39.8421V38.4134C45.5023 34.8253 43.43 31.7188 40.3822 30.2468C40.6758 29.5495 40.8333 28.8019 40.8333 28C40.8333 24.7921 38.2341 22.1667 35.0023 22.1667ZM35.0023 24.5045C36.9275 24.5045 38.5 26.0532 38.5 28C38.5 29.9468 36.9229 31.4977 35.0023 31.4977C33.0817 31.4977 31.5023 29.9468 31.5023 28C31.5023 26.0532 33.0771 24.5045 35.0023 24.5045ZM30.9531 32.2018C31.9791 33.1948 33.4222 33.8333 35.0023 33.8333C36.5824 33.8333 38.0232 33.1948 39.0491 32.2018C41.3761 33.1774 43.1666 35.5116 43.1666 38.4134V39.8421C43.1666 40.377 42.7447 40.8333 42.1777 40.8333H27.8245C27.2575 40.8333 26.8356 40.377 26.8356 39.8421V38.4134C26.8356 35.5116 28.6261 33.1774 30.9531 32.2018ZM29.1667 59.5C27.6107 59.5 27.6107 61.8333 29.1667 61.8333H59.5C61.0559 61.8333 61.0559 59.5 59.5 59.5H29.1667Z" fill="#151716"/>
<path d="M10.4955 6.99768C8.56258 6.99768 7 8.57393 7 10.4931C7 12.4123 8.53973 13.9977 10.4955 13.9977C12.4511 13.9977 14 12.4123 14 10.4931C14 8.57393 12.4283 6.99768 10.4955 6.99768ZM10.4955 9.33103C11.1263 9.33103 11.6667 9.83498 11.6667 10.4931C11.6667 11.1513 11.1308 11.6643 10.4955 11.6643C9.86006 11.6643 9.33335 11.1513 9.33335 10.4931C9.33335 9.83498 9.86464 9.33103 10.4955 9.33103ZM15.1667 45.4977C12.5742 45.4977 10.4977 47.6015 10.4977 50.1666V51.0598C9.791 51.7014 9.3356 52.6027 9.3356 53.6621V58.331C9.3356 60.2498 10.8781 61.8356 12.8333 61.8356H17.5C19.451 61.8356 20.9977 60.2498 20.9977 58.331V53.6621C20.9977 52.6414 20.5762 51.7323 19.8356 51.0598V50.1666C19.8356 47.6015 17.7592 45.4977 15.1667 45.4977ZM32.6028 46.6689C31.9465 46.7042 31.4497 47.2762 31.5045 47.9312V49.6881L29.9893 48.1774C29.7437 47.9216 29.4172 47.8057 29.0641 47.8379C28.0764 47.9357 27.632 49.1309 28.3441 49.8226L31.0124 52.5L28.3441 55.1751C27.632 55.8667 28.0764 57.0616 29.0641 57.1598C29.4173 57.1907 29.7526 57.0756 29.9984 56.8203L32.6666 54.1497L35.3213 56.802C36.4157 57.8786 38.0449 56.3854 37.012 55.1979L34.321 52.4977L36.9893 49.8226C38.0768 48.6394 36.3884 47.1145 35.3213 48.1956L33.8288 49.6858V47.9313C33.8878 47.2257 33.3099 46.6306 32.6028 46.6689ZM44.2673 46.6689C43.6109 46.7042 43.1141 47.2762 43.1689 47.9312V49.6881L41.6536 48.1774C41.408 47.9221 41.0816 47.8057 40.7285 47.8379C39.7408 47.9362 39.2964 49.1309 40.0085 49.8226L42.6768 52.5L40.0085 55.1751C39.2964 55.8667 39.7408 57.0616 40.7285 57.1598C41.0817 57.1907 41.417 57.0756 41.6628 56.8203L44.3311 54.1497L46.9857 56.802C48.0801 57.8786 49.7093 56.3854 48.6764 55.1979L45.9853 52.4977L48.6536 49.8226C49.7412 48.6394 48.0528 47.1145 46.9857 48.1956L45.4932 49.6858V47.9313C45.5523 47.2257 44.9743 46.6306 44.2673 46.6689ZM55.9339 46.6689C55.2776 46.7042 54.7807 47.2762 54.8356 47.9312V49.6881L53.3203 48.1774C53.0747 47.9221 52.7482 47.8057 52.3952 47.8379C51.4074 47.9362 50.9631 49.1309 51.6751 49.8226L54.3434 52.5L51.6751 55.1751C50.9631 55.8667 51.4075 57.0616 52.3952 57.1598C52.7484 57.1907 53.0837 57.0756 53.3294 56.8203L55.9977 54.1497L58.6523 56.802C59.7468 57.8786 61.376 56.3854 60.3431 55.1979L57.652 52.4977L60.3203 49.8226C61.4078 48.6394 59.7195 47.1145 58.6523 48.1956L57.1598 49.6858V47.9313C57.2189 47.2257 56.641 46.6306 55.9339 46.6689ZM15.1667 47.8333C16.4522 47.8333 17.5 48.8538 17.5 50.1666H12.8333C12.8333 48.8538 13.8812 47.8333 15.1667 47.8333ZM12.8333 52.5H17.5C18.1665 52.5 18.6621 53.0278 18.6621 53.6621V58.331C18.6621 58.9975 18.1343 59.5022 17.5 59.5022H12.8333C12.1896 59.5022 11.6712 58.9975 11.6712 58.331V53.6621C11.6712 53.0407 12.1668 52.5 12.8333 52.5ZM24.5 52.5C23.8556 52.5 23.3333 53.0223 23.3333 53.6666C23.3333 54.311 23.8556 54.8333 24.5 54.8333C25.1444 54.8333 25.6667 54.311 25.6667 53.6666C25.6667 53.0223 25.1444 52.5 24.5 52.5ZM15.1667 54.8333C14.5223 54.8333 14 55.3556 14 56C14 56.6443 14.5223 57.1666 15.1667 57.1666C15.811 57.1666 16.3333 56.6443 16.3333 56C16.3333 55.3556 15.811 54.8333 15.1667 54.8333ZM24.5 57.1666C23.8556 57.1666 23.3333 57.689 23.3333 58.3333C23.3333 58.9776 23.8556 59.5 24.5 59.5C25.1444 59.5 25.6667 58.9776 25.6667 58.3333C25.6667 57.689 25.1444 57.1666 24.5 57.1666Z" fill="#79C500"/>
</svg>
