<svg width="28" height="28" viewBox="0 0 28 28" fill="none" xmlns="http://www.w3.org/2000/svg">
<path d="M24.3125 2.75H23.375V1.8125C23.375 1.56386 23.2762 1.3254 23.1004 1.14959C22.9246 0.973772 22.6861 0.875 22.4375 0.875C22.1889 0.875 21.9504 0.973772 21.7746 1.14959C21.5988 1.3254 21.5 1.56386 21.5 1.8125V2.75H17.75V1.8125C17.75 1.56386 17.6512 1.3254 17.4754 1.14959C17.2996 0.973772 17.0611 0.875 16.8125 0.875C16.5639 0.875 16.3254 0.973772 16.1496 1.14959C15.9738 1.3254 15.875 1.56386 15.875 1.8125V2.75H12.125V1.8125C12.125 1.56386 12.0262 1.3254 11.8504 1.14959C11.6746 0.973772 11.4361 0.875 11.1875 0.875C10.9389 0.875 10.7004 0.973772 10.5246 1.14959C10.3488 1.3254 10.25 1.56386 10.25 1.8125V2.75H6.5V1.8125C6.5 1.56386 6.40123 1.3254 6.22541 1.14959C6.0496 0.973772 5.81114 0.875 5.5625 0.875C5.31386 0.875 5.0754 0.973772 4.89959 1.14959C4.72377 1.3254 4.625 1.56386 4.625 1.8125V2.75H3.6875C2.94158 2.75 2.22621 3.04632 1.69876 3.57376C1.17132 4.10121 0.875 4.81658 0.875 5.5625V24.3125C0.875 25.0584 1.17132 25.7738 1.69876 26.3012C2.22621 26.8287 2.94158 27.125 3.6875 27.125H24.3125C25.0584 27.125 25.7738 26.8287 26.3012 26.3012C26.8287 25.7738 27.125 25.0584 27.125 24.3125V5.5625C27.125 4.81658 26.8287 4.10121 26.3012 3.57376C25.7738 3.04632 25.0584 2.75 24.3125 2.75ZM25.25 24.3125C25.25 24.5611 25.1512 24.7996 24.9754 24.9754C24.7996 25.1512 24.5611 25.25 24.3125 25.25H3.6875C3.43886 25.25 3.2004 25.1512 3.02459 24.9754C2.84877 24.7996 2.75 24.5611 2.75 24.3125V11.1875H25.25V24.3125ZM25.25 9.3125H2.75V5.5625C2.75 5.31386 2.84877 5.0754 3.02459 4.89959C3.2004 4.72377 3.43886 4.625 3.6875 4.625H4.625V5.5625C4.625 5.81114 4.72377 6.0496 4.89959 6.22541C5.0754 6.40123 5.31386 6.5 5.5625 6.5C5.81114 6.5 6.0496 6.40123 6.22541 6.22541C6.40123 6.0496 6.5 5.81114 6.5 5.5625V4.625H10.25V5.5625C10.25 5.81114 10.3488 6.0496 10.5246 6.22541C10.7004 6.40123 10.9389 6.5 11.1875 6.5C11.4361 6.5 11.6746 6.40123 11.8504 6.22541C12.0262 6.0496 12.125 5.81114 12.125 5.5625V4.625H15.875V5.5625C15.875 5.81114 15.9738 6.0496 16.1496 6.22541C16.3254 6.40123 16.5639 6.5 16.8125 6.5C17.0611 6.5 17.2996 6.40123 17.4754 6.22541C17.6512 6.0496 17.75 5.81114 17.75 5.5625V4.625H21.5V5.5625C21.5 5.81114 21.5988 6.0496 21.7746 6.22541C21.9504 6.40123 22.1889 6.5 22.4375 6.5C22.6861 6.5 22.9246 6.40123 23.1004 6.22541C23.2762 6.0496 23.375 5.81114 23.375 5.5625V4.625H24.3125C24.5611 4.625 24.7996 4.72377 24.9754 4.89959C25.1512 5.0754 25.25 5.31386 25.25 5.5625V9.3125Z" fill="white"/>
<path d="M13.0625 16.8125H14.9375C15.1861 16.8125 15.4246 16.7137 15.6004 16.5379C15.7762 16.3621 15.875 16.1236 15.875 15.875C15.875 15.6264 15.7762 15.3879 15.6004 15.2121C15.4246 15.0363 15.1861 14.9375 14.9375 14.9375H13.0625C12.8139 14.9375 12.5754 15.0363 12.3996 15.2121C12.2238 15.3879 12.125 15.6264 12.125 15.875C12.125 16.1236 12.2238 16.3621 12.3996 16.5379C12.5754 16.7137 12.8139 16.8125 13.0625 16.8125Z" fill="white"/>
<path d="M6.5 16.8125H8.375C8.62364 16.8125 8.8621 16.7137 9.03791 16.5379C9.21373 16.3621 9.3125 16.1236 9.3125 15.875C9.3125 15.6264 9.21373 15.3879 9.03791 15.2121C8.8621 15.0363 8.62364 14.9375 8.375 14.9375H6.5C6.25136 14.9375 6.0129 15.0363 5.83709 15.2121C5.66127 15.3879 5.5625 15.6264 5.5625 15.875C5.5625 16.1236 5.66127 16.3621 5.83709 16.5379C6.0129 16.7137 6.25136 16.8125 6.5 16.8125Z" fill="white"/>
<path d="M19.625 16.8125H21.5C21.7486 16.8125 21.9871 16.7137 22.1629 16.5379C22.3387 16.3621 22.4375 16.1236 22.4375 15.875C22.4375 15.6264 22.3387 15.3879 22.1629 15.2121C21.9871 15.0363 21.7486 14.9375 21.5 14.9375H19.625C19.3764 14.9375 19.1379 15.0363 18.9621 15.2121C18.7863 15.3879 18.6875 15.6264 18.6875 15.875C18.6875 16.1236 18.7863 16.3621 18.9621 16.5379C19.1379 16.7137 19.3764 16.8125 19.625 16.8125Z" fill="white"/>
<path d="M13.0625 21.5H14.9375C15.1861 21.5 15.4246 21.4012 15.6004 21.2254C15.7762 21.0496 15.875 20.8111 15.875 20.5625C15.875 20.3139 15.7762 20.0754 15.6004 19.8996C15.4246 19.7238 15.1861 19.625 14.9375 19.625H13.0625C12.8139 19.625 12.5754 19.7238 12.3996 19.8996C12.2238 20.0754 12.125 20.3139 12.125 20.5625C12.125 20.8111 12.2238 21.0496 12.3996 21.2254C12.5754 21.4012 12.8139 21.5 13.0625 21.5Z" fill="white"/>
<path d="M6.5 21.5H8.375C8.62364 21.5 8.8621 21.4012 9.03791 21.2254C9.21373 21.0496 9.3125 20.8111 9.3125 20.5625C9.3125 20.3139 9.21373 20.0754 9.03791 19.8996C8.8621 19.7238 8.62364 19.625 8.375 19.625H6.5C6.25136 19.625 6.0129 19.7238 5.83709 19.8996C5.66127 20.0754 5.5625 20.3139 5.5625 20.5625C5.5625 20.8111 5.66127 21.0496 5.83709 21.2254C6.0129 21.4012 6.25136 21.5 6.5 21.5Z" fill="white"/>
</svg>
