<svg width="28" height="24" viewBox="0 0 28 24" fill="none" xmlns="http://www.w3.org/2000/svg">
<path d="M7.41902 4.58638C7.18992 4.94899 6.88425 5.25709 6.52345 5.48904C6.16266 5.721 5.75548 5.8712 5.33048 5.92911C4.84684 5.99784 4.36702 6.07165 3.8872 6.15184C2.54702 6.37456 1.59375 7.55438 1.59375 8.91238V19.6364C1.59375 20.3959 1.89545 21.1242 2.43249 21.6613C2.96953 22.1983 3.6979 22.5 4.45739 22.5H23.5483C24.3078 22.5 25.0362 22.1983 25.5732 21.6613C26.1102 21.1242 26.4119 20.3959 26.4119 19.6364V8.91238C26.4119 7.55438 25.4574 6.37456 24.1185 6.15184C23.6383 6.07183 23.1572 5.99758 22.6752 5.92911C22.2504 5.87102 21.8435 5.72074 21.4829 5.48879C21.1224 5.25684 20.8169 4.94884 20.5879 4.58638L19.5417 2.91147C19.3068 2.52978 18.9833 2.21032 18.5987 1.98014C18.2141 1.74995 17.7797 1.61583 17.3323 1.58911C15.1143 1.46997 12.8914 1.46997 10.6734 1.58911C10.226 1.61583 9.79157 1.74995 9.40697 1.98014C9.02237 2.21032 8.6989 2.52978 8.46393 2.91147L7.41902 4.58638Z" stroke="#79C500" stroke-width="1.5" stroke-linecap="round" stroke-linejoin="round"/>
<path d="M19.728 12.9546C19.728 14.4735 19.1246 15.9303 18.0505 17.0044C16.9764 18.0784 15.5197 18.6818 14.0007 18.6818C12.4817 18.6818 11.025 18.0784 9.95092 17.0044C8.87685 15.9303 8.27344 14.4735 8.27344 12.9546C8.27344 11.4356 8.87685 9.97885 9.95092 8.90477C11.025 7.8307 12.4817 7.22729 14.0007 7.22729C15.5197 7.22729 16.9764 7.8307 18.0505 8.90477C19.1246 9.97885 19.728 11.4356 19.728 12.9546ZM22.5916 10.0909H22.6018V10.1011H22.5916V10.0909Z" stroke="#79C500" stroke-width="1.5" stroke-linecap="round" stroke-linejoin="round"/>
</svg>
