<svg width="18" height="16" viewBox="0 0 18 16" fill="none" xmlns="http://www.w3.org/2000/svg">
<mask id="path-1-inside-1_329_211" fill="white">
<path d="M16.7243 1.53147C15.8737 0.700964 14.6987 0.285889 13.1985 0.285889C12.7834 0.285889 12.3597 0.357871 11.9279 0.501765C11.4959 0.645764 11.094 0.840038 10.7227 1.08445C10.3509 1.32879 10.0313 1.55824 9.76329 1.77246C9.49555 1.98676 9.24101 2.21449 8.99998 2.45548C8.75885 2.21449 8.50437 1.98676 8.23661 1.77246C7.96866 1.55824 7.649 1.32893 7.27727 1.08445C6.90561 0.839933 6.50379 0.645799 6.0719 0.501765C5.64004 0.357906 5.21642 0.285889 4.80127 0.285889C3.30122 0.285889 2.12608 0.70107 1.27566 1.53147C0.425243 2.3618 0 3.51351 0 4.98672C0 5.43539 0.0788074 5.89754 0.236106 6.37281C0.393404 6.84826 0.572655 7.25345 0.773509 7.5882C0.974327 7.92293 1.20206 8.24948 1.45653 8.56756C1.711 8.88568 1.89697 9.10479 2.01402 9.22543C2.13118 9.34582 2.22328 9.43297 2.29023 9.48644L8.55799 15.5334C8.67856 15.654 8.82587 15.7143 8.99995 15.7143C9.17403 15.7143 9.32144 15.654 9.44194 15.5336L15.6997 9.50671C17.2332 7.97338 17.9999 6.46664 17.9999 4.98672C18 3.51351 17.5747 2.3618 16.7243 1.53147Z"/>
</mask>
<path d="M16.7243 1.53147C15.8737 0.700964 14.6987 0.285889 13.1985 0.285889C12.7834 0.285889 12.3597 0.357871 11.9279 0.501765C11.4959 0.645764 11.094 0.840038 10.7227 1.08445C10.3509 1.32879 10.0313 1.55824 9.76329 1.77246C9.49555 1.98676 9.24101 2.21449 8.99998 2.45548C8.75885 2.21449 8.50437 1.98676 8.23661 1.77246C7.96866 1.55824 7.649 1.32893 7.27727 1.08445C6.90561 0.839933 6.50379 0.645799 6.0719 0.501765C5.64004 0.357906 5.21642 0.285889 4.80127 0.285889C3.30122 0.285889 2.12608 0.70107 1.27566 1.53147C0.425243 2.3618 0 3.51351 0 4.98672C0 5.43539 0.0788074 5.89754 0.236106 6.37281C0.393404 6.84826 0.572655 7.25345 0.773509 7.5882C0.974327 7.92293 1.20206 8.24948 1.45653 8.56756C1.711 8.88568 1.89697 9.10479 2.01402 9.22543C2.13118 9.34582 2.22328 9.43297 2.29023 9.48644L8.55799 15.5334C8.67856 15.654 8.82587 15.7143 8.99995 15.7143C9.17403 15.7143 9.32144 15.654 9.44194 15.5336L15.6997 9.50671C17.2332 7.97338 17.9999 6.46664 17.9999 4.98672C18 3.51351 17.5747 2.3618 16.7243 1.53147Z" fill="#79C500" stroke="#79C500" stroke-width="2.00146" mask="url(#path-1-inside-1_329_211)"/>
</svg>
