<svg width="25" height="24" viewBox="0 0 25 24" fill="none" xmlns="http://www.w3.org/2000/svg">
<g clip-path="url(#clip0_1334_4026)">
<path d="M22.5938 7.48438H20.5976L14.6895 1.57634C14.3883 1.27513 13.9883 1.10938 13.5625 1.10938C13.1643 1.10938 12.7895 1.256 12.4965 1.52083C11.8715 0.961156 10.9108 0.975766 10.3105 1.57634L4.40242 7.48438H2.40625C1.5273 7.48438 0.8125 8.19917 0.8125 9.07812V10.1406C0.8125 11.0196 1.5273 11.7344 2.40625 11.7344H2.47664L3.74447 20.6102C3.93041 21.9105 5.06091 22.8906 6.37416 22.8906H18.6256C19.9388 22.8906 21.0693 21.9105 21.255 20.6102L22.5231 11.7344H22.5938C23.4727 11.7344 24.1875 11.0196 24.1875 10.1406V9.07812C24.1875 8.19917 23.4727 7.48438 22.5938 7.48438ZM13.1872 2.32753C13.3875 2.12672 13.7373 2.12672 13.9381 2.32753L19.0952 7.48438H17.5923L13.1869 3.07845C13.0865 2.97831 13.0313 2.84497 13.0313 2.70312C13.0313 2.56128 13.0865 2.42794 13.1872 2.32753ZM12.5 3.89445L16.0899 7.48438H8.91008L12.5 3.89445ZM11.0616 2.32753C11.2688 2.12061 11.6059 2.12061 11.8131 2.32753C11.9135 2.42794 11.9688 2.56128 11.9688 2.70312C11.9688 2.84497 11.9135 2.97831 11.8134 3.07872L7.4077 7.48438H5.90506L11.0616 2.32753ZM20.2037 20.4599C20.0921 21.2398 19.4137 21.8281 18.6258 21.8281H6.37416C5.58631 21.8281 4.90791 21.2398 4.79634 20.4599L3.55003 11.7344H21.45L20.2037 20.4599ZM23.125 10.1406C23.125 10.4336 22.8867 10.6719 22.5938 10.6719H2.40625C2.11327 10.6719 1.875 10.4336 1.875 10.1406V9.07812C1.875 8.78514 2.11327 8.54688 2.40625 8.54688H22.5938C22.8867 8.54688 23.125 8.78514 23.125 9.07812V10.1406ZM11.9688 20.2344H13.0313C13.6172 20.2344 14.0938 19.7578 14.0938 19.1719V14.3906C14.0938 13.8047 13.6172 13.3281 13.0313 13.3281H11.9688C11.3828 13.3281 10.9063 13.8047 10.9063 14.3906V19.1719C10.9063 19.7578 11.3828 20.2344 11.9688 20.2344ZM11.9688 14.3906H13.0313L13.032 19.1719H11.9688V14.3906ZM7.1875 20.2344H8.25C8.83597 20.2344 9.3125 19.7578 9.3125 19.1719V14.3906C9.3125 13.8047 8.83597 13.3281 8.25 13.3281H7.1875C6.60153 13.3281 6.125 13.8047 6.125 14.3906V19.1719C6.125 19.7578 6.60153 20.2344 7.1875 20.2344ZM7.1875 14.3906H8.25L8.25053 19.1719H7.1875V14.3906ZM16.75 20.2344H17.8125C18.3985 20.2344 18.875 19.7578 18.875 19.1719V14.3906C18.875 13.8047 18.3985 13.3281 17.8125 13.3281H16.75C16.164 13.3281 15.6875 13.8047 15.6875 14.3906V19.1719C15.6875 19.7578 16.164 20.2344 16.75 20.2344ZM16.75 14.3906H17.8125L17.8133 19.1719H16.75V14.3906Z" fill="#79C500"/>
</g>
<defs>
<clipPath id="clip0_1334_4026">
<rect width="24" height="24" fill="white" transform="translate(0.5)"/>
</clipPath>
</defs>
</svg>
