<svg width="32" height="32" viewBox="0 0 32 32" fill="none" xmlns="http://www.w3.org/2000/svg">
<g clip-path="url(#clip0_3295_11697)">
<path d="M23.4269 10.5107L23.1124 9.47547C22.7128 8.29947 21.4356 7.67007 20.2596 8.06962C19.598 8.29439 19.0785 8.81392 18.8537 9.47547L18.5392 10.5107C18.2745 11.3838 18.2189 12.307 18.377 13.2055C18.5212 13.962 19.0015 14.6119 19.6822 14.9717L19.33 22.8467C19.2828 23.2863 19.4254 23.7251 19.7219 24.053C20.3597 24.7506 21.4422 24.7991 22.1398 24.1613C22.1775 24.1268 22.2136 24.0907 22.2481 24.053C22.538 23.7344 22.6804 23.3084 22.6401 22.8796L22.2858 14.9708C22.9657 14.6107 23.4452 13.9612 23.5891 13.2055C23.7472 12.307 23.6916 11.3838 23.4269 10.5107ZM22.6239 13.035C22.5178 13.5784 22.1305 14.0244 21.6073 14.2055C21.4086 14.2801 21.2807 14.4741 21.2903 14.6861L21.6626 22.957C21.6798 23.1192 21.6262 23.2809 21.5156 23.4009C21.2206 23.6929 20.7455 23.6929 20.4505 23.4009C20.3344 23.2713 20.2816 23.0968 20.3064 22.9246L20.6759 14.6861C20.6854 14.4741 20.5575 14.2801 20.3589 14.2055C19.8356 14.0244 19.4483 13.5784 19.3422 13.035C19.2112 12.289 19.2573 11.5227 19.477 10.7979L19.7915 9.7621C20.0349 9.10403 20.7656 8.76786 21.4238 9.01125C21.7717 9.13992 22.046 9.41423 22.1746 9.7621L22.4892 10.7979C22.7085 11.5227 22.7547 12.289 22.6239 13.035Z" fill="white"/>
<path d="M15.8292 7.95215C15.5586 7.95215 15.3392 8.17152 15.3392 8.4421V12.6488L14.0129 13.9751C13.9148 14.0729 13.8627 14.2077 13.8694 14.346L14.2981 22.9201C14.3083 23.105 14.2412 23.2859 14.1129 23.4194C13.8447 23.69 13.4079 23.6919 13.1373 23.4237C13.1358 23.4223 13.1344 23.4208 13.133 23.4194C13.0046 23.2859 12.9376 23.105 12.9478 22.9201L13.3794 14.346C13.3863 14.2077 13.3343 14.073 13.2364 13.9751L11.9096 12.6488V8.4421C11.9096 8.17152 11.6902 7.95215 11.4196 7.95215C11.1491 7.95215 10.9297 8.17152 10.9297 8.4421V12.8517C10.9297 12.9816 10.9814 13.1062 11.0732 13.1981L12.3893 14.5146L11.9713 22.8726C11.9269 23.7856 12.6309 24.5618 13.5439 24.6063C14.4568 24.6507 15.233 23.9467 15.2775 23.0337C15.2801 22.98 15.2801 22.9263 15.2775 22.8727L14.8596 14.5146L16.1756 13.1981C16.2675 13.1062 16.3191 12.9817 16.3191 12.8517V8.44216C16.3191 8.17152 16.0998 7.95215 15.8292 7.95215Z" fill="white"/>
<path d="M12.8884 7.95215C12.6178 7.95215 12.3984 8.17152 12.3984 8.4421V12.3617C12.3984 12.6323 12.6178 12.8517 12.8884 12.8517C13.159 12.8517 13.3783 12.6323 13.3783 12.3617V8.4421C13.3783 8.17152 13.159 7.95215 12.8884 7.95215Z" fill="white"/>
<path d="M14.365 7.95215C14.0944 7.95215 13.875 8.17152 13.875 8.4421V12.3617C13.875 12.6323 14.0944 12.8517 14.365 12.8517C14.6355 12.8517 14.8549 12.6323 14.8549 12.3617V8.4421C14.8549 8.17152 14.6355 7.95215 14.365 7.95215Z" fill="white"/>
<path d="M17.3001 0.603027C9.18234 0.603027 2.60156 7.1838 2.60156 15.3016C2.60156 23.4193 9.18234 30.0001 17.3001 30.0001C25.4178 30.0001 31.9986 23.4193 31.9986 15.3016C31.9894 7.1876 25.414 0.612214 17.3001 0.603027ZM17.3001 29.0202C9.72349 29.0202 3.58146 22.8782 3.58146 15.3016C3.58146 7.72495 9.72349 1.58293 17.3001 1.58293C24.8767 1.58293 31.0187 7.72495 31.0187 15.3016C31.0101 22.8745 24.8731 29.0115 17.3001 29.0202Z" fill="white"/>
<path d="M7.42292 19.3794L7.423 19.3793L7.41867 19.371C7.26641 19.0783 7.0369 18.8329 6.75503 18.6614C6.47316 18.4899 6.14971 18.3988 5.81977 18.3981L5.81872 18.3981H4.43671C3.90519 16.3632 3.90519 14.2256 4.43672 12.1906L5.80073 12.1906C6.48227 12.2051 7.10204 11.8344 7.41988 11.2154L7.41989 11.2154L7.42169 11.2119C7.8435 10.374 8.40506 9.60339 9.08463 8.92381C9.4218 8.58664 9.61123 8.12933 9.61123 7.6525L9.11744 7.6525L9.61123 7.6525C9.61123 7.17566 9.4218 6.71836 9.08463 6.38119L6.94319 4.23974C6.60602 3.90257 6.14871 3.71315 5.67187 3.71315C5.19504 3.71315 4.73773 3.90257 4.40056 4.23974C-1.69896 10.3393 -1.69896 20.2617 4.40056 26.3613C4.73773 26.6984 5.19504 26.8879 5.67188 26.8879C6.14871 26.8879 6.60602 26.6984 6.94319 26.3613L9.08463 24.2198C9.4218 23.8826 9.61122 23.4253 9.61122 22.9485C9.61122 22.4717 9.4218 22.0144 9.08463 21.6772C8.40525 20.9978 7.84431 20.2279 7.42292 19.3794ZM5.77935 10.3278L3.42157 10.3218L3.05693 10.3209L2.94461 10.6678C1.9454 13.754 1.94577 16.8224 2.93794 19.9253L3.04972 20.2749L3.41674 20.273L5.77913 20.261C6.28024 21.2517 6.9309 22.1515 7.71819 22.9484L5.67199 24.9946C0.362864 19.6341 0.362863 10.9669 5.67199 5.60644L7.71819 7.65264C6.93062 8.44981 6.28019 9.34932 5.77935 10.3278Z" fill="white" stroke="#79C500"/>
<path d="M18.8868 24.4983C18.8605 24.229 18.6209 24.032 18.3515 24.0583C18.3452 24.0589 18.3389 24.0596 18.3326 24.0605L18.3346 24.06C17.6448 24.1401 16.948 24.1401 16.2582 24.06C15.9893 24.0284 15.7459 24.2208 15.7143 24.4897C15.6828 24.7585 15.8751 25.002 16.144 25.0335C16.909 25.1229 17.6818 25.1229 18.4468 25.0335C18.7161 25.0073 18.9131 24.7676 18.8868 24.4983Z" fill="white"/>
<path d="M24.7901 8.98785C24.6162 8.78054 24.3072 8.75341 24.0998 8.92734C24.0992 8.92789 24.0985 8.9285 24.0978 8.92906C23.8909 9.10348 23.8646 9.41251 24.039 9.6194C26.9931 13.1262 26.7671 18.3117 23.5191 21.5482C23.3274 21.7393 23.3269 22.0496 23.5179 22.2413C23.7089 22.433 24.0192 22.4335 24.2109 22.2425C27.8205 18.6467 28.0722 12.8847 24.7901 8.98785Z" fill="white"/>
<path d="M19.6161 5.77639C17.7013 5.31749 15.6931 5.44083 13.8489 6.13062C13.5956 6.22586 13.4675 6.50844 13.5627 6.76168C13.6345 6.95258 13.817 7.07892 14.0209 7.07911C14.0795 7.0788 14.1376 7.06808 14.1923 7.04732C15.8531 6.42625 17.6615 6.31534 19.3858 6.72885C19.6488 6.79242 19.9136 6.6308 19.9772 6.36776C20.0407 6.10472 19.8791 5.83996 19.6161 5.77639Z" fill="white"/>
</g>
<defs>
<clipPath id="clip0_3295_11697">
<rect width="32" height="32" fill="white"/>
</clipPath>
</defs>
</svg>
