<svg width="32" height="33" viewBox="0 0 32 33" fill="none" xmlns="http://www.w3.org/2000/svg">
<rect y="0.5" width="32" height="32" rx="16" fill="#C54015"/>
<path d="M24.9697 13.0273C23.8613 11.6281 22.2651 10.6994 20.501 10.4273C21.0807 9.42753 21.4697 8.32881 21.6482 7.18701C21.6953 6.82626 21.8197 5.86913 21.1282 5.50026C20.3832 5.10294 18.3511 5.62944 17.1722 6.16163C16.0024 6.60132 15.0415 7.46592 14.4812 8.58288C13.8186 7.3519 12.7097 6.42149 11.3823 5.98288C11.1776 5.91479 10.9542 5.9308 10.7613 6.02741C10.5684 6.12401 10.4217 6.29329 10.3537 6.49801C10.2856 6.70272 10.3016 6.9261 10.3982 7.119C10.4948 7.31191 10.6641 7.45854 10.8688 7.52663C11.4867 7.73019 12.0429 8.08695 12.4856 8.56362C12.9284 9.0403 13.2431 9.62135 13.4005 10.2526L13.4517 10.4557C12.8547 10.3521 12.2457 10.3354 11.6439 10.4061C9.82599 10.6445 8.17298 11.5832 7.03703 13.0224C3.93978 16.9151 5.66634 23.4598 9.16009 26.2824C9.7625 26.8329 10.4691 27.2571 11.2381 27.5301C12.0072 27.803 12.8231 27.9192 13.6378 27.8716C14.2968 27.791 14.9326 27.5773 15.5065 27.2436C15.6547 27.158 15.8229 27.1129 15.994 27.1129C16.1652 27.1129 16.3333 27.158 16.4815 27.2436C17.0603 27.5805 17.7017 27.7959 18.3665 27.8765C18.5465 27.8969 18.7274 27.9069 18.9085 27.9066C20.365 27.8348 21.7522 27.2628 22.8361 26.2873C26.3347 23.4573 28.0613 16.9126 24.9697 13.0273ZM15.8998 9.44251C16.2427 7.98569 18.8882 7.16751 20.0435 7.00501C19.881 8.14982 18.9467 10.7319 17.5248 11.0675C17.289 11.1371 17.0407 11.1538 16.7977 11.1163C16.5547 11.0788 16.323 10.988 16.1192 10.8506C15.981 10.6466 15.8897 10.4145 15.8518 10.1711C15.8139 9.92767 15.8303 9.67886 15.8998 9.44251ZM21.818 25.0173C21.3845 25.4294 20.8733 25.7511 20.3142 25.9637C19.7551 26.1763 19.1593 26.2755 18.5615 26.2556C18.1143 26.2006 17.683 26.0549 17.294 25.8274C16.8991 25.6008 16.4518 25.4816 15.9965 25.4816C15.5412 25.4816 15.0938 25.6008 14.6989 25.8274C14.3146 26.052 13.8886 26.196 13.4468 26.2507C12.848 26.2694 12.2513 26.1697 11.691 25.9572C11.1308 25.7447 10.618 25.4236 10.1822 25.0124C7.27428 22.6627 5.83778 17.1312 8.31347 14.0209C9.186 12.9265 10.4447 12.208 11.8308 12.0133C12.7463 11.9179 13.6705 12.0721 14.5055 12.4593C15.16 12.7513 15.8865 12.8424 16.5928 12.7209C16.7253 12.7365 16.8584 12.7452 16.9918 12.7469C17.2966 12.747 17.6004 12.7132 17.8977 12.6462C18.3644 12.5303 18.8 12.3137 19.1742 12.0116C19.5068 11.9755 19.8425 11.9755 20.1752 12.0116C21.5623 12.2079 22.8214 12.9285 23.6933 14.025C26.1633 17.1369 24.7268 22.6668 21.818 25.0173Z" fill="white"/>
<path d="M12.9009 13.6562C12.2739 13.5698 11.6353 13.653 11.0515 13.8974C10.4677 14.1418 9.96018 14.5383 9.5818 15.0456C9.10595 15.6771 8.81609 16.4291 8.74492 17.2166C8.73234 17.3226 8.74077 17.4301 8.76974 17.5328C8.7987 17.6356 8.84763 17.7316 8.91373 17.8154C8.97983 17.8993 9.06181 17.9693 9.15497 18.0214C9.24813 18.0735 9.35065 18.1068 9.45667 18.1193C9.48767 18.1231 9.51888 18.125 9.55011 18.125C9.74885 18.1248 9.94063 18.0517 10.0892 17.9197C10.2377 17.7876 10.3327 17.6057 10.3561 17.4083C10.3964 16.915 10.5715 16.4423 10.8623 16.0417C11.0603 15.7725 11.324 15.5584 11.6283 15.4201C11.9325 15.2817 12.2671 15.2235 12.6002 15.2512C12.8121 15.291 13.031 15.2451 13.209 15.1235C13.387 15.0019 13.5094 14.8146 13.5492 14.6028C13.5891 14.391 13.5432 14.172 13.4216 13.994C13.3 13.816 13.1127 13.6937 12.9009 13.6538V13.6562Z" fill="white"/>
</svg>
