<svg width="32" height="33" viewBox="0 0 32 33" fill="none" xmlns="http://www.w3.org/2000/svg">
<rect y="0.5" width="32" height="32" rx="16" fill="#904FB9"/>
<path d="M16.0844 20.9474L17.0527 22.8587C16.5994 23.3435 15.947 23.7382 15.0954 24.0429C14.2576 24.3476 13.3717 24.5 12.4377 24.5C10.24 24.5 8.44755 23.8144 7.06029 22.4432C5.68676 21.072 5 19.2576 5 17C5 14.8393 5.65243 13.0457 6.95728 11.6191C8.24839 10.2064 10.0546 9.5 12.3758 9.5C14.2164 9.5 15.6792 9.99169 16.7643 10.9751L15.6311 12.8657C14.6559 12.2147 13.5708 11.8892 12.3758 11.8892C11.0023 11.8892 9.87602 12.3532 8.99696 13.2812C8.11791 14.2091 7.67838 15.4488 7.67838 17C7.67838 18.5235 8.13851 19.7562 9.05877 20.6981C9.99277 21.6399 11.1946 22.1108 12.6643 22.1108C13.9279 22.1108 15.068 21.723 16.0844 20.9474Z" fill="white"/>
<path d="M19.6131 17.3324L19.0156 15.5873C20.0183 14.9917 21.1102 14.6939 22.2915 14.6939C23.5826 14.6939 24.5235 15.0125 25.1141 15.6496C25.7047 16.2867 26 17.2632 26 18.5789V24.2715H23.9397V23.1911C23.3903 23.9945 22.4769 24.3961 21.1995 24.3961C20.3205 24.3961 19.6131 24.1399 19.0774 23.6274C18.5555 23.1011 18.2945 22.4017 18.2945 21.5291C18.2945 20.5596 18.6036 19.8116 19.2216 19.2853C19.8397 18.759 20.657 18.4958 21.6734 18.4958C22.5112 18.4958 23.2117 18.6967 23.7749 19.0983C23.8024 18.2673 23.6787 17.6579 23.404 17.2701C23.1431 16.8823 22.6898 16.6884 22.0442 16.6884C21.33 16.6884 20.5196 16.903 19.6131 17.3324ZM21.9824 22.3809C22.7791 22.3809 23.3766 22.097 23.7749 21.5291V20.5734C23.3903 20.2687 22.8478 20.1163 22.1473 20.1163C21.7077 20.1163 21.3506 20.2202 21.0759 20.428C20.8012 20.6357 20.6638 20.9197 20.6638 21.2798C20.6638 21.6122 20.7875 21.8823 21.0347 22.09C21.2819 22.2839 21.5978 22.3809 21.9824 22.3809Z" fill="white"/>
</svg>
