<svg width="32" height="33" viewBox="0 0 32 33" fill="none" xmlns="http://www.w3.org/2000/svg">
<rect y="0.5" width="32" height="32" rx="16" fill="#D7560D"/>
<path d="M16 12.8086C13.9646 12.8086 12.3086 14.4646 12.3086 16.5C12.3086 18.5354 13.9646 20.1914 16 20.1914C18.0354 20.1914 19.6914 18.5354 19.6914 16.5C19.6914 14.4646 18.0354 12.8086 16 12.8086ZM16 19.1367C14.5461 19.1367 13.3633 17.9539 13.3633 16.5C13.3633 15.0461 14.5461 13.8633 16 13.8633C17.4539 13.8633 18.6367 15.0461 18.6367 16.5C18.6367 17.9539 17.4539 19.1367 16 19.1367Z" fill="white"/>
<path d="M24.4727 8.55469C22.8565 8.55469 21.4822 9.60878 21.0004 11.0655C18.5909 8.84336 15.0092 8.48768 12.2031 10.1668V9.10421C12.2031 8.81298 11.967 8.57687 11.6758 8.57687C11.3845 8.57687 11.1484 8.81298 11.1484 9.10421V12.8086H10.1289V9.10421C10.1289 8.81298 9.8928 8.57687 9.60156 8.57687C9.31033 8.57687 9.07422 8.81298 9.07422 9.10421V12.8086H8.05469V9.10421C8.05469 8.81298 7.81858 8.57687 7.52734 8.57687C7.23611 8.57687 7 8.81298 7 9.10421V13.3359C7 14.2705 7.49549 15.0911 8.23736 15.5499L7.90105 22.6881C7.85616 23.642 8.61497 24.4453 9.57748 24.4453C10.5413 24.4453 11.3086 23.6325 11.2529 22.6702L11.2217 22.1304C14.546 24.9574 19.5998 24.2889 22.0814 20.6886L21.922 22.75C21.8528 23.6446 22.5616 24.4102 23.4587 24.4102C24.3086 24.4102 25 23.7187 25 22.8688V9.08203C25 8.7908 24.7639 8.55469 24.4727 8.55469ZM8.14736 13.8633H11.0558C10.5622 15.2202 8.64039 15.2187 8.14736 13.8633ZM9.57745 23.3906C9.22261 23.3906 8.93774 23.095 8.95458 22.7377L9.27598 15.9164C9.48245 15.9423 9.64189 15.9416 9.80649 15.9287L10.2 22.7311C10.2206 23.088 9.93776 23.3906 9.57745 23.3906ZM11.1298 20.5431L10.845 15.6205C11.6535 15.1787 12.2031 14.3203 12.2031 13.3359V11.4351C14.8467 9.44653 18.6267 9.82611 20.8164 12.393V17.5195C20.8164 17.8108 21.0525 18.0469 21.3438 18.0469H22.1397C20.885 23.0756 14.4289 24.5127 11.1298 20.5431ZM23.9453 22.8688C23.9453 23.1372 23.727 23.3555 23.4587 23.3555C23.1765 23.3555 22.9515 23.116 22.9735 22.8313L23.3812 17.5602C23.4049 17.2542 23.1628 16.9922 22.8555 16.9922H21.8711V12.2109C21.8711 10.9571 22.7628 9.9075 23.9453 9.66306V22.8688Z" fill="white"/>
</svg>
