<svg width="32" height="33" viewBox="0 0 32 33" fill="none" xmlns="http://www.w3.org/2000/svg">
<rect y="0.5" width="32" height="32" rx="16" fill="#79C500"/>
<g clip-path="url(#clip0_364_124)">
<path d="M25.5602 11.6953C25.08 9.46202 24.3355 7.898 24.3041 7.83254C24.1749 7.56338 23.8637 7.43444 23.5819 7.53347C23.5268 7.55269 22.2149 8.01793 20.562 9.00411C19.1981 9.81816 17.3649 11.1399 15.9774 12.9842C15.669 12.5734 15.3275 12.173 14.9538 11.7846C14.1193 10.9172 13.1229 10.1072 11.992 9.37657C10.0733 8.13695 8.4411 7.55758 8.37244 7.53347C8.09076 7.43444 7.77964 7.56338 7.65024 7.83254C7.61881 7.898 6.87434 9.46202 6.39414 11.6953C6.11125 13.0115 5.97941 14.289 6.0026 15.4923C6.0319 17.0134 6.31022 18.4204 6.82948 19.6741C7.34888 20.9279 8.14707 22.1196 9.20191 23.216C10.0363 24.0831 11.0328 24.8933 12.1636 25.6239C14.0823 26.8636 15.7145 27.4431 15.7832 27.4672C15.8459 27.4892 15.9115 27.5002 15.9771 27.5002C16.0427 27.5002 16.1083 27.4892 16.1712 27.4672C16.2397 27.4431 17.8721 26.8636 19.7907 25.6239C20.9215 24.8933 21.9179 24.0831 22.7524 23.216C23.8073 22.1196 24.6055 20.9279 25.1247 19.6741C25.6441 18.4204 25.9223 17.0134 25.9516 15.4923C25.9749 14.289 25.8431 13.0115 25.5602 11.6953ZM7.91224 19.2258C6.86121 16.6886 7.12641 13.8796 7.53382 11.9698C7.82969 10.5828 8.24198 9.45378 8.49069 8.84084C9.82141 9.4048 13.4516 11.1652 15.4745 14.3122C15.4803 14.3219 15.4865 14.3317 15.4929 14.3412C15.7798 14.7907 16.0337 15.2683 16.2435 15.7747C17.7027 19.2978 16.6724 23.3411 15.967 25.3584L10.7577 12.782C10.6339 12.4831 10.2911 12.341 9.99216 12.4649C9.69324 12.5888 9.55118 12.9316 9.67508 13.2306L14.8843 25.8067C14.2966 25.524 13.5577 25.1311 12.7754 24.624C11.1369 23.5617 8.96311 21.7629 7.91224 19.2258ZM24.0421 19.2258C22.9912 21.7629 20.8175 23.5617 19.179 24.624C18.3967 25.1312 17.658 25.5238 17.0702 25.8066L22.8762 11.7894C23.0001 11.4905 22.858 11.1477 22.5591 11.0239C22.26 10.9002 21.9173 11.0421 21.7936 11.341L18.1528 20.1306C18.1965 18.3704 17.9204 16.7612 17.3261 15.3263C17.1427 14.8836 16.9245 14.4484 16.6726 14.0227C17.9598 12.1634 19.7942 10.8297 21.1393 10.0245C22.1016 9.44829 22.952 9.05644 23.4635 8.84038C23.7122 9.45317 24.1245 10.5825 24.4205 11.9698C24.8279 13.8796 25.0931 16.6886 24.0421 19.2258Z" fill="white"/>
</g>
<defs>
<clipPath id="clip0_364_124">
<rect width="20" height="20" fill="white" transform="translate(6 7.5)"/>
</clipPath>
</defs>
</svg>
