<svg width="32" height="33" viewBox="0 0 32 33" fill="none" xmlns="http://www.w3.org/2000/svg">
<rect y="0.5" width="32" height="32" rx="16" fill="#81BAE3"/>
<mask id="path-2-inside-1_633_4650" fill="white">
<path d="M23.7243 10.7456C22.8737 9.91508 21.6987 9.5 20.1985 9.5C19.7834 9.5 19.3597 9.57198 18.9279 9.71588C18.4959 9.85988 18.094 10.0541 17.7227 10.2986C17.3509 10.5429 17.0313 10.7724 16.7633 10.9866C16.4956 11.2009 16.241 11.4286 16 11.6696C15.7588 11.4286 15.5044 11.2009 15.2366 10.9866C14.9687 10.7724 14.649 10.543 14.2773 10.2986C13.9056 10.054 13.5038 9.85991 13.0719 9.71588C12.64 9.57202 12.2164 9.5 11.8013 9.5C10.3012 9.5 9.12608 9.91518 8.27566 10.7456C7.42524 11.5759 7 12.7276 7 14.2008C7 14.6495 7.07881 15.1117 7.23611 15.5869C7.3934 16.0624 7.57266 16.4676 7.77351 16.8023C7.97433 17.137 8.20206 17.4636 8.45653 17.7817C8.711 18.0998 8.89697 18.3189 9.01402 18.4395C9.13118 18.5599 9.22328 18.6471 9.29023 18.7006L15.558 24.7475C15.6786 24.8681 15.8259 24.9285 15.9999 24.9285C16.174 24.9285 16.3214 24.8681 16.4419 24.7477L22.6997 18.7208C24.2332 17.1875 24.9999 15.6808 24.9999 14.2008C25 12.7276 24.5747 11.5759 23.7243 10.7456Z"/>
</mask>
<path d="M23.7243 10.7456C22.8737 9.91508 21.6987 9.5 20.1985 9.5C19.7834 9.5 19.3597 9.57198 18.9279 9.71588C18.4959 9.85988 18.094 10.0541 17.7227 10.2986C17.3509 10.5429 17.0313 10.7724 16.7633 10.9866C16.4956 11.2009 16.241 11.4286 16 11.6696C15.7588 11.4286 15.5044 11.2009 15.2366 10.9866C14.9687 10.7724 14.649 10.543 14.2773 10.2986C13.9056 10.054 13.5038 9.85991 13.0719 9.71588C12.64 9.57202 12.2164 9.5 11.8013 9.5C10.3012 9.5 9.12608 9.91518 8.27566 10.7456C7.42524 11.5759 7 12.7276 7 14.2008C7 14.6495 7.07881 15.1117 7.23611 15.5869C7.3934 16.0624 7.57266 16.4676 7.77351 16.8023C7.97433 17.137 8.20206 17.4636 8.45653 17.7817C8.711 18.0998 8.89697 18.3189 9.01402 18.4395C9.13118 18.5599 9.22328 18.6471 9.29023 18.7006L15.558 24.7475C15.6786 24.8681 15.8259 24.9285 15.9999 24.9285C16.174 24.9285 16.3214 24.8681 16.4419 24.7477L22.6997 18.7208C24.2332 17.1875 24.9999 15.6808 24.9999 14.2008C25 12.7276 24.5747 11.5759 23.7243 10.7456Z" fill="#81BAE3" stroke="white" stroke-width="2.4" mask="url(#path-2-inside-1_633_4650)"/>
</svg>
