<svg width="32" height="33" viewBox="0 0 32 33" fill="none" xmlns="http://www.w3.org/2000/svg">
<rect y="0.5" width="32" height="32" rx="16" fill="#27AE7E"/>
<g clip-path="url(#clip0_364_159)">
<path d="M23.0308 14.8128H22.2114C22.0107 14.0647 21.6759 13.3427 21.1724 12.6908C19.6204 10.6899 17.5245 11.2635 16.2729 11.6055C16.0532 11.6648 15.8514 11.7171 15.6685 11.7551C15.3562 10.9476 14.9513 9.01678 17.3903 7.60845C17.6741 7.44457 17.7715 7.08121 17.6076 6.79741C17.4426 6.5136 17.0792 6.41504 16.7966 6.5801C15.8217 7.14296 15.1911 7.802 14.7981 8.48361C14.6841 8.29005 14.5582 8.10124 14.4062 7.9255C13.6118 7.00759 12.4576 6.50054 11.1561 6.50054C10.8284 6.50054 10.5624 6.76653 10.5624 7.09427C10.5624 8.39692 11.0683 9.54995 11.9874 10.3444C12.6642 10.9298 13.4895 11.2457 14.31 11.2492C14.3302 11.3739 14.354 11.495 14.3825 11.6138C14.3718 11.6102 14.3635 11.6078 14.3516 11.6055C13.0988 11.2635 11.0041 10.6887 9.45093 12.692C7.89654 14.7035 7.79798 17.3445 9.10181 19.5627H7.59373C7.26599 19.5627 7 19.8286 7 20.1564V24.9062C7 25.234 7.26599 25.5 7.59373 25.5H23.0308C24.6671 25.5 25.9994 24.1688 25.9994 22.5313V17.7815C25.9994 16.1439 24.6671 14.8128 23.0308 14.8128ZM12.764 9.44545C12.2652 9.0144 11.9363 8.42542 11.8092 7.74738C12.4873 7.87444 13.0763 8.20336 13.5073 8.70329C13.8517 9.09871 14.0619 9.57845 14.1129 10.0499C13.6403 10 13.1606 9.78982 12.764 9.44545ZM10.3902 13.4187C11.4554 12.0413 12.8269 12.4177 14.0381 12.7502C14.4217 12.8559 14.7482 12.9069 15.0676 12.9271C15.1448 12.9627 15.2256 12.9912 15.3111 12.9912C15.3954 12.9912 15.4797 12.9639 15.5604 12.9259C15.8787 12.9045 16.204 12.8535 16.5864 12.749C17.7988 12.4177 19.1703 12.0413 20.2343 13.4163C21.93 15.6108 21.2508 18.0427 20.0977 19.5615H10.528C9.37374 18.0451 8.69451 15.612 10.3902 13.4187ZM24.812 22.5313C24.812 23.5134 24.0128 24.3125 23.0308 24.3125H22.437V23.7188C22.437 23.391 22.1711 23.1251 21.8433 23.1251C21.5156 23.1251 21.2496 23.391 21.2496 23.7188V24.3125H20.0621V22.5313C20.0621 22.2036 19.7961 21.9376 19.4684 21.9376C19.1406 21.9376 18.8747 22.2036 18.8747 22.5313V24.3125H17.6872V23.7188C17.6872 23.391 17.4212 23.1251 17.0935 23.1251C16.7657 23.1251 16.4997 23.391 16.4997 23.7188V24.3125H15.3123V23.7188C15.3123 23.391 15.0463 23.1251 14.7185 23.1251C14.3908 23.1251 14.1248 23.391 14.1248 23.7188V24.3125H12.9373V22.5313C12.9373 22.2036 12.6713 21.9376 12.3436 21.9376C12.0159 21.9376 11.7499 22.2036 11.7499 22.5313V24.3125H10.5624V23.7188C10.5624 23.391 10.2964 23.1251 9.96866 23.1251C9.64092 23.1251 9.37493 23.391 9.37493 23.7188V24.3125H8.18747V20.7501H9.9651H20.6606H23.0308C23.7017 20.7501 24.3144 20.5186 24.812 20.141V22.5313ZM23.0308 19.5627H21.5227C22.1841 18.4381 22.4655 17.2067 22.3979 16.0003H23.0308C24.0128 16.0003 24.812 16.7994 24.812 17.7815C24.812 18.7635 24.0128 19.5627 23.0308 19.5627Z" fill="white"/>
</g>
<defs>
<clipPath id="clip0_364_159">
<rect width="19" height="19" fill="white" transform="translate(7 6.5)"/>
</clipPath>
</defs>
</svg>
