<svg width="32" height="33" viewBox="0 0 32 33" fill="none" xmlns="http://www.w3.org/2000/svg">
<rect y="0.5" width="32" height="32" rx="16" fill="#027400"/>
<path d="M10.0612 22.6426C9.98606 22.5282 9.91728 22.4094 9.85531 22.2869C9.39765 21.3829 9.20002 20.3596 9.13975 19.3372C8.97832 16.6008 9.8749 13.7933 11.6966 11.7048C12.8438 10.3897 14.4498 9.52959 16.1262 8.8841C17.8337 8.22711 19.6303 7.76455 21.4384 7.5829C21.853 7.54137 22.2689 7.51688 22.6861 7.51709C23.4939 7.51965 24.3332 7.59184 25.014 7.99136C25.1952 8.09763 25.3611 8.23052 25.4985 8.38875C25.9327 8.89006 26.0865 9.57474 26.1542 10.2211C26.282 11.4416 26.1265 12.6819 25.8912 13.8972C25.5645 15.5858 25.0481 17.2435 24.3166 18.7884C23.8246 19.8272 23.2281 20.8322 22.4082 21.6312C20.2328 23.7504 17.0758 24.8308 14.0049 24.5367C13.0378 24.4442 12.0725 24.2296 11.2183 23.7419C11.1644 23.7114 11.1118 23.6793 11.0598 23.6452L8.28811 26.4173C8.17162 26.5119 8.04448 26.5928 7.89839 26.6158C7.50782 26.6778 7.10233 26.3611 7.08104 25.9541C7.07316 25.8051 7.11405 25.6551 7.19433 25.5316C7.22117 25.4903 7.25631 25.4547 7.2874 25.4166L10.0612 22.6426ZM12.0957 22.61C12.3819 22.7518 12.6981 22.8534 13.0097 22.9337C14.175 23.2342 15.4068 23.2316 16.5924 23.03C18.3938 22.7231 20.121 21.8836 21.4207 20.6175C22.086 19.9692 22.5679 19.1519 22.9772 18.3075C23.8016 16.6093 24.3449 14.7691 24.6262 12.9082C24.7734 11.9342 24.8856 10.9362 24.6852 9.96297C24.62 9.64779 24.5402 9.31727 24.2026 9.16308C23.939 9.04276 23.6459 8.99548 23.3533 8.96503C23.1159 8.94032 22.8763 8.93202 22.6388 8.93244C21.1707 8.93926 19.7034 9.24017 18.278 9.65354C16.8503 10.0675 15.4447 10.6019 14.1949 11.4011C12.8112 12.2862 11.7894 13.702 11.1853 15.2581C10.599 16.768 10.3884 18.4306 10.6337 20.0212C10.718 20.569 10.8522 21.1241 11.0954 21.6086L13.1537 19.5504L13.1028 15.2012C13.1032 15.1693 13.1028 15.1612 13.1055 15.1295C13.1343 14.8096 13.4043 14.5268 13.7306 14.4897C13.7996 14.4818 13.816 14.4855 13.8379 14.4857C13.8697 14.4878 13.8777 14.4876 13.9093 14.4921C14.2157 14.5353 14.4777 14.7981 14.5134 15.1131C14.5171 15.1446 14.5166 15.1527 14.5179 15.1846L14.5526 18.1512L16.2872 16.4166V12.1171C16.2881 12.0851 16.2876 12.0773 16.2908 12.0455C16.3232 11.7261 16.5964 11.4463 16.9233 11.413C16.9923 11.406 17.0085 11.4098 17.0305 11.4103C17.0624 11.4126 17.0705 11.4126 17.102 11.4175C17.4085 11.4644 17.667 11.7325 17.6989 12.0455C17.7021 12.0773 17.7017 12.0854 17.7026 12.1171V15.001L21.8025 10.9015C21.919 10.8072 22.0464 10.726 22.192 10.703C22.2894 10.6877 22.3884 10.703 22.4861 10.7184C22.608 10.7652 22.645 10.7684 22.7483 10.8519C22.9772 11.0374 23.0707 11.3766 22.9634 11.6554C22.9159 11.7793 22.8852 11.8008 22.803 11.9022L20.4698 14.2356L23.0119 14.2401C23.4046 14.2503 23.7454 14.606 23.716 15.0002C23.6902 15.3501 23.377 15.6474 23.009 15.6555L19.0568 15.6484L17.513 17.1926C17.4943 17.2135 17.4745 17.2333 17.4536 17.2516L17.2879 17.4173H20.5335L20.5705 17.4184C20.9332 17.4467 21.2412 17.7634 21.2412 18.125C21.2412 18.493 20.9192 18.8224 20.5335 18.8327H15.8728L12.0957 22.61Z" fill="white"/>
</svg>
