<svg width="32" height="32" viewBox="0 0 32 32" fill="none" xmlns="http://www.w3.org/2000/svg">
<rect x="1" y="1" width="30" height="30" rx="15" stroke="#79C500" stroke-width="2"/>
<mask id="path-2-inside-1_633_4643" fill="white">
<path d="M23.7243 10.2456C22.8737 9.41508 21.6987 9 20.1985 9C19.7834 9 19.3597 9.07198 18.9279 9.21588C18.4959 9.35988 18.094 9.55415 17.7227 9.79856C17.3509 10.0429 17.0313 10.2724 16.7633 10.4866C16.4956 10.7009 16.241 10.9286 16 11.1696C15.7588 10.9286 15.5044 10.7009 15.2366 10.4866C14.9687 10.2724 14.649 10.043 14.2773 9.79856C13.9056 9.55404 13.5038 9.35991 13.0719 9.21588C12.64 9.07202 12.2164 9 11.8013 9C10.3012 9 9.12608 9.41518 8.27566 10.2456C7.42524 11.0759 7 12.2276 7 13.7008C7 14.1495 7.07881 14.6117 7.23611 15.0869C7.3934 15.5624 7.57266 15.9676 7.77351 16.3023C7.97433 16.637 8.20206 16.9636 8.45653 17.2817C8.711 17.5998 8.89697 17.8189 9.01402 17.9395C9.13118 18.0599 9.22328 18.1471 9.29023 18.2006L15.558 24.2475C15.6786 24.3681 15.8259 24.4285 15.9999 24.4285C16.174 24.4285 16.3214 24.3681 16.4419 24.2477L22.6997 18.2208C24.2332 16.6875 24.9999 15.1808 24.9999 13.7008C25 12.2276 24.5747 11.0759 23.7243 10.2456Z"/>
</mask>
<path d="M23.7243 10.2456C22.8737 9.41508 21.6987 9 20.1985 9C19.7834 9 19.3597 9.07198 18.9279 9.21588C18.4959 9.35988 18.094 9.55415 17.7227 9.79856C17.3509 10.0429 17.0313 10.2724 16.7633 10.4866C16.4956 10.7009 16.241 10.9286 16 11.1696C15.7588 10.9286 15.5044 10.7009 15.2366 10.4866C14.9687 10.2724 14.649 10.043 14.2773 9.79856C13.9056 9.55404 13.5038 9.35991 13.0719 9.21588C12.64 9.07202 12.2164 9 11.8013 9C10.3012 9 9.12608 9.41518 8.27566 10.2456C7.42524 11.0759 7 12.2276 7 13.7008C7 14.1495 7.07881 14.6117 7.23611 15.0869C7.3934 15.5624 7.57266 15.9676 7.77351 16.3023C7.97433 16.637 8.20206 16.9636 8.45653 17.2817C8.711 17.5998 8.89697 17.8189 9.01402 17.9395C9.13118 18.0599 9.22328 18.1471 9.29023 18.2006L15.558 24.2475C15.6786 24.3681 15.8259 24.4285 15.9999 24.4285C16.174 24.4285 16.3214 24.3681 16.4419 24.2477L22.6997 18.2208C24.2332 16.6875 24.9999 15.1808 24.9999 13.7008C25 12.2276 24.5747 11.0759 23.7243 10.2456Z" fill="white" stroke="#79C500" stroke-width="2.4" mask="url(#path-2-inside-1_633_4643)"/>
</svg>
