<svg width="32" height="33" viewBox="0 0 32 33" fill="none" xmlns="http://www.w3.org/2000/svg">
<rect y="0.5" width="32" height="32" rx="16" fill="#4533B2"/>
<g clip-path="url(#clip0_364_152)">
<path d="M22.7657 12.6548C22.9858 12.3218 23.1144 11.9232 23.1144 11.495C23.1144 10.3319 22.1681 9.38559 21.005 9.38559C20.5768 9.38559 20.1782 9.51417 19.8452 9.7343C18.6767 9.06872 17.3582 8.71875 16 8.71875C11.7094 8.71875 8.21875 12.2094 8.21875 16.5C8.21875 17.8582 8.56872 19.1767 9.23434 20.3452C9.01422 20.6782 8.88564 21.0768 8.88564 21.505C8.88564 22.6681 9.83191 23.6144 10.995 23.6144C11.4232 23.6144 11.8218 23.4858 12.1548 23.2657C13.3233 23.9313 14.6417 24.2812 16 24.2812C20.2906 24.2812 23.7812 20.7906 23.7812 16.5C23.7812 15.1417 23.4313 13.8233 22.7657 12.6548ZM16 22.875C14.9483 22.875 13.9263 22.6186 13.0097 22.1307C13.0712 21.9329 13.1044 21.7228 13.1044 21.505C13.1044 20.3419 12.1581 19.3957 10.995 19.3957C10.7773 19.3957 10.5671 19.4288 10.3694 19.4904C9.88136 18.5737 9.625 17.5517 9.625 16.5C9.625 12.9848 12.4848 10.125 16 10.125C17.0517 10.125 18.0737 10.3814 18.9903 10.8693C18.9288 11.0671 18.8956 11.2772 18.8956 11.495C18.8956 12.6581 19.8419 13.6043 21.005 13.6043C21.2227 13.6043 21.4329 13.5712 21.6306 13.5096C22.1186 14.4263 22.375 15.4483 22.375 16.5C22.375 20.0152 19.5152 22.875 16 22.875Z" fill="white"/>
<path d="M16 20.0625C17.9675 20.0625 19.5625 18.4675 19.5625 16.5C19.5625 14.5325 17.9675 12.9375 16 12.9375C14.0325 12.9375 12.4375 14.5325 12.4375 16.5C12.4375 18.4675 14.0325 20.0625 16 20.0625Z" fill="white"/>
<path d="M28 16.5C28 13.2947 26.7518 10.2812 24.4853 8.01469C22.2188 5.74823 19.2053 4.5 16 4.5C13.4904 4.5 11.1102 5.25717 9.08097 6.69455C8.76723 6.5093 8.40189 6.40252 8.01189 6.40252C6.84878 6.40252 5.90252 7.34878 5.90252 8.51189C5.90252 8.90189 6.0093 9.26723 6.19455 9.58097C4.75717 11.6102 4 13.9904 4 16.5C4 19.7053 5.24823 22.7188 7.51469 24.9853C9.78123 27.2518 12.7947 28.5 16 28.5C18.5096 28.5 20.8898 27.7428 22.919 26.3055C23.2328 26.4907 23.5981 26.5975 23.9881 26.5975C25.1512 26.5975 26.0975 25.6512 26.0975 24.4881C26.0975 24.0981 25.9907 23.7328 25.8055 23.419C27.2428 21.3898 28 19.0096 28 16.5ZM8.50909 23.9909C6.50819 21.99 5.40625 19.3297 5.40625 16.5C5.40625 14.324 6.05097 12.2584 7.27586 10.4885C7.50517 10.5742 7.75309 10.6213 8.01189 10.6213C9.175 10.6213 10.1213 9.675 10.1213 8.51189C10.1213 8.25309 10.0742 8.00513 9.98852 7.77586C11.7584 6.55092 13.824 5.90625 16 5.90625C18.8297 5.90625 21.49 7.00819 23.4909 9.00909C25.4918 11.01 26.5938 13.6703 26.5938 16.5C26.5938 18.676 25.9491 20.7416 24.7241 22.5115C24.4948 22.4258 24.2469 22.3787 23.9881 22.3787C22.825 22.3787 21.8787 23.325 21.8787 24.4881C21.8787 24.7469 21.9258 24.9949 22.0115 25.2241C20.2416 26.4491 18.176 27.0938 16 27.0938C13.1703 27.0938 10.51 25.9918 8.50909 23.9909Z" fill="white"/>
</g>
<defs>
<clipPath id="clip0_364_152">
<rect width="24" height="24" fill="white" transform="translate(4 4.5)"/>
</clipPath>
</defs>
</svg>
