<svg width="32" height="33" viewBox="0 0 32 33" fill="none" xmlns="http://www.w3.org/2000/svg">
<rect y="0.5" width="32" height="32" rx="16" fill="#C92C8A"/>
<g clip-path="url(#clip0_364_137)">
<path d="M22.6399 25.4549L22.6396 25.4547L16.8183 21.8119L16.5 21.6128L16.1817 21.8119L10.3604 25.4546L10.3575 25.4565C10.3571 25.4568 10.356 25.4574 10.3532 25.4573C10.3502 25.4572 10.3468 25.4563 10.3432 25.4537L10.3429 25.4535C10.3383 25.4501 10.3364 25.4445 10.3377 25.4393L10.3379 25.4383L12.0034 18.7758L12.0938 18.4139L11.8093 18.1726L6.60802 13.7627L6.60803 13.7627L6.60523 13.7604C6.60084 13.7567 6.59883 13.7503 6.60076 13.7443L6.6009 13.7439C6.60283 13.7379 6.60834 13.7337 6.61444 13.7332L6.61449 13.7332L13.4032 13.2592L13.7775 13.233L13.9178 12.885L16.4738 6.54538C16.4811 6.54373 16.4901 6.54263 16.5 6.54263C16.5099 6.54263 16.5189 6.54373 16.5262 6.54538L19.0822 12.885L19.2225 13.233L19.5968 13.2592L26.3855 13.7332L26.3855 13.7332C26.3916 13.7337 26.3972 13.7379 26.3991 13.7439L26.3992 13.7443C26.4012 13.7503 26.3991 13.7567 26.3947 13.7604L26.392 13.7627L21.1906 18.1727L20.9061 18.414L20.9966 18.7759L22.662 25.4383L22.6623 25.4393C22.6636 25.4446 22.6617 25.4502 22.6571 25.4535L22.6566 25.4538C22.6543 25.4555 22.6528 25.4561 22.6519 25.4564C22.6515 25.4565 22.6511 25.4567 22.6507 25.4568C22.6499 25.4569 22.6491 25.457 22.6482 25.457C22.645 25.4571 22.642 25.4562 22.6399 25.4549Z" stroke="white" stroke-width="1.2"/>
</g>
<defs>
<clipPath id="clip0_364_137">
<rect width="21" height="21" fill="white" transform="translate(6 5.5)"/>
</clipPath>
</defs>
</svg>
