<svg width="24" height="24" viewBox="0 0 24 24" fill="none" xmlns="http://www.w3.org/2000/svg">
<path fill-rule="evenodd" clip-rule="evenodd" d="M0 12C0 5.37258 5.37258 0 12 0C18.6274 0 24 5.37258 24 12C24 18.6274 18.6274 24 12 24C5.37258 24 0 18.6274 0 12Z" fill="#168DE2"/>
<path d="M6.66667 7.71429L10.7387 11.0086L10.74 11.01C11.192 11.365 11.418 11.5429 11.666 11.6114C11.8851 11.6722 12.1149 11.6722 12.334 11.6114C12.582 11.5429 12.8087 11.365 13.262 11.0086C13.262 11.0086 15.8733 8.86143 17.3333 7.71429M6 14.7143V9.28571C6 8.48571 6 8.08571 6.14533 7.78C6.27333 7.51071 6.47667 7.29286 6.728 7.15571C7.01333 7 7.38667 7 8.13333 7H15.8667C16.6133 7 16.9867 7 17.2713 7.15571C17.5227 7.29286 17.7267 7.51071 17.8547 7.78C18 8.085 18 8.485 18 9.28357V14.7171C18 15.5157 18 15.9143 17.8547 16.22C17.7266 16.4888 17.5224 16.7074 17.2713 16.8443C16.9867 17 16.614 17 15.8687 17H8.13133C7.386 17 7.01267 17 6.728 16.8443C6.47713 16.7073 6.27316 16.4888 6.14533 16.22C6 15.9143 6 15.5143 6 14.7143Z" stroke="white" stroke-width="1.6" stroke-linecap="round" stroke-linejoin="round"/>
</svg>
