<svg width="17" height="16" viewBox="0 0 17 16" fill="none" xmlns="http://www.w3.org/2000/svg">
<path d="M15.7641 0.237895C15.4469 -0.0792985 14.9346 -0.0792985 14.6174 0.237895L7.99695 6.8583L1.38467 0.246029C1.06748 -0.0711651 0.55509 -0.0711651 0.237896 0.246029C-0.0792985 0.563223 -0.0792985 1.07561 0.237896 1.39281L6.85017 8.00508L0.237896 14.6174C-0.0792985 14.9346 -0.0792985 15.4469 0.237896 15.7641C0.400559 15.9268 0.603889 16 0.815351 16C1.02681 16 1.23014 15.9187 1.39281 15.7641L7.99695 9.15186L14.6092 15.7641C14.7719 15.9268 14.9752 16 15.1867 16C15.3981 16 15.6015 15.9187 15.7641 15.7641C16.0813 15.4469 16.0813 14.9346 15.7641 14.6174L9.14373 8.00508L15.756 1.39281C16.0813 1.07561 16.0813 0.555089 15.7641 0.237895Z" fill="#79C500"/>
</svg>
