<svg width="20" height="20" viewBox="0 0 20 20" fill="none" xmlns="http://www.w3.org/2000/svg">
<g clip-path="url(#clip0_2008_12528)">
<path d="M17.0656 2.9375C16.1405 2.00606 15.0401 1.26695 13.828 0.762789C12.6159 0.258627 11.3159 -0.000617944 10.0031 1.10606e-06C4.47812 1.10606e-06 0.015625 4.475 0.015625 10C0.015625 15.525 4.47812 20 10.0031 20C14.6656 20 18.5531 16.8125 19.6656 12.5H17.0656C16.5507 13.9619 15.5948 15.228 14.3298 16.1235C13.0648 17.0191 11.5531 17.5001 10.0031 17.5C5.86562 17.5 2.50312 14.1375 2.50312 10C2.50312 5.8625 5.86562 2.5 10.0031 2.5C12.0781 2.5 13.9281 3.3625 15.2781 4.725L11.2531 8.75H20.0031V1.10606e-06L17.0656 2.9375Z" fill="white"/>
</g>
<defs>
<clipPath id="clip0_2008_12528">
<rect width="20" height="20" fill="white"/>
</clipPath>
</defs>
</svg>
