<svg width="16" height="17" viewBox="0 0 16 17" fill="none" xmlns="http://www.w3.org/2000/svg">
<path d="M2.34391 2.84244C-0.776094 5.96244 -0.776094 11.0367 2.34391 14.1567C3.902 15.7148 5.95153 16.4958 8.00105 16.4958C10.0506 16.4958 12.1001 15.7148 13.6582 14.1567C16.7782 11.0367 16.7782 5.96244 13.6582 2.84244C10.5382 -0.277558 5.46391 -0.277558 2.34391 2.84244ZM13.121 13.6196C10.2982 16.4424 5.70772 16.4424 2.88486 13.6196C0.0620015 10.7967 0.0620015 6.20625 2.88486 3.38339C4.29438 1.97387 6.14962 1.2653 8.00486 1.2653C9.8601 1.2653 11.7115 1.97006 13.1249 3.38339C15.9401 6.20244 15.9401 10.7967 13.121 13.6196Z" fill="#79C500"/>
<path d="M11.6397 4.86167C11.4911 4.7131 11.2511 4.7131 11.1025 4.86167L8.00157 7.96263L4.90443 4.86548C4.75586 4.71691 4.51586 4.71691 4.36729 4.86548C4.21872 5.01405 4.21872 5.25405 4.36729 5.40263L7.46443 8.49977L4.36729 11.5969C4.21872 11.7455 4.21872 11.9855 4.36729 12.1341C4.44348 12.2102 4.53872 12.2445 4.63776 12.2445C4.73681 12.2445 4.83205 12.2064 4.90824 12.1341L8.00157 9.03691L11.0987 12.1341C11.1749 12.2102 11.2701 12.2445 11.3692 12.2445C11.4682 12.2445 11.5635 12.2064 11.6397 12.1341C11.7882 11.9855 11.7882 11.7455 11.6397 11.5969L8.53872 8.49977L11.6359 5.40263C11.7882 5.25405 11.7882 5.01024 11.6397 4.86167Z" fill="#79C500"/>
</svg>
