<svg width="32" height="32" viewBox="0 0 32 32" fill="none" xmlns="http://www.w3.org/2000/svg">
<path d="M29.1851 10.9102H27.8482L26.564 5.01855C26.3135 3.86816 25.3335 3.06494 24.1802 3.06494H19.67C19.582 2.69562 19.2514 2.41943 18.8555 2.41943H13.1445C12.7486 2.41943 12.418 2.69562 12.33 3.06494H7.81982C6.6665 3.06494 5.68652 3.86816 5.43652 5.01855L4.15149 10.9102H2.81494C1.81396 10.9102 1 11.7266 1 12.73C1 13.2075 1.18701 13.6621 1.53174 14.0142C1.76495 14.2471 2.05286 14.4021 2.3642 14.4817C2.69531 17.3375 3.56409 24.806 3.61768 25.0493L3.63037 25.1206C4.04297 27.5708 5.4082 27.9365 6.18555 27.9365H16H25.8145C26.5918 27.9365 27.957 27.5708 28.3696 25.1206L28.3823 25.0493C28.4359 24.806 29.3047 17.337 29.6358 14.4814C30.4181 14.2797 31 13.5745 31 12.73C31 12.2495 30.813 11.793 30.4648 11.4375C30.1172 11.0972 29.6626 10.9102 29.1851 10.9102ZM25.5869 5.23145L26.8252 10.9102H25.8027L24.6133 5.4585C24.5635 5.22852 24.3599 5.06494 24.125 5.06494H19.6948V4.06494H24.1802C24.8589 4.06494 25.437 4.54443 25.5869 5.23145ZM12.3219 6.06494C12.3988 6.44897 12.7382 6.73926 13.1445 6.73926H18.8555C19.2618 6.73926 19.6012 6.44897 19.6781 6.06494H23.7222L24.7793 10.9102H7.22128L8.28223 6.06494H12.3219ZM13.3052 3.41943H18.6948V3.56494V5.56494V5.73926H13.3052V5.56494V3.56494V3.41943ZM6.41357 5.23145C6.56299 4.54443 7.14111 4.06494 7.81982 4.06494H12.3052V5.06494H7.87988C7.64502 5.06494 7.44189 5.22852 7.3916 5.45801L6.19775 10.9102H5.17529L6.41357 5.23145ZM27.4062 24.8325C27.4004 24.8579 27.3931 24.8994 27.3838 24.9546C27.1592 26.2881 26.6455 26.9365 25.8145 26.9365H16H6.18555C5.35449 26.9365 4.84082 26.2881 4.61621 24.9546C4.60693 24.8994 4.59961 24.8579 4.59668 24.8457C4.54483 24.5472 3.86295 18.7209 3.37814 14.5449H28.6219C28.1371 18.7209 27.4553 24.5466 27.4062 24.8325ZM29.1851 13.5449H2.81494C2.59375 13.5449 2.39453 13.4624 2.24219 13.3105C2.08594 13.1509 2 12.9448 2 12.73C2 12.2778 2.36572 11.9102 2.81494 11.9102H4.5752H6.6001H25.3999H27.4248H29.1851C29.3999 11.9102 29.606 11.9961 29.7578 12.1445C29.9141 12.3042 30 12.5122 30 12.73C30 13.1792 29.6343 13.5449 29.1851 13.5449Z" fill="#79C500"/>
<path d="M8.82812 16.7417C8.55176 16.7417 8.32812 16.9653 8.32812 17.2417V23.5322C8.32812 23.8086 8.55176 24.0322 8.82812 24.0322C9.10449 24.0322 9.32812 23.8086 9.32812 23.5322V17.2417C9.32812 16.9653 9.10449 16.7417 8.82812 16.7417Z" fill="#79C500"/>
<path d="M13.6094 16.7417C13.333 16.7417 13.1094 16.9653 13.1094 17.2417V23.5322C13.1094 23.8086 13.333 24.0322 13.6094 24.0322C13.8857 24.0322 14.1094 23.8086 14.1094 23.5322V17.2417C14.1094 16.9653 13.8857 16.7417 13.6094 16.7417Z" fill="#79C500"/>
<path d="M18.3906 16.7417C18.1143 16.7417 17.8906 16.9653 17.8906 17.2417V23.5322C17.8906 23.8086 18.1143 24.0322 18.3906 24.0322C18.667 24.0322 18.8906 23.8086 18.8906 23.5322V17.2417C18.8906 16.9653 18.667 16.7417 18.3906 16.7417Z" fill="#79C500"/>
<path d="M23.1719 16.7417C22.8955 16.7417 22.6719 16.9653 22.6719 17.2417V23.5322C22.6719 23.8086 22.8955 24.0322 23.1719 24.0322C23.4482 24.0322 23.6719 23.8086 23.6719 23.5322V17.2417C23.6719 16.9653 23.4482 16.7417 23.1719 16.7417Z" fill="#79C500"/>
</svg>
