<svg width="20" height="20" viewBox="0 0 20 20" fill="none" xmlns="http://www.w3.org/2000/svg">
<path d="M5.25229 7.97967L8.57313 2.67975C8.70183 2.47027 8.88268 2.29764 9.09805 2.17868C9.31343 2.05973 9.55599 1.99849 9.80211 2.00094C9.99594 1.99396 10.1892 2.02584 10.3705 2.09471C10.5518 2.16357 10.7174 2.26802 10.8576 2.40189C10.9977 2.53576 11.1096 2.69632 11.1866 2.87409C11.2635 3.05186 11.304 3.24322 11.3056 3.43688V7.23559H17.0452C17.2573 7.24246 17.4655 7.29407 17.6562 7.38703C17.8469 7.48 18.0157 7.6122 18.1515 7.77496C18.2874 7.93772 18.3872 8.12735 18.4444 8.33137C18.5015 8.5354 18.5148 8.7492 18.4834 8.95872L17.4374 15.6946C17.3928 16.0546 17.2181 16.3859 16.946 16.6263C16.674 16.8666 16.3233 16.9995 15.96 17H7.38338C6.9751 17.0016 6.57212 16.9077 6.20671 16.7258L5.26536 16.2559M5.25229 7.97967V16.2167H2.15371C1.98033 16.2167 1.81406 16.148 1.69147 16.0256C1.56887 15.9032 1.5 15.7371 1.5 15.564V8.63237C1.5 8.45926 1.56887 8.29325 1.69147 8.17084C1.81406 8.04844 1.98033 7.97967 2.15371 7.97967H5.25229Z" stroke="#79C500" stroke-width="2.4" stroke-linecap="round" stroke-linejoin="round"/>
</svg>
