<svg width="24" height="24" viewBox="0 0 24 24" fill="none" xmlns="http://www.w3.org/2000/svg">
<path fill-rule="evenodd" clip-rule="evenodd" d="M12 24C18.6274 24 24 18.6274 24 12C24 5.37258 18.6274 0 12 0C5.37258 0 0 5.37258 0 12C0 18.6274 5.37258 24 12 24Z" fill="#00AEF3"/>
<path fill-rule="evenodd" clip-rule="evenodd" d="M19.54 13.6985C19.6557 13.1773 19.7159 12.6376 19.7159 12.083C19.7159 7.92836 16.3001 4.55921 12.0847 4.55921C11.6406 4.55921 11.2051 4.59723 10.7799 4.66956C10.0978 4.24575 9.29069 4 8.42615 4C5.98119 4 4 5.95305 4 8.36423C4 9.16919 4.22201 9.92222 4.60771 10.5714C4.50706 11.0592 4.45343 11.5655 4.45343 12.083C4.45343 16.2395 7.87018 19.6077 12.0847 19.6077C12.5626 19.6077 13.0292 19.5641 13.4826 19.4816C14.1063 19.8117 14.8175 20 15.5748 20C18.0188 20 20 18.046 20 15.6367C20 14.9402 19.8344 14.2827 19.54 13.6985Z" fill="white"/>
<path fill-rule="evenodd" clip-rule="evenodd" d="M16.4625 15.496C16.1076 15.9675 15.5833 16.3397 14.9019 16.6038C14.229 16.8662 13.4227 17 12.5038 17C11.4013 17 10.4767 16.8183 9.75457 16.4594C9.2388 16.1988 8.81388 15.8461 8.49117 15.4082C8.16467 14.9686 8 14.5317 8 14.1089C8 13.8466 8.10789 13.6179 8.31987 13.4309C8.52997 13.2448 8.79968 13.1517 9.12145 13.1517C9.38454 13.1517 9.61262 13.2253 9.79716 13.3715C9.97413 13.5125 10.1256 13.7207 10.2476 13.9875C10.3839 14.28 10.5315 14.5264 10.6877 14.7187C10.8391 14.9066 11.0558 15.0635 11.3322 15.1867C11.6104 15.309 11.9861 15.3728 12.447 15.3728C13.082 15.3728 13.6025 15.2451 13.9934 14.9952C14.3767 14.7515 14.5621 14.4572 14.5621 14.0974C14.5621 13.8147 14.4647 13.5913 14.2659 13.4158C14.0558 13.2333 13.7804 13.0915 13.4464 12.9922C13.0972 12.8912 12.624 12.7804 12.0382 12.6652C11.2404 12.5056 10.5637 12.3168 10.0262 12.1015C9.47539 11.8826 9.03155 11.5786 8.70694 11.1984C8.3776 10.811 8.21009 10.3262 8.21009 9.75636C8.21009 9.21395 8.38517 8.72383 8.73155 8.30196C9.07413 7.88274 9.57571 7.55482 10.2221 7.33236C10.859 7.11167 11.6161 7 12.4744 7C13.1596 7 13.7625 7.07445 14.2659 7.22157C14.7722 7.3687 15.1981 7.56723 15.5331 7.81273C15.871 8.06089 16.1227 8.32412 16.2798 8.59887C16.4388 8.87627 16.5202 9.15191 16.5202 9.41868C16.5202 9.67571 16.4142 9.90969 16.205 10.1126C15.995 10.3183 15.729 10.422 15.4167 10.422C15.1328 10.422 14.9095 10.3564 14.7562 10.2288C14.6123 10.1091 14.4628 9.92298 14.2972 9.65709C14.106 9.31676 13.8741 9.04821 13.6082 8.85855C13.3498 8.6742 12.9192 8.58203 12.3259 8.58203C11.777 8.58203 11.3284 8.68484 10.9962 8.88957C10.6763 9.08544 10.5202 9.31144 10.5202 9.5791C10.5202 9.74218 10.5703 9.87955 10.6744 9.99654C10.7823 10.1224 10.9366 10.2305 11.1315 10.3227C11.3331 10.4175 11.5413 10.4938 11.7495 10.5469C11.9625 10.6028 12.3202 10.6852 12.8114 10.7915C13.4331 10.9156 14.0038 11.0565 14.5082 11.2081C15.0202 11.3605 15.4612 11.5484 15.8227 11.7691C16.1899 11.9934 16.4804 12.2805 16.6877 12.6244C16.895 12.9709 17 13.3963 17 13.8918C17 14.4838 16.8183 15.0236 16.4625 15.496Z" fill="#00AEF3"/>
</svg>
