<svg width="12" height="14" viewBox="0 0 12 14" fill="none" xmlns="http://www.w3.org/2000/svg">
<path d="M0.294737 7.75L6.09684 13.6897C6.50105 14.1034 7.14947 14.1034 7.55368 13.6897C7.95789 13.2759 7.95789 12.6121 7.55368 12.1983L3.51158 8.06034L10.9642 8.06034C11.5368 8.06034 12 7.58621 12 7C12 6.41379 11.5368 5.93965 10.9642 5.93965L3.52 5.93965L7.5621 1.80172C7.96631 1.38793 7.96631 0.724138 7.5621 0.310345C7.15789 -0.103449 6.50947 -0.103449 6.10526 0.310345L0.303158 6.25C0.101052 6.4569 -2.93921e-07 6.72414 -3.0598e-07 7C-3.18038e-07 7.27586 0.092631 7.5431 0.294737 7.75Z" fill="#CBD3D9"/>
</svg>
