<svg width="12" height="14" viewBox="0 0 12 14" fill="none" xmlns="http://www.w3.org/2000/svg">
<path d="M11.7053 7.75L5.90316 13.6897C5.49895 14.1034 4.85053 14.1034 4.44632 13.6897C4.04211 13.2759 4.04211 12.6121 4.44632 12.1983L8.48842 8.06034L1.03579 8.06034C0.463158 8.06034 3.31604e-07 7.58621 3.0598e-07 7C2.80356e-07 6.41379 0.463158 5.93965 1.03579 5.93965L8.48 5.93965L4.4379 1.80172C4.03369 1.38793 4.03369 0.724138 4.4379 0.310345C4.84211 -0.103449 5.49053 -0.103449 5.89474 0.310345L11.6968 6.25C11.8989 6.4569 12 6.72414 12 7C12 7.27586 11.9074 7.5431 11.7053 7.75Z" fill="#79C500"/>
</svg>
