<svg xmlns="http://www.w3.org/2000/svg" width="86" height="86" fill="none"><path fill="#79C500" d="M59.875 6.438a19.688 19.688 0 1 0 19.688 19.687A19.709 19.709 0 0 0 59.874 6.437Zm9.619 33.534-.667-1.154a1.406 1.406 0 0 0-2.435 1.406l.663 1.15a16.72 16.72 0 0 1-5.774 1.554v-1.334a1.406 1.406 0 0 0-2.812 0v1.334a16.72 16.72 0 0 1-5.774-1.554l.663-1.15a1.406 1.406 0 0 0-2.435-1.406l-.667 1.154a17.038 17.038 0 0 1-4.228-4.228l1.154-.667a1.406 1.406 0 1 0-1.406-2.435l-1.15.663a16.727 16.727 0 0 1-1.554-5.774h1.334a1.406 1.406 0 1 0 0-2.812h-1.334a16.725 16.725 0 0 1 1.547-5.774l1.15.663a1.406 1.406 0 0 0 1.406-2.435l-1.154-.667a17.043 17.043 0 0 1 4.228-4.228l.667 1.154a1.407 1.407 0 0 0 2.437-1.406l-.664-1.15a16.717 16.717 0 0 1 5.78-1.554v1.334a1.406 1.406 0 1 0 2.812 0V9.322c2.003.166 3.959.693 5.774 1.554l-.663 1.15a1.406 1.406 0 0 0 2.437 1.406l.666-1.154a17.043 17.043 0 0 1 4.229 4.228l-1.155.667a1.406 1.406 0 1 0 1.406 2.435l1.15-.663a16.726 16.726 0 0 1 1.553 5.774h-1.334a1.406 1.406 0 0 0 0 2.812h1.334a16.725 16.725 0 0 1-1.547 5.774l-1.15-.663a1.406 1.406 0 0 0-1.406 2.435l1.154.667a17.042 17.042 0 0 1-4.235 4.228Z"/><path fill="#79C500" d="M61.281 23.703v-7.422a1.406 1.406 0 0 0-2.812 0v7.422c-.42.246-.77.596-1.016 1.016h-4.61a1.406 1.406 0 1 0 0 2.812h4.61a2.804 2.804 0 1 0 3.828-3.828ZM57.233 55.244a4.219 4.219 0 0 0-5.965 0l-7.394 7.395a9.757 9.757 0 0 1-10.98 2.033A24.003 24.003 0 0 1 21.33 53.108a9.768 9.768 0 0 1 2.035-10.985l7.391-7.389a4.22 4.22 0 0 0 0-5.966L17.222 15.234a4.228 4.228 0 0 0-6.187.216 42.48 42.48 0 0 0-3.125 4.1A42.208 42.208 0 0 0 27.17 82.102a42.234 42.234 0 0 0 39.283-4.014 42.918 42.918 0 0 0 4.097-3.125 4.229 4.229 0 0 0 .218-6.188l-13.534-13.53ZM13.167 17.288a1.384 1.384 0 0 1 1.008-.48h.055a1.405 1.405 0 0 1 1.004.416l13.534 13.533a1.406 1.406 0 0 1 0 1.989l-2.643 2.64L10.918 20.18a40.694 40.694 0 0 1 2.249-2.892Zm15.06 62.207a39.419 39.419 0 0 1-21.724-21.73 39.319 39.319 0 0 1 2.842-35.182l14.792 14.792-2.76 2.76a12.59 12.59 0 0 0-2.596 14.164A26.84 26.84 0 0 0 31.704 67.22a12.577 12.577 0 0 0 14.157-2.593l2.763-2.763 14.793 14.792a39.317 39.317 0 0 1-35.192 2.84Zm40.484-6.661a40.777 40.777 0 0 1-2.89 2.25L50.614 59.875l2.642-2.64a1.406 1.406 0 0 1 1.989 0l13.533 13.533a1.405 1.405 0 0 1 .415 1.059 1.388 1.388 0 0 1-.482 1.007Z"/><path fill="#79C500" d="M59.876.813a25.306 25.306 0 0 0-22.767 36.365L34.59 49.75a1.433 1.433 0 0 0 .38 1.28 1.416 1.416 0 0 0 1.28.38l12.572-2.518A25.313 25.313 0 1 0 59.876.812Zm0 47.812a22.27 22.27 0 0 1-10.21-2.46 1.46 1.46 0 0 0-.647-.156 1.908 1.908 0 0 0-.28.029l-10.97 2.193 2.194-10.968c.065-.315.02-.643-.126-.929a22.27 22.27 0 0 1-2.461-10.209 22.5 22.5 0 1 1 22.5 22.5Z"/></svg>