<svg width="70" height="71" viewBox="0 0 70 71" fill="none" xmlns="http://www.w3.org/2000/svg">
<path d="M68.9746 0.5H1.0254C0.459105 0.5 0 0.959105 0 1.5254V38.5249C0 39.0912 0.459105 39.5503 1.0254 39.5503H3.3588L4.24228 45.9462C4.31242 46.4543 4.74691 46.8313 5.25797 46.8313C5.39209 46.8313 4.20742 46.9828 31.8303 43.1707L34.7144 49.6021C34.6395 50.409 34.5957 51.2314 34.5904 52.0635C34.567 55.7252 35.6065 58.1921 36.4417 60.1742C36.8199 61.0719 37.1443 61.842 37.316 62.5752H35.4576C34.3544 62.5752 33.457 63.4726 33.457 64.5759V69.4747C33.457 70.041 33.9161 70.5001 34.4824 70.5001H49.7532C50.3196 70.5001 50.7786 70.041 50.7786 69.4747C50.7786 68.9085 50.3196 68.4493 49.7532 68.4493H35.5076V64.626H58.9377V68.4493H54.2217C53.6553 68.4493 53.1963 68.9085 53.1963 69.4747C53.1963 70.041 53.6553 70.5001 54.2217 70.5001H59.9631C60.5296 70.5001 60.9885 70.041 60.9885 69.4747V64.5759C60.9885 63.4727 60.0911 62.5752 58.9878 62.5752H56.4831L56.2906 59.7631C56.2572 59.3521 56.2625 58.9368 56.3064 58.5265C56.8824 57.153 61.0934 46.8878 61.4341 39.5505H68.9747C69.5412 39.5505 70.0001 39.0914 70.0001 38.5251V1.5254C70 0.959105 69.541 0.5 68.9746 0.5ZM48.4984 33.2526V27.0063C48.4984 25.081 47.3459 23.4199 45.6948 22.6761C45.9082 21.8128 46.0161 20.925 46.0161 20.0251C46.0161 13.9508 41.0743 9.00903 35.0001 9.00903C30.0535 9.00903 25.6849 12.3369 24.3765 17.102C24.2265 17.6481 24.5476 18.2125 25.0938 18.3623C25.6402 18.5126 26.2041 18.1911 26.3541 17.6449C27.4188 13.7677 30.9742 11.0597 35.0001 11.0597C39.9435 11.0597 43.9653 15.0816 43.9653 20.025C43.9653 20.785 43.8709 21.5341 43.6844 22.2605C41.0985 22.2968 39.006 24.4116 39.006 27.0061V28.0474C37.7689 28.6655 36.3954 28.9901 35 28.9901C30.672 28.9901 26.9638 25.9061 26.1828 21.657C26.0804 21.1 25.5454 20.7319 24.989 20.8338C24.432 20.9362 24.0635 21.4706 24.1658 22.0276C25.1257 27.2502 29.6821 31.0408 35 31.0408C36.3764 31.0408 37.7359 30.7834 39.006 30.2884V33.2522H10.449C10.047 31.1339 8.41606 29.5029 6.29773 29.101V10.949C8.41606 10.547 10.047 8.91606 10.449 6.79773H59.5511C59.9529 8.91606 61.584 10.547 63.7023 10.949V29.1014C61.584 29.5033 59.9529 31.1343 59.5511 33.2526H48.4984ZM33.9466 42.8782L36.1285 42.5769C35.8186 43.5976 35.5277 44.6995 35.2842 45.8612L33.9466 42.8782ZM54.2879 58.1316C54.2117 58.7267 54.1979 59.3314 54.2454 59.916L54.4273 62.575H39.4059C39.222 61.4917 38.7865 60.4577 38.3315 59.3778C37.5295 57.4744 36.6204 55.317 36.6412 52.0765C36.6933 43.9103 40.7685 36.6237 40.8241 36.4791C40.9786 36.0794 41.057 35.6596 41.057 35.2312C41.057 31.9152 41.057 29.3568 41.057 27.0063C41.057 25.52 42.2661 24.311 43.7524 24.311C45.2327 24.311 46.4477 25.5143 46.4477 27.0063C46.4589 37.1262 46.2307 33.0941 47.5464 38.7574C47.6633 39.2449 47.1045 37.0443 48.8199 43.6988C48.9613 44.2472 49.5199 44.5774 50.0689 44.4359C50.6172 44.2945 50.9473 43.7353 50.8059 43.1871L49.8687 39.5502H59.3813C58.9946 47.1137 54.3366 57.7527 54.2879 58.1316ZM67.9492 37.4995H49.3399L48.7738 35.3034H60.4809C61.0473 35.3034 61.5063 34.8443 61.5063 34.278C61.5063 32.4414 62.8913 31.0566 64.7278 31.0566C65.2943 31.0566 65.7532 30.5975 65.7532 30.0312V10.0191C65.7532 9.45283 65.2943 8.99372 64.7278 8.99372C62.8913 8.99372 61.5063 7.60888 61.5063 5.77233C61.5063 5.20603 61.0473 4.74693 60.4809 4.74693H9.51912C8.95283 4.74693 8.49372 5.20603 8.49372 5.77233C8.49372 7.60888 7.10888 8.99372 5.27233 8.99372C4.70603 8.99372 4.24693 9.45283 4.24693 10.0191V30.0313C4.24693 30.5976 4.70603 31.0567 5.27233 31.0567C7.10888 31.0567 8.49372 32.4416 8.49372 34.2781C8.49372 34.8444 8.95283 35.3035 9.51912 35.3035H39.0041C38.9802 35.7744 38.9009 35.6017 38.0396 37.4997H17.3675C16.8012 37.4997 16.3421 37.9588 16.3421 38.5251C16.3421 39.0914 16.8012 39.5505 17.3675 39.5505H37.1766C37.0699 39.8243 36.9619 40.1101 36.8538 40.4066L6.13339 44.6498L5.42901 39.5503H12.8987C13.465 39.5503 13.9241 39.0912 13.9241 38.5249C13.9241 37.9586 13.465 37.4995 12.8987 37.4995H2.0508V2.5508H67.9492V37.4995Z" fill="#151716"/>
<path d="M54.8675 16.876C53.1313 16.876 51.7188 18.2886 51.7188 20.0247C51.7188 21.7609 53.1313 23.1735 54.8675 23.1735C56.6037 23.1735 58.0163 21.7609 58.0163 20.0247C58.0163 18.2886 56.6037 16.876 54.8675 16.876ZM54.8675 21.1227C54.262 21.1227 53.7695 20.6301 53.7695 20.0247C53.7695 19.4194 54.2621 18.9268 54.8675 18.9268C55.4729 18.9268 55.9655 19.4194 55.9655 20.0247C55.9655 20.6301 55.4729 21.1227 54.8675 21.1227Z" fill="#79C500"/>
<path d="M15.1331 16.876C13.397 16.876 11.9844 18.2886 11.9844 20.0247C11.9844 21.7609 13.397 23.1735 15.1331 23.1735C16.8695 23.1735 18.2819 21.7609 18.2819 20.0247C18.2819 18.2886 16.8693 16.876 15.1331 16.876ZM15.1331 21.1227C14.5278 21.1227 14.0352 20.6301 14.0352 20.0247C14.0352 19.4194 14.5278 18.9268 15.1331 18.9268C15.7385 18.9268 16.2311 19.4194 16.2311 20.0247C16.2311 20.6301 15.7385 21.1227 15.1331 21.1227Z" fill="#79C500"/>
<path d="M35 16.5C32.7945 16.5 31 18.2945 31 20.5C31 22.7056 32.7945 24.5 35 24.5C37.2057 24.5 39 22.7056 39 20.5C39 18.2945 37.2055 16.5 35 16.5ZM35 21.8948C34.2309 21.8948 33.6052 21.2691 33.6052 20.5C33.6052 19.731 34.2309 19.1052 35 19.1052C35.769 19.1052 36.3948 19.731 36.3948 20.5C36.3948 21.2691 35.769 21.8948 35 21.8948Z" fill="#79C500"/>
<path d="M38.6816 65.5127C38.1015 65.5153 37.6562 65.9852 37.6562 66.5384C37.6562 67.095 38.1123 67.5638 38.6816 67.5638C39.2421 67.5638 39.707 67.1068 39.707 66.5384C39.707 65.957 39.2304 65.5102 38.6816 65.5127Z" fill="#79C500"/>
</svg>
