<svg width="70" height="71" viewBox="0 0 70 71" fill="none" xmlns="http://www.w3.org/2000/svg">
<g clip-path="url(#clip0_1066_6473)">
<path d="M29.5406 6.39633V5.67678C29.5406 5.57814 29.5212 5.48047 29.4835 5.38934C29.4458 5.29821 29.3905 5.21541 29.3207 5.14565C29.251 5.0759 29.1682 5.02057 29.0771 4.98282C28.9859 4.94507 28.8883 4.92564 28.7896 4.92564H23.6325C23.4333 4.92564 23.2423 4.84652 23.1014 4.70568C22.9606 4.56484 22.8815 4.37383 22.8815 4.17465V3.49023C22.8815 3.2908 22.8022 3.09954 22.6612 2.95852C22.5202 2.8175 22.3289 2.73828 22.1295 2.73828H21.4541C21.2549 2.73828 21.0639 2.8174 20.9231 2.95824C20.7822 3.09908 20.7031 3.2901 20.7031 3.48928V6.42176C20.7031 6.62095 20.7822 6.81198 20.9231 6.95284C21.0639 7.0937 21.2549 7.17285 21.4541 7.17289H24.3779C24.577 7.17289 24.768 7.25201 24.9089 7.39285C25.0497 7.53369 25.1288 7.72471 25.1288 7.92389V8.60311C25.1288 8.70177 25.1482 8.79949 25.1859 8.89066C25.2236 8.98183 25.2789 9.06467 25.3487 9.13445C25.4184 9.20422 25.5013 9.25956 25.5924 9.2973C25.6836 9.33503 25.7813 9.35443 25.88 9.35437H26.5995C26.7988 9.35437 26.99 9.27525 27.131 9.13437C27.272 8.9935 27.3513 8.80242 27.3515 8.60311V7.89846C27.3515 7.69928 27.4306 7.50826 27.5714 7.36742C27.7123 7.22658 27.9033 7.14746 28.1025 7.14746H28.7891C28.9882 7.14724 29.1792 7.06804 29.32 6.92722C29.4608 6.7864 29.54 6.59547 29.5402 6.39633H29.5406Z" fill="#151716"/>
<path d="M21.1464 22.6659H24.6337C24.7587 22.6659 24.8786 22.6162 24.967 22.5278C25.0555 22.4394 25.1051 22.3195 25.1051 22.1945V20.9375C25.1051 20.8125 25.0555 20.6926 24.967 20.6042C24.8786 20.5158 24.7587 20.4661 24.6337 20.4661H23.3607C23.2988 20.4661 23.2375 20.4539 23.1803 20.4302C23.1231 20.4065 23.0712 20.3718 23.0274 20.328C22.9836 20.2842 22.9489 20.2323 22.9252 20.1751C22.9015 20.1179 22.8893 20.0566 22.8893 19.9947V18.7145C22.8893 18.5893 22.8396 18.4693 22.7512 18.3808C22.6627 18.2923 22.5428 18.2425 22.4176 18.2424H18.9294C18.8044 18.2424 18.6845 18.1927 18.5961 18.1043C18.5077 18.0159 18.458 17.896 18.458 17.771V14.3132C18.458 14.2513 18.4458 14.19 18.4221 14.1328C18.3984 14.0756 18.3637 14.0236 18.3199 13.9799C18.2761 13.9361 18.2242 13.9014 18.167 13.8777C18.1098 13.854 18.0485 13.8418 17.9866 13.8418H16.7051C16.58 13.8418 16.46 13.8915 16.3715 13.98C16.283 14.0684 16.2332 14.1884 16.233 14.3135V17.7906C16.2331 17.8525 16.221 17.9138 16.1974 17.9709C16.1738 18.0281 16.1391 18.08 16.0954 18.1238C16.0516 18.1675 15.9997 18.2022 15.9426 18.2259C15.8854 18.2495 15.8242 18.2617 15.7623 18.2616H14.5261C14.4011 18.2616 14.2812 18.3113 14.1928 18.3997C14.1044 18.4881 14.0547 18.608 14.0547 18.733V22.1997C14.0548 22.3248 14.1046 22.4448 14.1931 22.5333C14.2816 22.6218 14.4016 22.6716 14.5268 22.6718H15.7846C15.9096 22.6718 16.0295 22.6221 16.1179 22.5337C16.2063 22.4453 16.256 22.3254 16.256 22.2004V20.9595C16.256 20.8976 16.2681 20.8363 16.2918 20.7791C16.3155 20.722 16.3502 20.67 16.394 20.6262C16.4377 20.5825 16.4897 20.5478 16.5469 20.5241C16.6041 20.5005 16.6654 20.4883 16.7273 20.4884H20.2039C20.3288 20.4884 20.4486 20.5381 20.537 20.6264C20.6253 20.7148 20.675 20.8346 20.675 20.9595V22.1945C20.675 22.3195 20.7247 22.4394 20.8131 22.5278C20.9015 22.6162 21.0214 22.6659 21.1464 22.6659Z" fill="#151716"/>
<path d="M21.4992 31.5421H22.0799C22.2931 31.542 22.4975 31.4573 22.6483 31.3065C22.799 31.1557 22.8837 30.9512 22.8836 30.7379V30.171C22.8836 29.9578 22.7989 29.7534 22.6481 29.6027C22.4974 29.452 22.293 29.3673 22.0799 29.3672H21.4987C21.2998 29.3672 21.108 29.441 20.9604 29.5742C20.8128 29.7075 20.7198 29.8907 20.6994 30.0885C20.6967 30.1158 20.6953 30.1432 20.6953 30.1705V30.7375C20.6953 30.7649 20.6967 30.7923 20.6994 30.8196C20.7195 31.0177 20.8124 31.2013 20.9602 31.3348C21.108 31.4683 21.3001 31.5422 21.4992 31.5421Z" fill="#79C500"/>
<path d="M8.11818 11.5951H17.7113C17.9105 11.5951 18.1015 11.516 18.2424 11.3752C18.3832 11.2343 18.4623 11.0433 18.4623 10.8441V1.251C18.4623 1.05182 18.3832 0.860801 18.2424 0.719962C18.1015 0.579123 17.9105 0.5 17.7113 0.5H8.11818C7.91901 0.5 7.72799 0.579123 7.58715 0.719962C7.44631 0.860801 7.36719 1.05182 7.36719 1.251V10.8441C7.36719 11.0433 7.44631 11.2343 7.58715 11.3752C7.72799 11.516 7.91901 11.5951 8.11818 11.5951ZM9.61102 3.48443C9.61102 3.3858 9.63045 3.28813 9.66819 3.19701C9.70594 3.10588 9.76127 3.02309 9.83103 2.95335C9.90078 2.88361 9.98358 2.8283 10.0747 2.79056C10.1658 2.75283 10.2635 2.73342 10.3621 2.73344H15.4735C15.5721 2.73342 15.6698 2.75283 15.761 2.79056C15.8521 2.8283 15.9349 2.88361 16.0046 2.95335C16.0744 3.02309 16.1297 3.10588 16.1675 3.19701C16.2052 3.28813 16.2246 3.3858 16.2246 3.48443V8.59771C16.2246 8.69635 16.2052 8.79402 16.1675 8.88514C16.1297 8.97626 16.0744 9.05906 16.0046 9.1288C15.9349 9.19854 15.8521 9.25385 15.761 9.29158C15.6698 9.32932 15.5721 9.34873 15.4735 9.34871H10.3619C10.2633 9.34869 10.1656 9.32925 10.0745 9.29149C9.98338 9.25373 9.9006 9.1984 9.83088 9.12865C9.76116 9.0589 9.70585 8.9761 9.66813 8.88498C9.63041 8.79386 9.611 8.6962 9.61102 8.59758V3.48443Z" fill="#151716"/>
<path d="M32.5285 8.84231H33.2699C33.4691 8.84231 33.6602 8.76317 33.801 8.6223C33.9419 8.48144 34.021 8.29038 34.021 8.09117V3.48594C34.021 3.3873 34.0404 3.28963 34.0782 3.1985C34.1159 3.10737 34.1712 3.02457 34.2409 2.95481C34.3107 2.88506 34.3935 2.82973 34.4846 2.79198C34.5757 2.75423 34.6734 2.7348 34.772 2.7348H39.8838C39.9824 2.7348 40.0801 2.75423 40.1712 2.79198C40.2624 2.82973 40.3452 2.88506 40.4149 2.95481C40.4846 3.02457 40.5399 3.10737 40.5777 3.1985C40.6154 3.28963 40.6348 3.3873 40.6348 3.48594V8.09117C40.6348 8.29038 40.7139 8.48144 40.8548 8.6223C40.9957 8.76317 41.1867 8.84231 41.3859 8.84231H42.1216C42.3208 8.84227 42.5118 8.76312 42.6527 8.62226C42.7935 8.48139 42.8726 8.29036 42.8726 8.09117V1.251C42.8726 1.15237 42.8532 1.05472 42.8155 0.963602C42.7777 0.872487 42.7224 0.789698 42.6527 0.719962C42.5829 0.650225 42.5001 0.594907 42.409 0.557166C42.3179 0.519425 42.2202 0.5 42.1216 0.5H32.5285C32.4298 0.499982 32.3322 0.519394 32.241 0.557127C32.1499 0.59486 32.0671 0.650175 31.9974 0.719913C31.9276 0.789652 31.8723 0.872447 31.8345 0.963571C31.7968 1.05469 31.7773 1.15236 31.7773 1.251V8.09117C31.7773 8.29038 31.8565 8.48144 31.9973 8.6223C32.1382 8.76317 32.3293 8.84231 32.5285 8.84231Z" fill="#151716"/>
<path d="M17.6356 24.9092H8.17055C7.95747 24.9092 7.75313 24.9939 7.60248 25.1446C7.45182 25.2952 7.36719 25.4996 7.36719 25.7127V35.2025C7.36719 35.4155 7.45182 35.6199 7.60248 35.7706C7.75313 35.9212 7.95747 36.0059 8.17055 36.006H17.6356C17.8487 36.0059 18.053 35.9212 18.2037 35.7706C18.3543 35.6199 18.4389 35.4155 18.4389 35.2025V25.7127C18.4389 25.4996 18.3543 25.2952 18.2037 25.1446C18.053 24.9939 17.8487 24.9092 17.6356 24.9092ZM16.2274 32.9646C16.2274 33.1777 16.1427 33.3821 15.9921 33.5328C15.8414 33.6834 15.6371 33.7681 15.424 33.7681H10.4177C10.2046 33.7681 10.0002 33.6834 9.84959 33.5328C9.69893 33.3821 9.6143 33.1777 9.6143 32.9646V27.9562C9.6143 27.7432 9.69894 27.5388 9.8496 27.3882C10.0003 27.2375 10.2046 27.1529 10.4177 27.1529H15.4247C15.6378 27.1529 15.8421 27.2375 15.9928 27.3882C16.1434 27.5388 16.2281 27.7432 16.2281 27.9562L16.2274 32.9646Z" fill="#151716"/>
<path d="M7.83832 22.6907H9.12266C9.24768 22.6907 9.36759 22.641 9.45599 22.5526C9.5444 22.4642 9.59406 22.3443 9.59406 22.2193V20.9394C9.59406 20.8144 9.64373 20.6945 9.73213 20.6061C9.82054 20.5177 9.94044 20.468 10.0655 20.468H11.3084C11.4334 20.468 11.5533 20.4184 11.6417 20.33C11.7301 20.2415 11.7798 20.1216 11.7798 19.9966V18.716C11.7798 18.591 11.7301 18.471 11.6417 18.3826C11.5533 18.2942 11.4334 18.2446 11.3084 18.2446H10.0529C9.92787 18.2446 9.80796 18.1949 9.71956 18.1065C9.63115 18.0181 9.58148 17.8982 9.58148 17.7732V14.2868C9.58148 14.1618 9.53182 14.0419 9.44341 13.9535C9.35501 13.8651 9.2351 13.8154 9.11008 13.8154H7.83859C7.71357 13.8154 7.59366 13.8651 7.50526 13.9535C7.41685 14.0419 7.36719 14.1618 7.36719 14.2868V22.2204C7.36748 22.3451 7.41723 22.4647 7.50555 22.5529C7.59386 22.641 7.71353 22.6906 7.83832 22.6907Z" fill="#151716"/>
<path d="M28.8044 0.5H25.8682C25.4534 0.5 25.1172 0.836232 25.1172 1.251V1.94498C25.1172 2.35974 25.4534 2.69598 25.8682 2.69598H28.8044C29.2191 2.69598 29.5554 2.35974 29.5554 1.94498V1.251C29.5554 0.836232 29.2191 0.5 28.8044 0.5Z" fill="#151716"/>
<path d="M26.3588 24.9355H21.5027C21.3972 24.9355 21.2927 24.9563 21.1952 24.9967C21.0977 25.0371 21.0092 25.0963 20.9346 25.1709C20.8599 25.2455 20.8008 25.3341 20.7604 25.4316C20.72 25.529 20.6992 25.6335 20.6992 25.739V26.3319C20.6992 26.545 20.7839 26.7493 20.9346 26.9C21.0852 27.0507 21.2896 27.1354 21.5027 27.1354H24.2908C24.5039 27.1354 24.7083 27.22 24.8589 27.3706C25.0096 27.5213 25.0943 27.7256 25.0943 27.9387V32.9925C25.0943 33.2056 25.0096 33.4099 24.8589 33.5606C24.7083 33.7112 24.5039 33.7959 24.2908 33.7959H21.5071C21.4016 33.7959 21.2971 33.8167 21.1996 33.857C21.1021 33.8974 21.0135 33.9566 20.9389 34.0312C20.8643 34.1058 20.8051 34.1944 20.7648 34.2919C20.7244 34.3894 20.7036 34.4939 20.7036 34.5994V35.1761C20.7036 35.2816 20.7244 35.3861 20.7648 35.4835C20.8051 35.581 20.8643 35.6696 20.9389 35.7442C21.0135 35.8188 21.1021 35.878 21.1996 35.9184C21.2971 35.9588 21.4016 35.9795 21.5071 35.9795H26.3588C26.5719 35.9795 26.7763 35.8949 26.927 35.7442C27.0777 35.5935 27.1623 35.3892 27.1623 35.1761V25.739C27.1623 25.5259 27.0777 25.3216 26.927 25.1709C26.7763 25.0202 26.5719 24.9355 26.3588 24.9355Z" fill="#151716"/>
<path d="M26.6913 13.8047H21.1784C20.9181 13.8047 20.707 14.0157 20.707 14.2761V15.5447C20.707 15.8051 20.9181 16.0161 21.1784 16.0161H26.6913C26.9517 16.0161 27.1628 15.8051 27.1628 15.5447V14.2761C27.1628 14.0157 26.9517 13.8047 26.6913 13.8047Z" fill="#151716"/>
<path d="M21.4576 11.5672H22.1314C22.3308 11.5672 22.5221 11.488 22.6631 11.3469C22.8041 11.2059 22.8833 11.0147 22.8833 10.8152V10.1416C22.8833 9.94245 22.8042 9.75143 22.6634 9.61059C22.5225 9.46975 22.3315 9.39062 22.1323 9.39062H21.458C21.2589 9.39062 21.0678 9.46975 20.927 9.61059C20.7862 9.75143 20.707 9.94245 20.707 10.1416V10.8159C20.7069 10.9146 20.7262 11.0124 20.7639 11.1037C20.8015 11.1949 20.8569 11.2779 20.9266 11.3477C20.9964 11.4175 21.0793 11.4729 21.1705 11.5107C21.2617 11.5485 21.3594 11.5679 21.4582 11.5679L21.4576 11.5672Z" fill="#79C500"/>
<path d="M13.5367 13.834H12.2995C12.0392 13.834 11.8281 14.045 11.8281 14.3054V15.5364C11.8281 15.7968 12.0392 16.0078 12.2995 16.0078H13.5367C13.797 16.0078 14.0081 15.7968 14.0081 15.5364V14.3054C14.0081 14.045 13.797 13.834 13.5367 13.834Z" fill="#79C500"/>
<path d="M12.5754 7.13773H13.251C13.4504 7.13773 13.6417 7.05851 13.7827 6.91749C13.9237 6.77647 14.003 6.58521 14.003 6.38578V5.7041C14.003 5.50467 13.9237 5.31341 13.7827 5.17239C13.6417 5.03137 13.4504 4.95215 13.251 4.95215H12.5754C12.4767 4.95213 12.379 4.97154 12.2879 5.00928C12.1968 5.04701 12.114 5.10232 12.0442 5.17206C11.9745 5.2418 11.9191 5.3246 11.8814 5.41572C11.8436 5.50684 11.8242 5.60451 11.8242 5.70314V6.38674C11.8243 6.58593 11.9034 6.77695 12.0443 6.91778C12.1851 7.05862 12.3762 7.13773 12.5754 7.13773Z" fill="#79C500"/>
<path d="M37.6643 4.9541H36.9893C36.5745 4.9541 36.2383 5.29033 36.2383 5.7051V6.37912C36.2383 6.79388 36.5745 7.13012 36.9893 7.13012H37.6643C38.079 7.13012 38.4153 6.79388 38.4153 6.37912V5.7051C38.4153 5.29033 38.079 4.9541 37.6643 4.9541Z" fill="#79C500"/>
<path d="M13.2131 29.377H12.6315C12.1878 29.377 11.8281 29.7366 11.8281 30.1803V30.7373C11.8281 31.181 12.1878 31.5407 12.6315 31.5407H13.2131C13.6568 31.5407 14.0164 31.181 14.0164 30.7373V30.1803C14.0164 29.7366 13.6568 29.377 13.2131 29.377Z" fill="#79C500"/>
<path d="M57.0703 10.7559H35.0176C33.5423 10.7574 32.1278 11.3442 31.0846 12.3874C30.0414 13.4306 29.4547 14.845 29.4531 16.3203V64.9357C29.4546 66.411 30.0414 67.8255 31.0846 68.8687C32.1278 69.9119 33.5423 70.4987 35.0176 70.5002H57.0703C58.5456 70.4986 59.9601 69.9119 61.0033 68.8687C62.0465 67.8255 62.6332 66.411 62.6348 64.9357V16.3199C62.6331 14.8447 62.0463 13.4304 61.0031 12.3873C59.9599 11.3442 58.5455 10.7575 57.0703 10.7559ZM60.4076 64.9361C60.4066 65.821 60.0547 66.6693 59.4291 67.2949C58.8034 67.9206 57.9551 68.2726 57.0703 68.2736H35.0176C34.1325 68.2728 33.284 67.9209 32.6581 67.2951C32.0323 66.6693 31.6803 65.8208 31.6795 64.9357V16.3199C31.6804 15.4351 32.0324 14.5868 32.6581 13.9611C33.2837 13.3354 34.1321 12.9835 35.0169 12.9826H57.0703C57.9551 12.9836 58.8034 13.3355 59.4291 13.9612C60.0547 14.5868 60.4066 15.4351 60.4076 16.3199V64.9361Z" fill="#151716"/>
<path d="M47.4324 64.3633H44.657C44.5098 64.3617 44.3637 64.3893 44.2272 64.4445C44.0906 64.4998 43.9664 64.5815 43.8617 64.6851C43.757 64.7886 43.6739 64.9119 43.6172 65.0478C43.5605 65.1837 43.5312 65.3295 43.5312 65.4767C43.5312 65.624 43.5605 65.7698 43.6172 65.9057C43.6739 66.0416 43.757 66.1648 43.8617 66.2684C43.9664 66.3719 44.0906 66.4537 44.2272 66.5089C44.3637 66.5641 44.5098 66.5917 44.657 66.5901H47.4324C47.7256 66.5868 48.0056 66.4681 48.2117 66.2597C48.4179 66.0512 48.5335 65.7699 48.5335 65.4767C48.5335 65.1836 48.4179 64.9022 48.2117 64.6938C48.0056 64.4853 47.7256 64.3666 47.4324 64.3633Z" fill="#79C500"/>
<path d="M51.7578 15.165H40.3281C40.0329 15.165 39.7497 15.2823 39.5409 15.4911C39.3321 15.6999 39.2148 15.9831 39.2148 16.2783C39.2148 16.5736 39.3321 16.8568 39.5409 17.0656C39.7497 17.2743 40.0329 17.3916 40.3281 17.3916H51.7578C52.0531 17.3916 52.3363 17.2743 52.5451 17.0656C52.7538 16.8568 52.8711 16.5736 52.8711 16.2783C52.8711 15.9831 52.7538 15.6999 52.5451 15.4911C52.3363 15.2823 52.0531 15.165 51.7578 15.165Z" fill="#79C500"/>
</g>
<defs>
<clipPath id="clip0_1066_6473">
<rect width="70" height="70" fill="white" transform="translate(0 0.5)"/>
</clipPath>
</defs>
</svg>
