<svg width="66" height="71" viewBox="0 0 66 71" fill="none" xmlns="http://www.w3.org/2000/svg">
<path fill-rule="evenodd" clip-rule="evenodd" d="M40.3828 70.5H3.87891C1.69141 70.5 0.0507812 68.7227 0.0507812 66.5352V15.6758C0.0507812 13.4883 1.69141 11.8477 3.87891 11.8477H12.2188C12.7656 11.8477 13.1758 12.2578 13.1758 12.8047V17.3164H29.8555V12.8047C29.8555 12.2578 30.2656 11.8477 30.8125 11.8477H40.3828C42.5703 11.8477 44.2109 13.4883 44.2109 15.6758V66.5352C44.2109 68.7227 42.5703 70.5 40.3828 70.5ZM3.87891 13.7617C2.78516 13.7617 1.96484 14.582 1.96484 15.6758V66.5352C1.96484 67.6289 2.78516 68.5859 3.87891 68.5859H40.3828C41.4766 68.5859 42.2969 67.6289 42.2969 66.5352V15.6758C42.2969 14.582 41.4766 13.7617 40.3828 13.7617H31.7695V18.2734C31.7695 18.8203 31.3594 19.2305 30.8125 19.2305H12.2188C11.6719 19.2305 11.2617 18.8203 11.2617 18.2734V13.7617H3.87891Z" fill="#151716"/>
<path fill-rule="evenodd" clip-rule="evenodd" d="M37.2383 36.7305H7.84375C7.29688 36.7305 6.88672 36.3203 6.88672 35.7734V23.332C6.88672 22.7852 7.29688 22.375 7.84375 22.375H37.2383C37.7852 22.375 38.1953 22.7852 38.1953 23.332V35.7734C38.1953 36.3203 37.6484 36.7305 37.2383 36.7305ZM8.80078 34.8164H36.2812V24.2891H8.80078V34.8164Z" fill="#151716"/>
<path fill-rule="evenodd" clip-rule="evenodd" d="M13.9961 48.0781H7.16016C6.61328 48.0781 6.20312 47.668 6.20312 47.1211V41.5156C6.20312 40.9688 6.61328 40.5586 7.16016 40.5586H13.9961C14.543 40.5586 14.9531 40.9688 14.9531 41.5156V47.1211C14.9531 47.668 14.4062 48.0781 13.9961 48.0781ZM8.11719 46.1641H13.0391V42.4727H8.11719V46.1641Z" fill="#151716"/>
<path fill-rule="evenodd" clip-rule="evenodd" d="M25.207 48.0781H18.3711C17.8242 48.0781 17.4141 47.668 17.4141 47.1211V41.5156C17.4141 40.9688 17.8242 40.5586 18.3711 40.5586H25.207C25.7539 40.5586 26.1641 40.9688 26.1641 41.5156V47.1211C26.1641 47.668 25.6172 48.0781 25.207 48.0781ZM19.3281 46.1641H24.25V42.4727H19.3281V46.1641Z" fill="#151716"/>
<path fill-rule="evenodd" clip-rule="evenodd" d="M36.5547 48.0781H29.7188C29.1719 48.0781 28.7617 47.668 28.7617 47.1211V41.5156C28.7617 40.9688 29.1719 40.5586 29.7188 40.5586H36.5547C37.1016 40.5586 37.5117 40.9688 37.5117 41.5156V47.1211C37.5117 47.668 36.9648 48.0781 36.5547 48.0781ZM30.6758 46.1641H35.5977V42.4727H30.6758V46.1641Z" fill="#151716"/>
<path fill-rule="evenodd" clip-rule="evenodd" d="M13.9961 56.8281H7.16016C6.61328 56.8281 6.20312 56.418 6.20312 55.8711V50.2656C6.20312 49.7188 6.61328 49.3086 7.16016 49.3086H13.9961C14.543 49.3086 14.9531 49.7188 14.9531 50.2656V55.8711C14.9531 56.418 14.4062 56.8281 13.9961 56.8281ZM8.11719 54.9141H13.0391V51.2227H8.11719V54.9141Z" fill="#151716"/>
<path fill-rule="evenodd" clip-rule="evenodd" d="M25.207 56.8281H18.3711C17.8242 56.8281 17.4141 56.418 17.4141 55.8711V50.2656C17.4141 49.7188 17.8242 49.3086 18.3711 49.3086H25.207C25.7539 49.3086 26.1641 49.7188 26.1641 50.2656V55.8711C26.1641 56.418 25.6172 56.8281 25.207 56.8281ZM19.3281 54.9141H24.25V51.2227H19.3281V54.9141Z" fill="#151716"/>
<path fill-rule="evenodd" clip-rule="evenodd" d="M36.5547 56.8281H29.7188C29.1719 56.8281 28.7617 56.418 28.7617 55.8711V50.2656C28.7617 49.7188 29.1719 49.3086 29.7188 49.3086H36.5547C37.1016 49.3086 37.5117 49.7188 37.5117 50.2656V55.8711C37.5117 56.418 36.9648 56.8281 36.5547 56.8281ZM30.6758 54.9141H35.5977V51.2227H30.6758V54.9141Z" fill="#151716"/>
<path fill-rule="evenodd" clip-rule="evenodd" d="M13.9961 65.4414H7.16016C6.61328 65.4414 6.20312 65.0312 6.20312 64.4844V58.8789C6.20312 58.332 6.61328 57.9219 7.16016 57.9219H13.9961C14.543 57.9219 14.9531 58.332 14.9531 58.8789V64.4844C14.9531 65.0312 14.4062 65.4414 13.9961 65.4414ZM8.11719 63.5273H13.0391V59.8359H8.11719V63.5273Z" fill="#151716"/>
<path fill-rule="evenodd" clip-rule="evenodd" d="M25.207 65.4414H18.3711C17.8242 65.4414 17.4141 65.0312 17.4141 64.4844V58.8789C17.4141 58.332 17.8242 57.9219 18.3711 57.9219H25.207C25.7539 57.9219 26.1641 58.332 26.1641 58.8789V64.4844C26.1641 65.0312 25.6172 65.4414 25.207 65.4414ZM19.3281 63.5273H24.25V59.8359H19.3281V63.5273Z" fill="#151716"/>
<path fill-rule="evenodd" clip-rule="evenodd" d="M36.5547 65.4414H29.7188C29.1719 65.4414 28.7617 65.0312 28.7617 64.4844V58.8789C28.7617 58.332 29.1719 57.9219 29.7188 57.9219H36.5547C37.1016 57.9219 37.5117 58.332 37.5117 58.8789V64.4844C37.5117 65.0312 36.9648 65.4414 36.5547 65.4414ZM30.6758 63.5273H35.5977V59.8359H30.6758V63.5273Z" fill="#151716"/>
<path fill-rule="evenodd" clip-rule="evenodd" d="M14.2695 30.5781H11.8086C11.2617 30.5781 10.8516 30.168 10.8516 29.6211C10.8516 29.0742 11.2617 28.6641 11.8086 28.6641H14.2695C14.8164 28.6641 15.2266 29.0742 15.2266 29.6211C15.2266 30.168 14.8164 30.5781 14.2695 30.5781Z" fill="#79C500"/>
<path fill-rule="evenodd" clip-rule="evenodd" d="M20.5586 30.5781H18.0977C17.5508 30.5781 17.1406 30.168 17.1406 29.6211C17.1406 29.0742 17.5508 28.6641 18.0977 28.6641H20.5586C21.1055 28.6641 21.5156 29.0742 21.5156 29.6211C21.5156 30.168 21.1055 30.5781 20.5586 30.5781Z" fill="#79C500"/>
<path fill-rule="evenodd" clip-rule="evenodd" d="M26.8477 30.5781H24.3867C23.8398 30.5781 23.4297 30.168 23.4297 29.6211C23.4297 29.0742 23.8398 28.6641 24.3867 28.6641H26.8477C27.3945 28.6641 27.8047 29.0742 27.8047 29.6211C27.8047 30.168 27.3945 30.5781 26.8477 30.5781Z" fill="#79C500"/>
<path fill-rule="evenodd" clip-rule="evenodd" d="M33.1367 30.5781H30.6758C30.1289 30.5781 29.7188 30.168 29.7188 29.6211C29.7188 29.0742 30.1289 28.6641 30.6758 28.6641H33.1367C33.6836 28.6641 34.0938 29.0742 34.0938 29.6211C34.0938 30.168 33.6836 30.5781 33.1367 30.5781Z" fill="#79C500"/>
<path fill-rule="evenodd" clip-rule="evenodd" d="M30.8125 19.2305H12.2188C11.6719 19.2305 11.2617 18.8203 11.2617 18.2734V1.45703C11.2617 0.910156 11.6719 0.5 12.2188 0.5H30.8125C31.3594 0.5 31.7695 0.910156 31.7695 1.45703V18.2734C31.7695 18.8203 31.3594 19.2305 30.8125 19.2305ZM13.1758 17.3164H29.8555V2.41406H13.1758V17.3164Z" fill="#151716"/>
<path fill-rule="evenodd" clip-rule="evenodd" d="M31.9062 19.2305H11.125C10.5781 19.2305 10.168 18.8203 10.168 18.2734C10.168 17.7266 10.5781 17.3164 11.125 17.3164H31.9062C32.4531 17.3164 32.8633 17.7266 32.8633 18.2734C32.8633 18.8203 32.4531 19.2305 31.9062 19.2305Z" fill="#151716"/>
<path fill-rule="evenodd" clip-rule="evenodd" d="M64.9922 58.4688H43.2539C42.707 58.4688 42.2969 58.0586 42.2969 57.5117V21.8281C42.2969 21.2812 42.707 20.8711 43.2539 20.8711H64.9922C65.5391 20.8711 65.9492 21.2812 65.9492 21.8281V57.5117C65.9492 58.0586 65.5391 58.4688 64.9922 58.4688ZM44.2109 56.5547H64.0352V22.7852H44.2109V56.5547Z" fill="#151716"/>
<path fill-rule="evenodd" clip-rule="evenodd" d="M60.7539 58.4688H54.1914C53.6445 58.4688 53.2344 57.9219 53.2344 57.5117V21.8281C53.2344 21.2812 53.6445 20.8711 54.1914 20.8711H60.7539C61.1641 20.8711 61.7109 21.2812 61.7109 21.8281V57.5117C61.7109 57.9219 61.1641 58.4688 60.7539 58.4688ZM55.1484 56.5547H59.7969V22.7852H55.1484V56.5547Z" fill="#151716"/>
<path fill-rule="evenodd" clip-rule="evenodd" d="M48.7227 31.2617C48.1758 31.2617 47.7656 30.8516 47.7656 30.3047V26.0664C47.7656 25.5195 48.1758 25.1094 48.7227 25.1094C49.2695 25.1094 49.6797 25.5195 49.6797 26.0664V30.3047C49.6797 30.8516 49.2695 31.2617 48.7227 31.2617Z" fill="#79C500"/>
<path fill-rule="evenodd" clip-rule="evenodd" d="M48.7227 38.5078C48.1758 38.5078 47.7656 38.0977 47.7656 37.5508V33.3125C47.7656 32.7656 48.1758 32.3555 48.7227 32.3555C49.2695 32.3555 49.6797 32.7656 49.6797 33.3125V37.5508C49.6797 38.0977 49.2695 38.5078 48.7227 38.5078Z" fill="#79C500"/>
<path fill-rule="evenodd" clip-rule="evenodd" d="M48.7227 45.7539C48.1758 45.7539 47.7656 45.3438 47.7656 44.7969V40.5586C47.7656 40.0117 48.1758 39.6016 48.7227 39.6016C49.2695 39.6016 49.6797 40.0117 49.6797 40.5586V44.7969C49.6797 45.3438 49.2695 45.7539 48.7227 45.7539Z" fill="#79C500"/>
<path fill-rule="evenodd" clip-rule="evenodd" d="M26.8477 6.24219H16.0469C15.5 6.24219 15.0898 5.83203 15.0898 5.28516C15.0898 4.73828 15.5 4.32812 16.0469 4.32812H26.8477C27.3945 4.32812 27.8047 4.73828 27.8047 5.28516C27.8047 5.83203 27.3945 6.24219 26.8477 6.24219Z" fill="#79C500"/>
<path fill-rule="evenodd" clip-rule="evenodd" d="M26.8477 9.93359H16.0469C15.5 9.93359 15.0898 9.52344 15.0898 8.97656C15.0898 8.42969 15.5 8.01953 16.0469 8.01953H26.8477C27.3945 8.01953 27.8047 8.42969 27.8047 8.97656C27.8047 9.52344 27.3945 9.93359 26.8477 9.93359Z" fill="#79C500"/>
<path fill-rule="evenodd" clip-rule="evenodd" d="M26.8477 13.625H16.0469C15.5 13.625 15.0898 13.2148 15.0898 12.668C15.0898 12.1211 15.5 11.7109 16.0469 11.7109H26.8477C27.3945 11.7109 27.8047 12.1211 27.8047 12.668C27.8047 13.2148 27.3945 13.625 26.8477 13.625Z" fill="#79C500"/>
</svg>
