<svg width="85" height="85" viewBox="0 0 85 85" fill="none" xmlns="http://www.w3.org/2000/svg">
<rect x="21" y="24" width="44" height="44" fill="white"/>
<path d="M67.3466 12.4258H17.6534C7.90369 12.4258 0 20.3295 0 30.0792V54.9205C0 64.6702 7.90369 72.5739 17.6534 72.5739H67.3466C77.0963 72.5739 85 64.6702 85 54.9205V30.0792C85 20.3295 77.0963 12.4258 67.3466 12.4258ZM55.4077 43.7085L32.1646 54.794C31.5453 55.0894 30.8299 54.6379 30.8299 53.9518V31.0878C30.8299 30.3919 31.5641 29.9409 32.1847 30.2555L55.4278 42.0339C56.1189 42.3841 56.1069 43.3751 55.4077 43.7085Z" fill="#F61C0D"/>
</svg>
