<svg xmlns="http://www.w3.org/2000/svg" width="18" height="18" viewBox="0 0 18 18" fill="none">
    <g clip-path="url(#clip0_4358_12268)">
        <path
            d="M17.4375 15.188H9.5625C9.252 15.188 9 14.936 9 14.6255C9 14.315 9 3.68599 9 3.37549C9 3.06499 9.252 2.81299 9.5625 2.81299H17.4375C17.748 2.81299 18 3.06499 18 3.37549V14.6255C18 14.936 17.748 15.188 17.4375 15.188Z"
            fill="#CBD3D9" />
        <path
            d="M11.8125 6.18799H9.5625C9.252 6.18799 9 5.93599 9 5.62549C9 5.31499 9.252 5.06299 9.5625 5.06299H11.8125C12.123 5.06299 12.375 5.31499 12.375 5.62549C12.375 5.93599 12.123 6.18799 11.8125 6.18799Z"
            fill="#79C500" />
        <path
            d="M11.8125 8.43799H9.5625C9.252 8.43799 9 8.18599 9 7.87549C9 7.56499 9.252 7.31299 9.5625 7.31299H11.8125C12.123 7.31299 12.375 7.56499 12.375 7.87549C12.375 8.18599 12.123 8.43799 11.8125 8.43799Z"
            fill="#79C500" />
        <path
            d="M11.8125 10.688H9.5625C9.252 10.688 9 10.436 9 10.1255C9 9.81499 9.252 9.56299 9.5625 9.56299H11.8125C12.123 9.56299 12.375 9.81499 12.375 10.1255C12.375 10.436 12.123 10.688 11.8125 10.688Z"
            fill="#79C500" />
        <path
            d="M11.8125 12.938H9.5625C9.252 12.938 9 12.686 9 12.3755C9 12.065 9.252 11.813 9.5625 11.813H11.8125C12.123 11.813 12.375 12.065 12.375 12.3755C12.375 12.686 12.123 12.938 11.8125 12.938Z"
            fill="#79C500" />
        <path
            d="M15.1875 6.18799H14.0625C13.752 6.18799 13.5 5.93599 13.5 5.62549C13.5 5.31499 13.752 5.06299 14.0625 5.06299H15.1875C15.498 5.06299 15.75 5.31499 15.75 5.62549C15.75 5.93599 15.498 6.18799 15.1875 6.18799Z"
            fill="#79C500" />
        <path
            d="M15.1875 8.43799H14.0625C13.752 8.43799 13.5 8.18599 13.5 7.87549C13.5 7.56499 13.752 7.31299 14.0625 7.31299H15.1875C15.498 7.31299 15.75 7.56499 15.75 7.87549C15.75 8.18599 15.498 8.43799 15.1875 8.43799Z"
            fill="#79C500" />
        <path
            d="M15.1875 10.688H14.0625C13.752 10.688 13.5 10.436 13.5 10.1255C13.5 9.81499 13.752 9.56299 14.0625 9.56299H15.1875C15.498 9.56299 15.75 9.81499 15.75 10.1255C15.75 10.436 15.498 10.688 15.1875 10.688Z"
            fill="#79C500" />
        <path
            d="M15.1875 12.938H14.0625C13.752 12.938 13.5 12.686 13.5 12.3755C13.5 12.065 13.752 11.813 14.0625 11.813H15.1875C15.498 11.813 15.75 12.065 15.75 12.3755C15.75 12.686 15.498 12.938 15.1875 12.938Z"
            fill="#79C500" />
        <path
            d="M9.92138 0.692145C9.79313 0.58527 9.621 0.539145 9.459 0.572895L0.459 2.26039C0.192375 2.30989 0 2.54164 0 2.81277V15.1878C0 15.4578 0.192375 15.6906 0.459 15.7401L9.459 17.4276C9.49275 17.4344 9.52763 17.4378 9.5625 17.4378C9.693 17.4378 9.82013 17.3928 9.92138 17.3084C10.0508 17.2015 10.125 17.0418 10.125 16.8753V1.12527C10.125 0.957645 10.0508 0.79902 9.92138 0.692145Z"
            fill="#669B11" />
        <path
            d="M7.73608 10.8803L5.95745 8.84743L7.75633 6.53443C7.94758 6.28918 7.90258 5.93593 7.65845 5.74468C7.41433 5.55343 7.06108 5.59843 6.8687 5.84255L5.20258 7.98456L3.79858 6.38031C3.5927 6.14406 3.2372 6.12268 3.00545 6.32743C2.77145 6.53218 2.74783 6.88768 2.95258 7.12056L4.49945 8.88906L2.9312 10.9051C2.73995 11.1503 2.78495 11.5036 3.02908 11.6948C3.13258 11.7747 3.2552 11.8129 3.37558 11.8129C3.5432 11.8129 3.70858 11.7387 3.81995 11.5958L5.25433 9.75081L6.89008 11.6194C7.00145 11.7477 7.1567 11.8129 7.31308 11.8129C7.4447 11.8129 7.57633 11.7668 7.6832 11.6734C7.9172 11.4687 7.94083 11.1132 7.73608 10.8803Z"
            fill="#FAFAFA" />
    </g>
    <defs>
        <clipPath id="clip0_4358_12268">
            <rect width="18" height="18" fill="white" />
        </clipPath>
    </defs>
</svg>