<svg xmlns="http://www.w3.org/2000/svg" width="22" height="22" viewBox="0 0 22 22" fill="none">
    <path
        d="M11 22C17.0751 22 22 17.0751 22 11C22 4.92487 17.0751 0 11 0C4.92487 0 0 4.92487 0 11C0 17.0751 4.92487 22 11 22Z"
        fill="white" />
    <path fill-rule="evenodd" clip-rule="evenodd"
        d="M9.53324 13.6893L9.09359 4.18054C8.99493 2.04559 13.0042 2.05867 12.9062 4.18054L12.4665 13.6893V14.4618C12.4665 15.2685 11.8066 15.9285 10.9999 15.9285C10.1932 15.9285 9.53324 15.2685 9.53324 14.4618V13.6893Z"
        fill="#F9AA00" />
    <path
        d="M10.9999 19.4361C11.8083 19.4361 12.4637 18.7807 12.4637 17.9723C12.4637 17.1639 11.8083 16.5085 10.9999 16.5085C10.1915 16.5085 9.53613 17.1639 9.53613 17.9723C9.53613 18.7807 10.1915 19.4361 10.9999 19.4361Z"
        fill="#F9AA00" />
</svg>