<svg width="25" height="25" viewBox="0 0 25 25" fill="none" xmlns="http://www.w3.org/2000/svg">
<g clip-path="url(#clip0_4113_8151)">
<path d="M11.0714 18.5C10.7873 18.5 10.5147 18.6054 10.3138 18.7929C10.1129 18.9804 10 19.2348 10 19.5C10 19.7652 10.1129 20.0196 10.3138 20.2071C10.5147 20.3946 10.7873 20.5 11.0714 20.5H13.9286C14.2127 20.5 14.4853 20.3946 14.6862 20.2071C14.8871 20.0196 15 19.7652 15 19.5C15 19.2348 14.8871 18.9804 14.6862 18.7929C14.4853 18.6054 14.2127 18.5 13.9286 18.5H11.0714Z" fill="white"/>
<path fill-rule="evenodd" clip-rule="evenodd" d="M7.7 0.5C6.98392 0.5 6.29716 0.784463 5.79081 1.29081C5.28446 1.79716 5 2.48392 5 3.2V21.8C5 22.5161 5.28446 23.2028 5.79081 23.7092C6.29716 24.2155 6.98392 24.5 7.7 24.5H17.3C18.0161 24.5 18.7028 24.2155 19.2092 23.7092C19.7155 23.2028 20 22.5161 20 21.8V3.2C20 2.48392 19.7155 1.79716 19.2092 1.29081C18.7028 0.784463 18.0161 0.5 17.3 0.5H7.7ZM6.8 3.2C6.8 2.96131 6.89482 2.73239 7.0636 2.5636C7.23239 2.39482 7.46131 2.3 7.7 2.3H17.3C17.5387 2.3 17.7676 2.39482 17.9364 2.5636C18.1052 2.73239 18.2 2.96131 18.2 3.2V21.8C18.2 22.0387 18.1052 22.2676 17.9364 22.4364C17.7676 22.6052 17.5387 22.7 17.3 22.7H7.7C7.46131 22.7 7.23239 22.6052 7.0636 22.4364C6.89482 22.2676 6.8 22.0387 6.8 21.8V3.2Z" fill="white"/>
</g>
<defs>
<clipPath id="clip0_4113_8151">
<rect width="24" height="24" fill="white" transform="translate(0.5 0.5)"/>
</clipPath>
</defs>
</svg>
