<svg width="24" height="23" viewBox="0 0 24 23" fill="none" xmlns="http://www.w3.org/2000/svg">
<path d="M10.8333 3.33333C10.8333 4.6225 9.2665 5.66667 7.33333 5.66667C5.40017 5.66667 3.83333 4.6225 3.83333 3.33333C3.83333 2.04417 5.40017 1 7.33333 1C9.2665 1 10.8333 2.04417 10.8333 3.33333ZM10.8333 3.33333H21.3333M2.66667 10.3333H21.3333C21.6428 10.3333 21.9395 10.4562 22.1583 10.675C22.3771 10.8938 22.5 11.1906 22.5 11.5V12.0833C22.5 13.8333 19.5635 18.5852 17.8333 19.6667V20.8333C17.8333 21.1428 17.7104 21.4395 17.4916 21.6583C17.2728 21.8771 16.9761 22 16.6667 22H7.33333C7.02391 22 6.72717 21.8771 6.50838 21.6583C6.28958 21.4395 6.16667 21.1428 6.16667 20.8333V19.6667C4.1985 18.437 1.5 13.8333 1.5 12.0833V11.5C1.5 11.1906 1.62292 10.8938 1.84171 10.675C2.0605 10.4562 2.35725 10.3333 2.66667 10.3333Z" stroke="white" stroke-width="2" stroke-linecap="round" stroke-linejoin="round"/>
</svg>
