<svg width="25" height="28" viewBox="0 0 25 28" fill="none" xmlns="http://www.w3.org/2000/svg">
<path d="M19.9376 5.51001H18.6709V2.3452C18.6709 1.75474 18.3965 1.19565 17.9368 0.849655C17.4771 0.503665 16.8809 0.407425 16.3421 0.592417L3.92876 4.85367C3.20033 5.10379 2.71094 5.80822 2.71094 6.60651V21.3477V25.6543C2.71094 26.672 3.50645 27.5 4.48427 27.5H19.9376C20.9154 27.5 21.7109 26.672 21.7109 25.6543V7.35571C21.7109 6.33804 20.9154 5.51001 19.9376 5.51001ZM20.1909 25.6543C20.1909 25.7997 20.0773 25.918 19.9376 25.918H4.48427C4.34458 25.918 4.23094 25.7997 4.23094 25.6543V20.5567V7.35571C4.23094 7.21032 4.34458 7.09204 4.48427 7.09204H19.9376C20.0773 7.09204 20.1909 7.21032 20.1909 7.35571V25.6543ZM16.8183 2.09482C16.9253 2.05812 17.0069 2.1021 17.0461 2.13158C17.0853 2.16106 17.151 2.22798 17.151 2.3452V5.51006H6.86956L16.8183 2.09482Z" fill="white"/>
<path d="M6.49355 15.5H7.44217H16.9283C17.3605 15.5 17.7109 15.1974 17.7109 14.8242C17.7109 14.4509 17.3605 14.1484 16.9283 14.1484H16.7016C16.3643 12.2832 14.6534 10.8058 12.4935 10.5145V10.1758C12.4935 9.80259 12.1431 9.5 11.7109 9.5C11.2787 9.5 10.9283 9.80259 10.9283 10.1758V10.5145C8.76843 10.8058 7.0576 12.2832 6.72024 14.1484H6.49355C6.06134 14.1484 5.71094 14.4509 5.71094 14.8242C5.71094 15.1974 6.06134 15.5 6.49355 15.5ZM11.7109 11.8137C13.3642 11.8137 14.7524 12.8127 15.1086 14.1484H8.31332C8.66951 12.8127 10.0577 11.8137 11.7109 11.8137Z" fill="white"/>
<path d="M6.44623 17.5C6.04015 17.5 5.71094 17.9477 5.71094 18.5C5.71094 19.0523 6.04015 19.5 6.44623 19.5H9.97564C10.3817 19.5 10.7109 19.0523 10.7109 18.5C10.7109 17.9477 10.3817 17.5 9.97564 17.5H6.44623Z" fill="white"/>
<path d="M16.9019 20.5H6.51993C6.07315 20.5 5.71094 20.9477 5.71094 21.5C5.71094 22.0523 6.07315 22.5 6.51993 22.5H16.9019C17.3487 22.5 17.7109 22.0523 17.7109 21.5C17.7109 20.9477 17.3487 20.5 16.9019 20.5Z" fill="white"/>
</svg>
