<svg width="70" height="70" viewBox="0 0 70 70" fill="none" xmlns="http://www.w3.org/2000/svg">
<path d="M42.691 29.3744L32.4535 38.7198L27.5403 33.8345C26.9956 33.2926 26.0987 33.2802 25.5385 33.8067C24.9777 34.3336 24.965 35.1999 25.5096 35.7419L31.4024 41.5883C31.9499 42.1206 32.8346 42.1388 33.4048 41.629L44.6651 31.3643C44.9385 31.115 45.0983 30.7709 45.1088 30.408C45.1194 30.045 44.9801 29.6928 44.7217 29.4291C44.1736 28.8785 43.2701 28.8544 42.691 29.3744Z" fill="#151716" stroke="white" stroke-width="0.6"/>
<path d="M35.6091 14.9998C24.3028 14.9998 15.1094 23.9689 15.1094 34.9995C15.1094 46.0306 24.3028 54.9998 35.6091 54.9998C46.916 54.9998 56.1094 46.0306 56.1094 34.9995C56.1094 23.9689 46.916 14.9998 35.6091 14.9998ZM35.6091 52.3224C25.8122 52.3224 17.8537 44.5444 17.8537 34.9995C17.8537 25.4546 25.8122 17.6771 35.6091 17.6771C45.4157 17.6771 53.3651 25.4326 53.3651 34.9995C53.3651 44.5664 45.4157 52.3224 35.6091 52.3224Z" fill="#79C500" stroke="white" stroke-width="0.6"/>
<path d="M63.4099 27.4383L63.8641 19.2819C63.8959 18.7344 63.5981 18.2202 63.1073 17.9752L55.8411 14.303L52.1669 7.04061C51.9169 6.55437 51.4057 6.25834 50.8595 6.28413L42.6849 6.72469L35.873 2.22662C35.4139 1.92413 34.8188 1.92413 34.3592 2.22662L27.5473 6.72469L19.3872 6.27069C18.8388 6.23846 18.3249 6.53611 18.0798 7.02718L14.4051 14.2895L7.13944 17.9618C6.65241 18.2111 6.35675 18.7221 6.38256 19.2685L6.83625 27.4248L2.33636 34.2332C2.03371 34.692 2.03371 35.2868 2.33636 35.7462L6.82282 42.568L6.36858 50.7243C6.33686 51.2718 6.63413 51.786 7.12546 52.031L14.3916 55.7033L18.0658 62.9656C18.3153 63.4524 18.8265 63.7479 19.3732 63.7221L27.5338 63.2681L34.3458 67.7656C34.8022 68.0778 35.4031 68.0778 35.8595 67.7656L42.6715 63.2681L50.8321 63.7221C51.3799 63.7538 51.8938 63.4562 52.1395 62.9656L55.8137 55.7033L63.0798 52.031C63.5663 51.7812 63.8625 51.2707 63.8367 50.7243L63.3825 42.568L67.8824 35.7596C68.185 35.3008 68.185 34.7055 67.8824 34.2466L63.4099 27.4383ZM60.8501 41.4402C60.6823 41.6863 60.6044 41.9823 60.6302 42.2794L61.0565 49.9953L54.1897 53.4612C53.9279 53.5923 53.7156 53.8051 53.5844 54.0667L50.1161 60.9299L42.3962 60.5038C42.1006 60.4931 41.8087 60.5694 41.5566 60.7236L35.1161 64.974L28.6762 60.7236C28.4525 60.5726 28.1891 60.4909 27.9193 60.4899H27.8505L20.1301 60.9164L16.6623 54.0528C16.5311 53.7911 16.3188 53.5789 16.0564 53.4478L9.17571 49.9953L9.60253 42.2794C9.61328 41.9839 9.53641 41.6922 9.38213 41.4402L5.13005 35.0031L9.38213 28.566C9.55038 28.3205 9.62833 28.0239 9.60253 27.7273L9.17571 20.011L16.043 16.545C16.3048 16.4139 16.5171 16.2017 16.6483 15.94L20.1161 9.07635L27.8365 9.50294C28.1316 9.51315 28.4235 9.43686 28.6762 9.28266L35.1161 5.03281L41.5566 9.28266C41.8028 9.45083 42.0995 9.52873 42.3962 9.50294L50.1161 9.07635L53.5844 15.94C53.7156 16.2017 53.9279 16.4139 54.1897 16.545L61.0565 20.011L60.6302 27.7273C60.6194 28.0223 60.6963 28.314 60.8501 28.566L65.1027 35.0031L60.8501 41.4402Z" fill="#151716" stroke="white" stroke-width="0.6"/>
</svg>
