<svg width="70" height="70" viewBox="0 0 70 70" fill="none" xmlns="http://www.w3.org/2000/svg">
<path d="M65.1975 53.4105L63.4611 51.6742C63.3873 51.6003 63.2602 51.6003 63.1863 51.6742L52.8928 61.9677C52.8189 62.0416 52.8189 62.166 52.8928 62.2384L54.6332 63.9789C54.707 64.0527 54.8314 64.0527 54.9039 63.9789L65.1975 53.6853C65.2713 53.6115 65.2713 53.483 65.1975 53.4105ZM64.8133 50.3179L66.5537 52.0583C67.3754 52.88 67.3754 54.2171 66.5537 55.0388L56.2602 65.3324C55.4385 66.154 54.0973 66.154 53.2756 65.3324L51.5393 63.596C50.9158 62.9726 50.7559 62.0347 51.1018 61.2513C49.4434 60.8671 47.7494 60.5226 45.7766 59.8828C45.7766 63.6494 42.777 66.6421 39.0869 66.6421H10.5127C6.82676 66.6421 3.82031 63.6316 3.82031 59.9498V9.89155C3.82031 6.20972 6.82813 3.2019 10.5127 3.2019H39.0869C42.7687 3.2019 45.7766 6.20972 45.7766 9.89155V38.4193C46.3344 38.407 46.8895 38.5546 47.3816 38.9156C48.4275 37.1478 51.1018 36.5052 52.9816 38.3851C57.1365 42.54 54.6441 40.2759 58.8729 44.4308C58.9316 44.4896 58.9781 44.547 59.0205 44.6126L62.299 49.9679C63.1084 49.5154 64.1393 49.6466 64.8133 50.3179ZM52.5127 59.6421L60.8648 51.2873L57.451 45.7105C55.3387 43.6365 54.9627 43.214 54.517 42.7191C54.1451 42.3007 53.7145 41.8236 51.6295 39.7427C50.1803 38.2894 48.6258 39.9287 48.9635 40.3511L51.851 43.0992C52.2352 43.4628 52.2502 44.0685 51.8865 44.4472C51.5229 44.8314 50.9172 44.8464 50.5385 44.4814L46.7295 40.8734L46.7336 40.8693L46.3494 40.5316C45.5086 39.7947 43.7449 41.3765 44.3807 42.0164L48.217 45.69C48.5971 46.0537 48.608 46.6593 48.2443 47.038C47.8807 47.4167 47.275 47.4291 46.8963 47.0654L43.0518 43.3876C42.4939 42.849 41.6176 43.5859 41.3236 44.0931C41.176 44.3488 41.1063 44.6126 41.1691 44.83L45.1654 48.7593C45.5414 49.1312 45.5455 49.7355 45.1777 50.1115C44.81 50.4833 44.2057 50.4916 43.8297 50.1197L39.7527 46.1124C39.7336 46.0974 39.7145 46.0769 39.6939 46.0578L35.4584 41.8263C34.7379 41.1017 33.4582 41.5939 33.4582 42.6562C33.4582 42.9583 33.5703 43.2605 33.7986 43.4861C35.1084 44.7999 35.7441 45.4124 36.2445 45.9005C37.2522 46.8726 37.7758 47.3812 39.8293 49.5865L44.1742 53.9314C44.5502 54.3074 44.5502 54.9117 44.1742 55.2876C43.8023 55.6595 43.194 55.6595 42.8221 55.2876L39.8033 52.2689C39.8854 56.8066 47.2682 58.4267 50.8133 59.2292C51.49 59.3783 52.067 59.5095 52.5127 59.6421ZM42.3477 41.2945C42.5063 40.399 43.1147 39.6005 43.8666 39.081V9.89155C43.8666 7.25972 41.727 5.11733 39.0377 5.11733V6.40386C39.0377 7.59741 38.3746 8.65972 37.3096 9.40347C36.3402 10.0816 35.0236 10.5041 33.5895 10.5041H16.0088C14.5787 10.5041 13.2607 10.0816 12.2928 9.40347C11.2236 8.65972 10.5605 7.59741 10.5605 6.40386V5.11733C7.87129 5.11733 5.73574 7.26108 5.73574 9.89155V58.238H41.9211C39.0992 56.633 37.1195 54.239 38.0957 50.5298C35.2314 47.4687 35.1303 47.5302 32.4369 44.841C30.5105 42.9105 31.8627 39.5705 34.623 39.5705C35.4133 39.5705 36.2049 39.8685 36.8051 40.4701L39.6037 43.2687C40.1424 42.2447 41.1924 41.4189 42.3477 41.2945ZM21.5514 50.6857C21.0236 50.6857 20.5984 50.255 20.5984 49.7287C20.5984 49.1982 21.025 48.7716 21.5514 48.7716H30.1469C30.6746 48.7716 31.1039 49.1982 31.1039 49.7287C31.1039 50.2564 30.6732 50.6857 30.1469 50.6857H21.5514ZM21.5514 54.5138C21.0236 54.5138 20.5984 54.0832 20.5984 53.5568C20.5984 53.0263 21.025 52.5998 21.5514 52.5998H30.1469C30.6746 52.5998 31.1039 53.0263 31.1039 53.5568C31.1039 54.0845 30.6732 54.5138 30.1469 54.5138H21.5514ZM21.5514 40.5863C21.0236 40.5863 20.5984 40.1556 20.5984 39.6292C20.5984 39.0988 21.025 38.6722 21.5514 38.6722H30.1469C30.6746 38.6722 31.1039 39.0988 31.1039 39.6292C31.1039 40.1556 30.6732 40.5863 30.1469 40.5863H21.5514ZM21.5514 44.4144C21.0236 44.4144 20.5984 43.9837 20.5984 43.4574C20.5984 42.9269 21.025 42.5003 21.5514 42.5003H30.1469C30.6746 42.5003 31.1039 42.9269 31.1039 43.4574C31.1039 43.9837 30.6732 44.4144 30.1469 44.4144H21.5514ZM42.4598 63.3199C43.2814 62.4982 43.8078 61.3867 43.8584 60.1535H5.73984C5.84785 62.6882 7.96016 64.7267 10.5141 64.7267H39.0883C40.398 64.7267 41.5957 64.188 42.4598 63.3199ZM12.4746 5.11733V6.40386C12.4746 6.93843 12.8232 7.44976 13.3811 7.84214C14.04 8.30288 14.9697 8.58999 16.0088 8.58999H33.5881C34.6271 8.58999 35.5568 8.30288 36.2158 7.84214C36.7777 7.45112 37.1264 6.9398 37.1264 6.40386V5.11733H12.4746Z" fill="black"/>
<path d="M13.9541 26.8898H14.1291C14.6322 22.4957 17.7918 18.8836 22.0041 17.7475C21.7361 16.0508 23.0664 14.4922 24.8014 14.4922C26.5377 14.4922 27.8666 16.0508 27.6027 17.7475C31.8109 18.8836 34.9705 22.4943 35.4736 26.8898C36.4307 26.8898 37.1826 27.1373 37.8416 27.7963C39.8021 29.7568 38.3844 33.09 35.6514 33.09H13.9541C11.2184 33.09 9.80332 29.7568 11.7611 27.7963C12.323 27.2385 13.0982 26.8898 13.9541 26.8898ZM35.6527 28.8039H13.9541C12.915 28.8039 12.3572 30.0713 13.1174 30.8273C13.3307 31.0406 13.6287 31.176 13.9541 31.176H35.6527C36.6877 31.176 37.2455 29.9086 36.4895 29.1525C36.2734 28.9365 35.9795 28.8039 35.6527 28.8039ZM25.4535 16.6783C24.8602 16.085 23.8184 16.5307 23.8881 17.4152C24.4965 17.3646 25.109 17.3646 25.7174 17.4152C25.7393 17.1309 25.6463 16.8725 25.4535 16.6783ZM30.9605 21.7861C27.5344 18.457 22.0697 18.457 18.6436 21.7861C17.2723 23.1232 16.3303 24.8979 16.0514 26.8898H33.5527C33.2738 24.8979 32.3318 23.1232 30.9605 21.7861ZM11.8227 37.1984H16.2988C17.8027 37.1984 19.0277 38.4234 19.0277 39.9273V43.1553C19.0277 44.6592 17.8027 45.8842 16.2988 45.8842H11.8227C10.3187 45.8842 9.09375 44.6592 9.09375 43.1553V39.9273C9.09512 38.4234 10.3187 37.1984 11.8227 37.1984ZM16.2988 39.1139H11.8227C11.377 39.1139 11.0092 39.4816 11.0092 39.9273V43.1553C11.0092 43.601 11.377 43.9729 11.8227 43.9729H16.2988C16.7445 43.9729 17.1123 43.601 17.1123 43.1553V39.9273C17.1137 39.4816 16.7445 39.1139 16.2988 39.1139ZM11.8227 47.2979H16.2988C17.8027 47.2979 19.0277 48.5229 19.0277 50.0268V53.2547C19.0277 54.7586 17.8027 55.9836 16.2988 55.9836H11.8227C10.3187 55.9836 9.09375 54.7586 9.09375 53.2547V50.0268C9.09512 48.5229 10.3187 47.2979 11.8227 47.2979ZM16.2988 49.2133H11.8227C11.377 49.2133 11.0092 49.5811 11.0092 50.0268V53.2547C11.0092 53.7004 11.377 54.0682 11.8227 54.0682H16.2988C16.7445 54.0682 17.1123 53.7004 17.1123 53.2547V50.0268C17.1137 49.5811 16.7445 49.2133 16.2988 49.2133Z" fill="#79C500"/>
</svg>
