<svg width="70" height="70" viewBox="0 0 70 70" fill="none" xmlns="http://www.w3.org/2000/svg">
<path d="M34.6382 3.49753C33.2395 4.41239 32.4951 6.10008 32.022 8.08481C31.9518 8.37917 31.8916 8.68244 31.8367 8.9911C30.9379 9.24295 30.1298 9.80764 29.5754 10.6139L20.892 23.244C19.9044 24.6805 19.6993 26.5377 20.2826 28.2264L32.6135 63.9245C33.3946 66.1859 35.7793 67.5515 37.9933 66.7863L62.1886 58.4243C64.4025 57.659 65.4363 55.1117 64.6552 52.8503L52.3243 17.1522C51.741 15.4635 50.4342 14.1277 48.7706 13.6074L37.308 10.0246C36.7064 9.83678 36.0663 10.1713 35.8771 10.7724C35.6878 11.3747 36.0226 12.0163 36.6249 12.2055L48.0875 15.7905C49.0006 16.0761 49.8052 16.8604 50.1635 17.8978L62.4944 53.5981C62.91 54.8013 62.3685 55.9436 61.443 56.2634L37.2455 64.6255C36.32 64.9453 35.1899 64.3822 34.7744 63.179L22.4434 27.4786C22.0851 26.4412 22.2337 25.3275 22.776 24.5387C25.7169 20.2962 28.598 16.0065 31.5666 11.7859C31.5452 12.75 31.5905 13.7381 31.7184 14.7235C31.7951 15.314 31.898 15.8737 32.022 16.4044C30.2172 17.8513 29.4136 20.3371 30.2094 22.6413C31.2199 25.5671 34.4402 27.1386 37.3638 26.1281C40.2873 25.1176 41.8521 21.8928 40.8416 18.967C40.409 17.7144 39.5695 16.7036 38.5268 16.045C37.2572 15.2432 35.6708 14.9576 34.1337 15.3508C34.0764 15.0553 34.0257 14.7493 33.9841 14.4289C33.7203 12.3971 33.8453 10.292 34.2453 8.61385C34.6453 6.9357 35.39 5.73648 35.8882 5.41057C36.33 5.11157 36.5632 5.34026 36.8347 5.59362C37.3087 6.03585 37.8951 7.08115 38.2678 8.54242C38.4244 9.15391 39.047 9.52269 39.6585 9.36612C40.2698 9.21052 40.6395 8.5891 40.4844 7.97766C40.0421 6.24309 39.3817 4.85523 38.404 3.93282C37.0958 2.69867 35.649 2.83637 34.6382 3.49753ZM35.5646 17.458C36.1868 17.4656 36.7873 17.6507 37.3057 17.9781C37.9267 18.3703 38.4205 18.9613 38.6808 19.7148C39.2887 21.4749 38.3722 23.361 36.6182 23.9673C34.8641 24.5736 32.9781 23.6558 32.3702 21.8957C31.9926 20.8023 32.2041 19.6597 32.839 18.8063C33.8136 20.8553 34.8942 21.3202 35.3838 21.4962C35.978 21.7096 36.6327 21.4007 36.8459 20.8064C37.0593 20.2122 36.7504 19.5574 36.1561 19.3443C35.4435 19.0882 34.8213 17.6454 34.7788 17.5451C35.2958 17.4253 35.5646 17.4712 35.5646 17.458Z" fill="black" stroke="white" stroke-width="0.2"/>
<path d="M38.604 34.8807C36.5912 33.7251 34.2139 34.6843 33.2725 36.8491C32.3311 39.0138 33.0919 41.7722 35.1046 42.9278C37.1174 44.0834 39.4938 43.1263 40.4352 40.9615C41.3766 38.7967 40.6167 36.0363 38.604 34.8807ZM37.6897 36.9831C38.5346 37.4681 38.9338 38.7008 38.4471 39.82C37.9604 40.9392 36.8637 41.3105 36.0189 40.8254C35.174 40.3404 34.774 39.1097 35.2606 37.9905C35.7473 36.8714 36.8449 36.498 37.6897 36.9831Z" fill="#79C500" stroke="white" stroke-width="0.2"/>
<path d="M51.5406 42.3267C49.5347 41.175 47.167 42.1315 46.229 44.2885C45.291 46.4455 46.0469 49.1954 48.0529 50.3472C50.0589 51.4989 52.4285 50.5435 53.3665 48.3865C54.3045 46.2295 53.5466 43.4785 51.5406 42.3267ZM50.6264 44.4291C51.4645 44.9102 51.8617 46.1336 51.3784 47.245C50.8951 48.3564 49.8052 48.726 48.9671 48.2448C48.129 47.7636 47.7338 46.5414 48.2171 45.43C48.7004 44.3186 49.7883 43.9479 50.6264 44.4291Z" fill="#79C500" stroke="white" stroke-width="0.2"/>
<path d="M47.5947 32.8627C48.1732 33.1148 48.4379 33.7882 48.1859 34.3668L40.5992 51.8102C40.3479 52.3892 39.6748 52.6548 39.0958 52.4035C38.5158 52.1517 38.2505 51.4767 38.5039 50.8973L46.0905 33.4539C46.3418 32.8759 47.0169 32.6105 47.5947 32.8627Z" fill="#79C500" stroke="white" stroke-width="0.2"/>
<path d="M24.0866 11.8572C24.2251 11.7989 24.3737 11.7684 24.524 11.7676C24.6743 11.7668 24.8232 11.7956 24.9624 11.8524C25.1015 11.9092 25.228 11.9929 25.3348 12.0987C25.4415 12.2045 25.5264 12.3302 25.5844 12.4689C25.7016 12.7483 25.7029 13.0628 25.5882 13.3433C25.4735 13.6237 25.2522 13.8472 24.9728 13.9645L18.2269 16.7972C17.3445 17.1679 16.6176 18.0277 16.3585 19.0942L7.44294 55.7946C7.14249 57.0316 7.79052 58.1174 8.74211 58.3483L28.7899 63.2124C28.936 63.2477 29.0736 63.3115 29.195 63.4001C29.3164 63.4887 29.4191 63.6004 29.4973 63.7287C29.5754 63.8571 29.6275 63.9995 29.6506 64.148C29.6736 64.2965 29.6671 64.4481 29.6315 64.5941C29.5959 64.74 29.5319 64.8774 29.4432 64.9985C29.3545 65.1196 29.2428 65.2221 29.1145 65.3C28.9862 65.378 28.8438 65.4299 28.6954 65.4528C28.547 65.4757 28.3956 65.4691 28.2497 65.4334L8.2019 60.5694C5.92553 60.017 4.65719 57.5815 5.22185 55.2566L14.1375 18.554C14.5591 16.8178 15.7335 15.3651 17.3407 14.6899L24.0866 11.8572Z" fill="black" stroke="white" stroke-width="0.2"/>
<path d="M19.6291 33.7179C19.8793 34.2973 19.6125 34.9699 19.0331 35.2202C18.4476 35.4734 17.9889 35.9781 17.8232 36.66L14.3677 50.8816C14.0874 52.0357 14.7676 53.1015 15.9615 53.4398L26.9732 56.5605C27.5803 56.7326 27.933 57.3641 27.7612 57.9712C27.5891 58.5783 26.9576 58.931 26.3504 58.7592L15.3387 55.6385C13.066 54.9946 11.5765 52.6909 12.1466 50.3437L15.6021 36.122C15.9388 34.736 16.9062 33.6499 18.1268 33.1218C18.7047 32.8727 19.3792 33.14 19.6291 33.7179Z" fill="#79C500" stroke="white" stroke-width="0.2"/>
</svg>
