<svg width="70" height="70" viewBox="0 0 70 70" fill="none" xmlns="http://www.w3.org/2000/svg">
<path d="M32.086 47.95V36C32.086 35.7348 31.9806 35.4804 31.7931 35.2929C31.6056 35.1054 31.3512 35 31.086 35C24.9785 35 24.1222 45.4791 24.0887 45.925C24.0739 46.1229 24.1183 46.3207 24.2162 46.4933C24.3141 46.6659 24.4612 46.8055 24.6387 46.8942L26.086 47.618V47.9505L25.311 55.7015C25.2693 56.1185 25.3154 56.5397 25.4465 56.9378C25.5775 57.336 25.7905 57.7022 26.0717 58.013C26.3529 58.3237 26.6962 58.5721 27.0793 58.7421C27.4624 58.9121 27.8769 59 28.296 59H29.876C30.2951 59 30.7096 58.9121 31.0927 58.7421C31.4758 58.5721 31.819 58.3237 32.1003 58.013C32.3815 57.7022 32.5945 57.336 32.7255 56.9378C32.8565 56.5397 32.9027 56.1185 32.861 55.7015L32.086 47.95ZM26.1546 45.4162C26.3279 44.014 26.6362 42.6318 27.0752 41.2889C27.8437 39.0275 28.8535 37.6514 30.086 37.1823V47H28.086C28.086 46.8143 28.0343 46.6323 27.9366 46.4743C27.839 46.3163 27.6993 46.1887 27.5332 46.1056L26.1546 45.4162ZM30.6171 56.671C30.5239 56.7751 30.4096 56.8583 30.2818 56.915C30.1541 56.9717 30.0158 57.0007 29.876 57H28.296C28.1562 57 28.018 56.9707 27.8903 56.9141C27.7625 56.8574 27.648 56.7745 27.5543 56.6709C27.4605 56.5672 27.3895 56.4451 27.3459 56.3123C27.3022 56.1795 27.2869 56.0391 27.3009 55.9L27.991 49H30.181L30.8711 55.9C30.8858 56.0391 30.8708 56.1798 30.8271 56.3127C30.7834 56.4456 30.7119 56.5678 30.6175 56.671H30.6171Z" fill="#79C500"/>
<path d="M65.1352 3H56.8457C56.5709 3 56.3073 3.10876 56.113 3.30234C55.9187 3.49593 55.8095 3.75849 55.8095 4.03226V5.06452H34.1767C33.24 5.06517 32.3183 5.29929 31.4956 5.74555L21.3509 11.2581H9.18095C7.43782 11.2581 6.07238 13.0717 6.07238 15.3871C6.07238 17.5481 7.26206 19.271 8.83784 19.4917L4.16618 35.2466C4.16203 35.2606 4.15815 35.2748 4.15452 35.2889C4.05195 35.6983 4.00005 36.1186 4 36.5405V65.9677C4 66.2415 4.10917 66.5041 4.30349 66.6977C4.49782 66.8912 4.76138 67 5.03619 67H51.6648C51.9396 67 52.2031 66.8912 52.3975 66.6977C52.5918 66.5041 52.701 66.2415 52.701 65.9677V36.6268C52.7011 36.1338 52.6301 35.6434 52.4903 35.1705L48.1731 20.5475C49.579 20.5372 50.9298 20.001 51.9575 19.0452C52.9853 18.0894 53.615 16.7837 53.7217 15.3871H55.8095V17.4516C55.8095 17.7254 55.9187 17.9879 56.113 18.1815C56.3073 18.3751 56.5709 18.4839 56.8457 18.4839H65.1352C65.4101 18.4839 65.6736 18.3751 65.8679 18.1815C66.0623 17.9879 66.1714 17.7254 66.1714 17.4516V4.03226C66.1714 3.75849 66.0623 3.49593 65.8679 3.30234C65.6736 3.10876 65.4101 3 65.1352 3ZM8.14476 15.3871C8.14476 14.1268 8.75845 13.3226 9.18095 13.3226H38.8014L34.6566 17.4516H9.18095C8.75845 17.4516 8.14476 16.6474 8.14476 15.3871ZM40.4212 35.289C40.3186 35.6984 40.2667 36.1187 40.2667 36.5406V64.9355H6.07238V36.5405C6.07248 36.2941 6.102 36.0486 6.16033 35.8092L10.9914 19.5161H32.7819C32.241 20.4266 32.0356 21.4964 32.2011 22.5414C32.3667 23.5865 32.8928 24.5413 33.6889 25.2415C34.4849 25.9418 35.5012 26.3436 36.5626 26.3779C37.6241 26.4121 38.6643 26.0766 39.5042 25.4292L44.4891 21.5663L40.4328 35.2467C40.4287 35.2608 40.4248 35.275 40.4212 35.289ZM46.4838 62.2663L49.1631 64.9355H43.8045L46.4838 62.2663ZM50.5023 35.7534C50.5861 36.037 50.6286 36.3312 50.6286 36.6268V63.4756L47.52 60.3788V38.0968C47.52 37.823 47.4108 37.5604 47.2165 37.3669C47.0222 37.1733 46.7586 37.0645 46.4838 37.0645C46.209 37.0645 45.9454 37.1733 45.7511 37.3669C45.5568 37.5604 45.4476 37.823 45.4476 38.0968V60.379L42.3391 63.4757V36.5405C42.3391 36.2941 42.3687 36.0486 42.427 35.8092L46.4811 22.1348L50.5023 35.7534ZM55.8095 13.3226H53.3192C52.8806 13.3231 52.46 13.4969 52.1499 13.8059C51.8397 14.1148 51.6653 14.5338 51.6648 14.9707C51.6637 15.9021 51.2918 16.7951 50.6307 17.4537C49.9696 18.1123 49.0732 18.4828 48.1382 18.4839H45.591C45.2678 18.4844 44.9538 18.5918 44.6983 18.789L38.2316 23.8C37.7314 24.1879 37.1016 24.3712 36.4705 24.3126C35.8394 24.2539 35.2545 23.9577 34.835 23.4844C34.4155 23.011 34.193 22.3961 34.2128 21.7649C34.2326 21.1338 34.4933 20.5339 34.9417 20.0876L42.0354 13.0206C42.1805 12.8763 42.2793 12.6924 42.3194 12.4921C42.3594 12.2918 42.339 12.0841 42.2605 11.8954C42.1821 11.7067 42.0492 11.5454 41.8788 11.432C41.7083 11.3185 41.5079 11.258 41.3029 11.2581H25.6789L32.4881 7.55794C33.0063 7.27687 33.5867 7.12943 34.1767 7.12903H55.8095V13.3226ZM64.099 16.4194H57.8819V5.06452H64.099V16.4194Z" fill="#151716"/>
<path d="M23.0859 36C23.0859 35.7348 22.9806 35.4804 22.793 35.2929C22.6055 35.1054 22.3512 35 22.0859 35C21.8207 35 21.5664 35.1054 21.3788 35.2929C21.1913 35.4804 21.0859 35.7348 21.0859 36V39H19.0859V36C19.0859 35.7348 18.9806 35.4804 18.793 35.2929C18.6055 35.1054 18.3512 35 18.0859 35C17.8207 35 17.5664 35.1054 17.3788 35.2929C17.1913 35.4804 17.0859 35.7348 17.0859 36V39H15.0859V36C15.0859 35.7348 14.9806 35.4804 14.793 35.2929C14.6055 35.1054 14.3512 35 14.0859 35C13.8207 35 13.5664 35.1054 13.3788 35.2929C13.1913 35.4804 13.0859 35.7348 13.0859 36V40H13.0878C13.0871 40.1551 13.1226 40.3083 13.1916 40.4473L15.0689 44.2021L14.2416 55.7863C14.2122 56.1972 14.2678 56.6097 14.4049 56.9982C14.542 57.3867 14.7576 57.7428 15.0383 58.0444C15.3191 58.3459 15.6589 58.5863 16.0367 58.7507C16.4144 58.9151 16.822 59 17.2339 59H18.9379C19.3499 59 19.7575 58.9151 20.1352 58.7507C20.513 58.5863 20.8528 58.3459 21.1335 58.0444C21.4143 57.7428 21.6299 57.3867 21.767 56.9982C21.9041 56.6097 21.9597 56.1972 21.9303 55.7863L21.1029 44.2021L22.9803 40.4473C23.0492 40.3083 23.0848 40.1551 23.0841 40H23.0859V36ZM20.4679 41L19.4679 43H16.7039L15.7039 41H20.4679ZM19.6699 56.6814C19.5767 56.7824 19.4635 56.8629 19.3375 56.9178C19.2115 56.9726 19.0754 57.0006 18.9379 57H17.2339C17.0966 57 16.9608 56.9717 16.8349 56.9169C16.709 56.8621 16.5957 56.782 16.5021 56.6815C16.4085 56.581 16.3366 56.4623 16.2909 56.3328C16.2452 56.2034 16.2267 56.0658 16.2364 55.9289L17.0171 45H19.1546L19.9352 55.9289C19.9456 56.0658 19.9274 56.2035 19.8817 56.333C19.8361 56.4626 19.7639 56.5812 19.6699 56.6814Z" fill="#79C500"/>
</svg>
