<svg width="70" height="70" viewBox="0 0 70 70" fill="none" xmlns="http://www.w3.org/2000/svg">
<mask id="mask0_4104_7575" style="mask-type:luminance" maskUnits="userSpaceOnUse" x="3" y="3" width="64" height="64">
<path d="M3 2.99999H67V67H3V2.99999Z" fill="white"/>
</mask>
<g mask="url(#mask0_4104_7575)">
<path d="M59.1258 47.5969C59.1178 50.7501 59.2428 53.8751 59.1178 57.0001C58.8678 60.1251 56.4928 62.7501 53.3678 63.2501C52.1178 63.3751 50.7428 63.3751 49.4688 63.3374" stroke="black" stroke-width="2" stroke-miterlimit="10" stroke-linecap="round" stroke-linejoin="round"/>
<path d="M41.8011 66.0625H46.779C48.2656 66.0625 49.4708 64.8574 49.4708 63.3707C49.4708 61.8842 48.2656 60.6791 46.779 60.6791H41.8011C40.3145 60.6791 39.1094 61.8842 39.1094 63.3707C39.1094 64.8574 40.3145 66.0625 41.8011 66.0625Z" stroke="black" stroke-width="2" stroke-miterlimit="10" stroke-linecap="round" stroke-linejoin="round"/>
<path d="M17.7812 9.7821C20.2124 7.9181 22.9433 6.44935 25.8419 5.45685C28.866 4.42135 32.0619 3.9106 35.2578 3.93848C37.6855 3.95973 40.1094 4.2911 42.4521 4.92935" stroke="black" stroke-width="2" stroke-miterlimit="10" stroke-linecap="round" stroke-linejoin="round"/>
<path d="M6.64066 32.3306C6.62954 25.6249 9.00454 18.8749 13.4958 13.8433" stroke="black" stroke-width="2" stroke-miterlimit="10" stroke-linecap="round" stroke-linejoin="round"/>
<path d="M39.1109 8.45368C37.7761 8.22456 36.4044 8.10518 35.0054 8.10518C21.6568 8.10518 10.7969 18.9727 10.7969 32.3307V49.8672" stroke="black" stroke-width="2" stroke-miterlimit="10" stroke-linecap="round" stroke-linejoin="round"/>
<path d="M59.2024 31.5417C59.1 28.354 58.3791 25.3199 57.1562 22.5557" stroke="black" stroke-width="2" stroke-miterlimit="10" stroke-linecap="round" stroke-linejoin="round"/>
<path d="M59.3203 17.7047C61.8229 21.8551 63.2948 26.6947 63.3782 31.8661" stroke="black" stroke-width="2" stroke-miterlimit="10" stroke-linecap="round" stroke-linejoin="round"/>
<path d="M10.8009 31.866H9.238C6.31063 31.866 3.9375 34.239 3.9375 37.1664V46.2255C3.9375 49.1529 6.31063 51.5259 9.238 51.5259H10.867" stroke="black" stroke-width="2" stroke-miterlimit="10" stroke-linecap="round" stroke-linejoin="round"/>
<path d="M13.4639 29.0982C14.9023 29.0982 16.0684 30.2643 16.0684 31.7027V51.3672C16.0684 52.8057 14.9023 53.9717 13.4639 53.9717C12.0254 53.9717 10.8594 52.8057 10.8594 51.3672V31.7027C10.8594 30.2643 12.0254 29.0982 13.4639 29.0982Z" stroke="black" stroke-width="2" stroke-miterlimit="10" stroke-linecap="round" stroke-linejoin="round"/>
<path d="M59.1328 51.204H60.7618C63.6892 51.204 66.0623 48.8309 66.0623 45.9036V36.8445C66.0623 33.9171 63.6892 31.544 60.7618 31.544H59.1328" stroke="black" stroke-width="2" stroke-miterlimit="10" stroke-linecap="round" stroke-linejoin="round"/>
<path d="M59.1309 42.2532V31.7027C59.1309 30.2642 57.9648 29.0982 56.5264 29.0982C55.0879 29.0982 53.9219 30.2642 53.9219 31.7027V51.3672C53.9219 52.8056 55.0879 53.9717 56.5264 53.9717C57.9648 53.9717 59.1309 52.8056 59.1309 51.3672V47.2441" stroke="black" stroke-width="2" stroke-miterlimit="10" stroke-linecap="round" stroke-linejoin="round"/>
<path d="M34.9917 28.6555C42.2488 28.6555 48.1318 34.5375 48.1318 41.7933C48.1318 45.619 46.4957 49.0624 43.8854 51.4634V54.9274L40.7522 53.6038C39.0127 54.4535 37.0581 54.931 34.9917 54.931C27.7346 54.931 21.8516 49.049 21.8516 41.7933C21.8516 34.5375 27.7346 28.6555 34.9917 28.6555Z" stroke="#79C500" stroke-width="2" stroke-miterlimit="10" stroke-linecap="round" stroke-linejoin="round"/>
<path d="M32.4922 36.5349H37.5073" stroke="#79C500" stroke-width="2" stroke-miterlimit="10" stroke-linecap="round" stroke-linejoin="round"/>
<path d="M32.4922 47.0516H37.5073" stroke="#79C500" stroke-width="2" stroke-miterlimit="10" stroke-linecap="round" stroke-linejoin="round"/>
<path d="M29.8047 41.7933H40.1859" stroke="#79C500" stroke-width="2" stroke-miterlimit="10" stroke-linecap="round" stroke-linejoin="round"/>
<path d="M48.4453 3.93747C42.2709 3.93747 37.2656 8.94185 37.2656 15.1151C37.2656 18.3701 38.6576 21.2997 40.8784 23.3425V26.2897L43.5441 25.1635C45.0241 25.8865 46.6871 26.2927 48.4453 26.2927C54.6196 26.2927 59.6249 21.2883 59.6249 15.1151C59.6249 8.94185 54.6196 3.93747 48.4453 3.93747Z" stroke="#79C500" stroke-width="2" stroke-miterlimit="10" stroke-linecap="round" stroke-linejoin="round"/>
<path d="M45.3672 11.9643C45.3672 11.819 45.3773 11.6763 45.3968 11.5365C45.6077 10.0249 46.9204 8.86616 48.4974 8.89791C50.0927 8.93016 51.4141 10.2077 51.4968 11.8012C51.5886 13.5669 50.1821 15.0313 48.4342 15.0313V18.2383" stroke="#79C500" stroke-width="2" stroke-miterlimit="10" stroke-linecap="round" stroke-linejoin="round"/>
<path d="M48.4531 21.5105C48.4786 21.499 48.5013 21.4814 48.5166 21.4636C48.5182 21.4617 48.5192 21.4595 48.5205 21.4578C48.5189 21.4557 48.5186 21.4523 48.5166 21.45C48.5012 21.432 48.4785 21.4146 48.4531 21.4031C48.4445 21.3992 48.4371 21.3975 48.4326 21.3962C48.4289 21.3975 48.4249 21.4008 48.4199 21.4031C48.3946 21.4146 48.3727 21.4322 48.3574 21.45C48.3555 21.4522 48.3541 21.4547 48.3525 21.4568C48.3541 21.4588 48.3555 21.4613 48.3574 21.4636C48.3729 21.4816 48.3954 21.499 48.4209 21.5105C48.4288 21.5141 48.435 21.517 48.4395 21.5183C48.4434 21.517 48.4475 21.513 48.4531 21.5105Z" fill="#79C500" stroke="#79C500" stroke-width="2"/>
</g>
</svg>
