<svg width="70" height="70" viewBox="0 0 70 70" fill="none" xmlns="http://www.w3.org/2000/svg">
<path d="M63.7991 16.8674H61.6658V15.8008H62.7324C63.5811 15.8008 64.395 15.4636 64.9951 14.8635C65.5952 14.2634 65.9324 13.4495 65.9324 12.6008C65.9324 11.7521 65.5952 10.9382 64.9951 10.3381C64.395 9.73801 63.5811 9.40088 62.7324 9.40088H61.6658V4.06762C61.6673 3.90062 61.6283 3.73574 61.5522 3.58712C61.476 3.43849 61.3649 3.31056 61.2284 3.2143C61.0963 3.11427 60.9425 3.0467 60.7795 3.01705C60.6164 2.9874 60.4487 2.99651 60.2898 3.04364L46.5727 7.26757H39.2661C38.9832 7.26757 38.7119 7.37995 38.5119 7.57999C38.3118 7.78002 38.1995 8.05133 38.1995 8.33422V9.40088H36.0662C35.7833 9.40088 35.512 9.51325 35.3119 9.71329C35.1119 9.91333 34.9995 10.1846 34.9995 10.4675V14.7341C34.9995 15.017 35.1119 15.2883 35.3119 15.4884C35.512 15.6884 35.7833 15.8008 36.0662 15.8008H38.1995V16.8674H31.7996V7.26757C31.7996 6.98468 31.6872 6.71337 31.4871 6.51334C31.2871 6.3133 31.0158 6.20092 30.7329 6.20092H9.3999C9.11701 6.20092 8.8457 6.3133 8.64567 6.51334C8.44563 6.71337 8.33325 6.98468 8.33325 7.26757V16.8674H6.19995C5.35205 16.87 4.5396 17.2079 3.94004 17.8075C3.34048 18.407 3.00253 19.2195 3 20.0674V54.2002C3.00253 55.0481 3.34048 55.8605 3.94004 56.4601C4.5396 57.0597 5.35205 57.3976 6.19995 57.4002H30.7329V60.6001H24.333C24.0501 60.6001 23.7788 60.7125 23.5788 60.9125C23.3787 61.1125 23.2664 61.3839 23.2664 61.6668V65.9334C23.2664 66.2162 23.3787 66.4876 23.5788 66.6876C23.7788 66.8876 24.0501 67 24.333 67H45.666C45.9489 67 46.2202 66.8876 46.4203 66.6876C46.6203 66.4876 46.7327 66.2162 46.7327 65.9334V61.6668C46.7327 61.3839 46.6203 61.1125 46.4203 60.9125C46.2202 60.7125 45.9489 60.6001 45.666 60.6001H39.2661V57.4002H63.7991C64.647 57.3976 65.4594 57.0597 66.059 56.4601C66.6585 55.8605 66.9965 55.0481 66.999 54.2002V20.0674C66.9965 19.2195 66.6585 18.407 66.059 17.8075C65.4594 17.2079 64.647 16.87 63.7991 16.8674ZM61.6658 11.5342H62.7324C63.0153 11.5342 63.2866 11.6466 63.4867 11.8466C63.6867 12.0466 63.7991 12.3179 63.7991 12.6008C63.7991 12.8837 63.6867 13.155 63.4867 13.3551C63.2866 13.5551 63.0153 13.6675 62.7324 13.6675H61.6658V11.5342ZM47.7993 9.12355L59.5325 5.5076V19.6941L47.7993 16.0781V9.12355ZM40.3328 9.40088H45.666V15.8008H40.3328V9.40088ZM43.3727 17.9341L42.6047 23.2673H41.3994V17.9341H43.3727ZM37.1328 13.6675V11.5342H38.1995V13.6675H37.1328ZM10.4666 8.33422H29.6663V23.2673H10.4666V8.33422ZM44.5994 62.7334V64.8667H25.3997V62.7334H44.5994ZM32.8662 60.6001V57.4002H37.1328V60.6001H32.8662ZM64.8657 54.2002C64.8657 54.4831 64.7533 54.7544 64.5533 54.9544C64.3533 55.1545 64.082 55.2668 63.7991 55.2668H6.19995C5.91706 55.2668 5.64575 55.1545 5.44572 54.9544C5.24568 54.7544 5.1333 54.4831 5.1333 54.2002V53.1335H64.8657V54.2002ZM64.8657 51.0002H5.1333V20.0674C5.1333 19.7845 5.24568 19.5132 5.44572 19.3131C5.64575 19.1131 5.91706 19.0007 6.19995 19.0007H8.33325V24.334C8.33325 24.6169 8.44563 24.8882 8.64567 25.0882C8.8457 25.2883 9.11701 25.4006 9.3999 25.4006H30.7329C31.0158 25.4006 31.2871 25.2883 31.4871 25.0882C31.6872 24.8882 31.7996 24.6169 31.7996 24.334V19.0007H39.2661V24.334C39.2661 24.6169 39.3785 24.8882 39.5785 25.0882C39.7786 25.2883 40.0499 25.4006 40.3328 25.4006H43.5327C43.7897 25.4006 44.0381 25.3078 44.2321 25.1392C44.4261 24.9707 44.5527 24.7378 44.5887 24.4833L45.5274 17.9341H46.5727L60.2898 22.158C60.39 22.1886 60.4944 22.203 60.5991 22.2007C60.8807 22.1966 61.1496 22.0828 61.3488 21.8837C61.5479 21.6845 61.6616 21.4156 61.6658 21.134V19.0007H63.7991C64.082 19.0007 64.3533 19.1131 64.5533 19.3131C64.7533 19.5132 64.8657 19.7845 64.8657 20.0674V51.0002Z" fill="black"/>
<path d="M8.33224 48.8664H36.0643C36.3472 48.8664 36.6185 48.754 36.8186 48.554C37.0186 48.3539 37.131 48.0826 37.131 47.7998V30.7339C37.131 30.451 37.0186 30.1797 36.8186 29.9796C36.6185 29.7796 36.3472 29.6672 36.0643 29.6672H8.33224C8.04936 29.6672 7.77806 29.7796 7.57803 29.9796C7.378 30.1797 7.26562 30.451 7.26562 30.7339V47.7998C7.26562 48.0826 7.378 48.3539 7.57803 48.554C7.77806 48.754 8.04936 48.8664 8.33224 48.8664ZM9.39886 46.7331V32.642L21.6394 40.1756C21.8075 40.279 22.0009 40.3337 22.1983 40.3337C22.3956 40.3337 22.5891 40.279 22.7572 40.1756L34.9977 32.642V46.7331H9.39886ZM12.1006 31.8005H32.296L22.1983 38.0146L12.1006 31.8005Z" fill="#79C500"/>
<path d="M40.3322 42.4666H42.4655V45.6665C42.4655 45.9493 42.5779 46.2206 42.7779 46.4207C42.9779 46.6207 43.2492 46.7331 43.5321 46.7331H61.6646C61.9475 46.7331 62.2188 46.6207 62.4188 46.4207C62.6189 46.2206 62.7312 45.9493 62.7312 45.6665V32.867C62.7312 32.5841 62.6189 32.3128 62.4188 32.1128C62.2188 31.9128 61.9475 31.8004 61.6646 31.8004H60.598V28.6006C60.598 28.3177 60.4856 28.0464 60.2856 27.8463C60.0856 27.6463 59.8143 27.5339 59.5314 27.5339H40.3322C40.0494 27.5339 39.7781 27.6463 39.578 27.8463C39.378 28.0464 39.2656 28.3177 39.2656 28.6006V41.4C39.2656 41.6829 39.378 41.9542 39.578 42.1542C39.7781 42.3542 40.0494 42.4666 40.3322 42.4666ZM60.598 44.5998H44.5987V33.9336H60.598V44.5998ZM41.3989 29.6672H58.4648V31.8004H43.5321C43.2492 31.8004 42.9779 31.9128 42.7779 32.1128C42.5779 32.3128 42.4655 32.5841 42.4655 32.867V40.3334H41.3989V29.6672Z" fill="black"/>
<path d="M46.7344 36.0671H48.8676V38.2004H46.7344V36.0671Z" fill="#79C500"/>
<path d="M51 36.0671H58.4663V38.2004H51V36.0671Z" fill="#79C500"/>
<path d="M46.7344 40.3337H51.0009V42.467H46.7344V40.3337Z" fill="#79C500"/>
<path d="M53.1328 40.3337H58.4659V42.467H53.1328V40.3337Z" fill="#79C500"/>
<path d="M17.3728 19.9082C17.5274 20.0038 17.7039 20.0583 17.8856 20.0666C18.0672 20.0748 18.2479 20.0364 18.4106 19.9551L24.8103 16.7553C24.9878 16.6668 25.1371 16.5306 25.2415 16.362C25.3458 16.1934 25.4011 15.999 25.4011 15.8006C25.4011 15.6023 25.3458 15.4079 25.2415 15.2393C25.1371 15.0707 24.9878 14.9345 24.8103 14.846L18.4106 11.6462C18.2479 11.5649 18.0672 11.5265 17.8855 11.5348C17.7039 11.543 17.5274 11.5975 17.3727 11.6932C17.2181 11.7888 17.0905 11.9224 17.002 12.0813C16.9135 12.2401 16.8671 12.419 16.8672 12.6008V19.0005C16.8671 19.1824 16.9135 19.3612 17.002 19.5201C17.0905 19.6789 17.2181 19.8125 17.3728 19.9082ZM19.0004 14.3266L21.9486 15.8006L19.0004 17.2747V14.3266Z" fill="#79C500"/>
</svg>
