<svg width="70" height="70" viewBox="0 0 70 70" fill="none" xmlns="http://www.w3.org/2000/svg">
<path d="M66.0624 3H3.93751C3.41975 3 3 3.41975 3 3.93751V37.7656C3 38.2833 3.41975 38.7031 3.93751 38.7031H6.07089L6.87865 44.5507C6.94277 45.0152 7.34003 45.36 7.80728 45.36C7.9299 45.36 6.84677 45.4985 32.1019 42.0131L34.7388 47.8933C34.6703 48.631 34.6303 49.3829 34.6254 50.1437C34.6041 53.4915 35.5544 55.7469 36.3181 57.5592C36.6638 58.3799 36.9604 59.084 37.1174 59.7543H35.4183C34.4097 59.7543 33.5892 60.5748 33.5892 61.5836V66.0625C33.5892 66.5802 34.0089 67 34.5267 67H48.4885C49.0064 67 49.426 66.5802 49.426 66.0625C49.426 65.5447 49.0064 65.125 48.4885 65.125H35.4641V61.6293H56.8858V65.125H52.574C52.0562 65.125 51.6365 65.5447 51.6365 66.0625C51.6365 66.5802 52.0562 67 52.574 67H57.8233C58.3412 67 58.7608 66.5802 58.7608 66.0625V61.5836C58.7608 60.575 57.9403 59.7543 56.9316 59.7543H54.6416L54.4655 57.1833C54.435 56.8076 54.4399 56.4278 54.4801 56.0527C55.0067 54.7969 58.8567 45.4116 59.1682 38.7032H66.0625C66.5804 38.7032 67 38.2835 67 37.7657V3.93751C66.9999 3.41975 66.5802 3 66.0624 3ZM47.3413 32.9452V27.2343C47.3413 25.474 46.2876 23.9552 44.778 23.2752C44.9731 22.486 45.0717 21.6742 45.0717 20.8515C45.0717 15.2978 40.5536 10.7797 35.0001 10.7797C30.4774 10.7797 26.4833 13.8223 25.287 18.179C25.1499 18.6782 25.4435 19.1942 25.9429 19.3312C26.4424 19.4686 26.958 19.1747 27.0951 18.6753C28.0685 15.1304 31.3192 12.6546 35.0001 12.6546C39.5197 12.6546 43.1967 16.3317 43.1967 20.8514C43.1967 21.5462 43.1105 22.2311 42.94 22.8952C40.5757 22.9285 38.6626 24.862 38.6626 27.2341V28.1861C37.5315 28.7513 36.2757 29.048 34.9999 29.048C31.0429 29.048 27.6525 26.2284 26.9385 22.3435C26.8449 21.8342 26.3558 21.4977 25.847 21.5909C25.3378 21.6845 25.0009 22.1731 25.0944 22.6824C25.972 27.4573 30.1379 30.9229 34.9999 30.9229C36.2583 30.9229 37.5013 30.6877 38.6626 30.235V32.9448H12.5533C12.1858 31.008 10.6947 29.5169 8.75791 29.1494V12.5533C10.6947 12.1858 12.1858 10.6947 12.5533 8.75791H57.4466C57.8139 10.6947 59.3052 12.1858 61.242 12.5533V29.1498C59.3052 29.5173 57.8139 31.0084 57.4466 32.9452H47.3413ZM34.0368 41.7457L36.0317 41.4702C35.7483 42.4035 35.4824 43.4109 35.2598 44.473L34.0368 41.7457ZM52.6345 55.6917C52.5649 56.2357 52.5523 56.7886 52.5957 57.3231L52.762 59.7542H39.0282C38.8601 58.7637 38.4618 57.8183 38.0458 56.8311C37.3126 55.0908 36.4814 53.1183 36.5004 50.1555C36.5481 42.6894 40.274 36.0273 40.3248 35.8951C40.4661 35.5297 40.5377 35.1458 40.5377 34.7542C40.5377 31.7224 40.5377 29.3833 40.5377 27.2343C40.5377 25.8754 41.6432 24.77 43.0021 24.77C44.3555 24.77 45.4664 25.8701 45.4664 27.2343C45.4766 36.4867 45.268 32.8003 46.4709 37.9781C46.5778 38.4238 46.0669 36.4118 47.6353 42.496C47.7645 42.9974 48.2753 43.2992 48.7771 43.1699C49.2785 43.0406 49.5803 42.5294 49.451 42.0281L48.5941 38.703H57.2913C56.9378 45.6181 52.679 55.3452 52.6345 55.6917ZM65.1249 36.8281H48.1106L47.5931 34.8202H58.2967C58.8146 34.8202 59.2342 34.4004 59.2342 33.8827C59.2342 32.2035 60.5005 30.9374 62.1796 30.9374C62.6975 30.9374 63.1171 30.5177 63.1171 29.9999V11.7032C63.1171 11.1854 62.6975 10.7657 62.1796 10.7657C60.5005 10.7657 59.2342 9.49954 59.2342 7.8204C59.2342 7.30265 58.8146 6.8829 58.2967 6.8829H11.7032C11.1854 6.8829 10.7657 7.30265 10.7657 7.8204C10.7657 9.49954 9.49954 10.7657 7.8204 10.7657C7.30265 10.7657 6.8829 11.1854 6.8829 11.7032V30C6.8829 30.5178 7.30265 30.9375 7.8204 30.9375C9.49954 30.9375 10.7657 32.2037 10.7657 33.8828C10.7657 34.4006 11.1854 34.8203 11.7032 34.8203H38.6608C38.639 35.2508 38.5665 35.0929 37.779 36.8282H18.8788C18.3611 36.8282 17.9413 37.2479 17.9413 37.7657C17.9413 38.2835 18.3611 38.7032 18.8788 38.7032H36.9899C36.8924 38.9536 36.7937 39.2148 36.6948 39.486L8.60766 43.3655L7.96365 38.7031H14.7931C15.3108 38.7031 15.7306 38.2833 15.7306 37.7656C15.7306 37.2478 15.3108 36.8281 14.7931 36.8281H4.87501V4.87501H65.1249V36.8281Z" fill="#151716"/>
<path d="M53.1679 17.9725C51.5806 17.9725 50.2891 19.264 50.2891 20.8514C50.2891 22.4388 51.5806 23.7302 53.1679 23.7302C54.7553 23.7302 56.0468 22.4388 56.0468 20.8514C56.0468 19.264 54.7553 17.9725 53.1679 17.9725ZM53.1679 21.8553C52.6143 21.8553 52.1641 21.4049 52.1641 20.8514C52.1641 20.2979 52.6144 19.8475 53.1679 19.8475C53.7214 19.8475 54.1718 20.2979 54.1718 20.8514C54.1718 21.4049 53.7214 21.8553 53.1679 21.8553Z" fill="#79C500"/>
<path d="M16.8398 17.9725C15.2524 17.9725 13.9609 19.264 13.9609 20.8514C13.9609 22.4388 15.2524 23.7302 16.8398 23.7302C18.4273 23.7302 19.7187 22.4388 19.7187 20.8514C19.7187 19.264 18.4272 17.9725 16.8398 17.9725ZM16.8398 21.8553C16.2863 21.8553 15.8359 21.4049 15.8359 20.8514C15.8359 20.2979 16.2863 19.8475 16.8398 19.8475C17.3933 19.8475 17.8437 20.2979 17.8437 20.8514C17.8437 21.4049 17.3933 21.8553 16.8398 21.8553Z" fill="#79C500"/>
<path d="M35.0009 17.6285C32.9844 17.6285 31.3438 19.2692 31.3438 21.2857C31.3438 23.3022 32.9844 24.9428 35.0009 24.9428C37.0175 24.9428 38.658 23.3022 38.658 21.2857C38.658 19.2692 37.0174 17.6285 35.0009 17.6285ZM35.0009 22.5609C34.2978 22.5609 33.7256 21.9888 33.7256 21.2857C33.7256 20.5825 34.2978 20.0104 35.0009 20.0104C35.704 20.0104 36.2761 20.5825 36.2761 21.2857C36.2761 21.9888 35.704 22.5609 35.0009 22.5609Z" fill="#79C500"/>
<path d="M38.3672 62.4398C37.8368 62.4422 37.4297 62.8718 37.4297 63.3776C37.4297 63.8865 37.8467 64.3151 38.3672 64.3151C38.8796 64.3151 39.3047 63.8973 39.3047 63.3776C39.3047 62.8461 38.8689 62.4376 38.3672 62.4398Z" fill="#79C500"/>
</svg>
