<svg width="60" height="60" viewBox="0 0 60 60" fill="none" xmlns="http://www.w3.org/2000/svg">
<g clip-path="url(#clip0_4121_8205)">
<path d="M58.5 30C58.5 45.7132 45.7132 58.5 30 58.5C14.2868 58.5 1.5 45.7132 1.5 30C1.5 14.2868 14.2868 1.5 30 1.5C45.7132 1.5 58.5 14.2868 58.5 30Z" fill="#79C500" stroke="white" stroke-width="3"/>
<path d="M15.9016 31.0644L24.3314 39.4942C24.9187 40.0815 25.8608 40.0815 26.4481 39.4942C27.0353 38.9069 27.0353 37.9649 26.4481 37.3776L20.5753 31.5048L43.0264 31.5048C43.8583 31.5048 44.5312 30.8319 44.5312 29.9999C44.5312 29.168 43.8583 28.495 43.0264 28.495L20.5875 28.495L26.4603 22.6223C27.0476 22.035 27.0476 21.0929 26.4603 20.5056C25.873 19.9184 24.9309 19.9184 24.3437 20.5056L15.9138 28.9355C15.6202 29.2291 15.4733 29.6084 15.4733 29.9999C15.4733 30.3914 15.6079 30.7707 15.9016 31.0644Z" fill="white"/>
</g>
<defs>
<clipPath id="clip0_4121_8205">
<rect width="60" height="60" fill="white" transform="translate(60) rotate(90)"/>
</clipPath>
</defs>
</svg>
