<svg width="60" height="60" viewBox="0 0 60 60" fill="none" xmlns="http://www.w3.org/2000/svg">
<g clip-path="url(#clip0_4121_8210)">
<path d="M1.5 30C1.5 45.7132 14.2868 58.5 30 58.5C45.7132 58.5 58.5 45.7132 58.5 30C58.5 14.2868 45.7132 1.5 30 1.5C14.2868 1.5 1.5 14.2868 1.5 30Z" fill="#F9AA00" stroke="white" stroke-width="3"/>
<path d="M44.0984 31.0644L35.6686 39.4942C35.0813 40.0815 34.1392 40.0815 33.5519 39.4942C32.9647 38.9069 32.9647 37.9649 33.5519 37.3776L39.4247 31.5048L16.9736 31.5048C16.1417 31.5048 15.4688 30.8319 15.4688 29.9999C15.4688 29.168 16.1417 28.495 16.9736 28.495L39.4125 28.495L33.5397 22.6223C32.9524 22.035 32.9524 21.0929 33.5397 20.5056C34.127 19.9184 35.0691 19.9184 35.6563 20.5056L44.0862 28.9355C44.3798 29.2291 44.5267 29.6084 44.5267 29.9999C44.5267 30.3914 44.3921 30.7707 44.0984 31.0644Z" fill="white"/>
</g>
<defs>
<clipPath id="clip0_4121_8210">
<rect width="60" height="60" fill="white" transform="matrix(4.37114e-08 1 1 -4.37114e-08 0 0)"/>
</clipPath>
</defs>
</svg>
