<svg width="50" height="50" viewBox="0 0 50 50" fill="none" xmlns="http://www.w3.org/2000/svg">
<circle cx="25" cy="25" r="25" fill="#F9AA00"/>
<g clip-path="url(#clip0_5401_6055)">
<path d="M18.002 12.875C14.6254 12.875 11.877 16.0154 11.877 19.875C11.8469 21.1443 12.1553 22.3987 12.7704 23.5095C13.3855 24.6202 14.2852 25.5471 15.377 26.1951V36.5C15.377 37.1962 15.6536 37.8639 16.1459 38.3562C16.6381 38.8484 17.3058 39.125 18.002 39.125C18.6982 39.125 19.3659 38.8484 19.8582 38.3562C20.3504 37.8639 20.627 37.1962 20.627 36.5V26.1951C21.7189 25.5471 22.6186 24.6202 23.2337 23.5095C23.8488 22.3987 24.1571 21.1443 24.127 19.875C24.127 16.0154 21.3786 12.875 18.002 12.875ZM19.4178 24.8354C19.2577 24.9015 19.121 25.0136 19.0247 25.1576C18.9284 25.3015 18.877 25.4707 18.877 25.6439V36.5C18.877 36.7321 18.7848 36.9546 18.6207 37.1187C18.4566 37.2828 18.2341 37.375 18.002 37.375C17.7699 37.375 17.5474 37.2828 17.3833 37.1187C17.2192 36.9546 17.127 36.7321 17.127 36.5V25.6439C17.127 25.4707 17.0756 25.3015 16.9793 25.1576C16.8831 25.0136 16.7463 24.9015 16.5863 24.8354C15.6639 24.3861 14.8926 23.6775 14.367 22.7964C13.8414 21.9154 13.5842 20.9001 13.627 19.875C13.627 16.9796 15.5896 14.625 18.002 14.625C20.4144 14.625 22.377 16.9796 22.377 19.875C22.4198 20.9001 22.1627 21.9154 21.637 22.7964C21.1114 23.6775 20.3401 24.3861 19.4178 24.8354Z" fill="white"/>
<path d="M37.25 12.875C37.0179 12.875 36.7954 12.9672 36.6313 13.1313C36.4672 13.2954 36.375 13.5179 36.375 13.75V22.5C36.375 23.1962 36.0984 23.8639 35.6062 24.3562C35.1139 24.8484 34.4462 25.125 33.75 25.125C33.5179 25.125 33.2954 25.2172 33.1313 25.3813C32.9672 25.5454 32.875 25.7679 32.875 26V36.5C32.875 36.7321 32.7828 36.9546 32.6187 37.1187C32.4546 37.2828 32.2321 37.375 32 37.375C31.7679 37.375 31.5454 37.2828 31.3813 37.1187C31.2172 36.9546 31.125 36.7321 31.125 36.5V26C31.125 25.7679 31.0328 25.5454 30.8687 25.3813C30.7046 25.2172 30.4821 25.125 30.25 25.125C29.5538 25.125 28.8861 24.8484 28.3938 24.3562C27.9016 23.8639 27.625 23.1962 27.625 22.5V13.75C27.625 13.5179 27.5328 13.2954 27.3687 13.1313C27.2046 12.9672 26.9821 12.875 26.75 12.875C26.5179 12.875 26.2954 12.9672 26.1313 13.1313C25.9672 13.2954 25.875 13.5179 25.875 13.75V22.5C25.8761 23.5082 26.2249 24.4852 26.8624 25.2663C27.5 26.0473 28.3874 26.5846 29.375 26.7875V36.5C29.375 37.1962 29.6516 37.8639 30.1438 38.3562C30.6361 38.8484 31.3038 39.125 32 39.125C32.6962 39.125 33.3639 38.8484 33.8562 38.3562C34.3484 37.8639 34.625 37.1962 34.625 36.5V26.7875C35.6126 26.5846 36.5 26.0473 37.1376 25.2663C37.7751 24.4852 38.1239 23.5082 38.125 22.5V13.75C38.125 13.5179 38.0328 13.2954 37.8687 13.1313C37.7046 12.9672 37.4821 12.875 37.25 12.875Z" fill="white"/>
<path d="M30.25 23.375C30.4821 23.375 30.7046 23.2828 30.8687 23.1187C31.0328 22.9546 31.125 22.7321 31.125 22.5V13.75C31.125 13.5179 31.0328 13.2954 30.8687 13.1313C30.7046 12.9672 30.4821 12.875 30.25 12.875C30.0179 12.875 29.7954 12.9672 29.6313 13.1313C29.4672 13.2954 29.375 13.5179 29.375 13.75V22.5C29.375 22.7321 29.4672 22.9546 29.6313 23.1187C29.7954 23.2828 30.0179 23.375 30.25 23.375Z" fill="white"/>
<path d="M33.75 23.375C33.9821 23.375 34.2046 23.2828 34.3687 23.1187C34.5328 22.9546 34.625 22.7321 34.625 22.5V13.75C34.625 13.5179 34.5328 13.2954 34.3687 13.1313C34.2046 12.9672 33.9821 12.875 33.75 12.875C33.5179 12.875 33.2954 12.9672 33.1313 13.1313C32.9672 13.2954 32.875 13.5179 32.875 13.75V22.5C32.875 22.7321 32.9672 22.9546 33.1313 23.1187C33.2954 23.2828 33.5179 23.375 33.75 23.375Z" fill="white"/>
</g>
<defs>
<clipPath id="clip0_5401_6055">
<rect width="28" height="28" fill="white" transform="translate(11 12)"/>
</clipPath>
</defs>
</svg>
