<svg width="50" height="50" viewBox="0 0 50 50" fill="none" xmlns="http://www.w3.org/2000/svg">
<circle cx="25" cy="25" r="25" fill="#F9AA00"/>
<path fill-rule="evenodd" clip-rule="evenodd" d="M14.3546 32.4901C14.4178 33.3501 14.7749 34.1925 15.4267 34.8443C16.1148 35.5314 17.0139 35.8913 17.9224 35.9238C23.493 39.5323 30.9986 38.3329 35.1615 33.1354C39.368 27.882 38.8427 20.1899 33.961 15.5577C29.0803 10.9245 21.3702 10.8018 16.3444 15.2769C11.4163 19.6645 10.5795 27.1252 14.3546 32.4901ZM20.3511 35.1409C24.9175 37.2274 30.4853 36.001 33.71 31.9731C37.3159 27.4701 36.8658 20.8761 32.6816 16.9059C28.4973 12.9347 21.889 12.8297 17.5802 16.665C13.766 20.0606 12.812 25.605 15.0436 30.0345C15.158 29.8764 15.2853 29.7258 15.4267 29.5845L18.0562 26.955C18.2915 26.7198 18.6337 26.6287 18.9545 26.7142C19.2753 26.7998 19.5263 27.0508 19.6119 27.3716C20.2637 29.803 22.4832 31.5064 25.0002 31.5064C27.5173 31.5064 29.7368 29.803 30.3886 27.3716C30.5216 26.876 31.0311 26.5813 31.5267 26.7142C32.0223 26.8472 32.3171 27.3567 32.1841 27.8523C31.3157 31.0935 28.356 33.365 25.0002 33.365C24.1578 33.365 23.3405 33.2218 22.5743 32.9559L20.6821 34.848C20.577 34.9531 20.4664 35.0507 20.3511 35.1409ZM18.8503 30.1061C18.6709 29.843 18.5072 29.5668 18.3612 29.2795L16.7415 30.8992C16.0199 31.6207 16.0199 32.8081 16.7415 33.5296C17.463 34.2511 18.6504 34.2511 19.372 33.5296L20.8244 32.0763C20.5659 31.9006 20.3185 31.7091 20.0842 31.5017L19.371 32.2139C19.0084 32.5766 18.4198 32.5766 18.0572 32.2139C17.6945 31.8513 17.6945 31.2628 18.0572 30.8992L18.8503 30.1061ZM19.4212 22.2094C19.4212 21.6989 19.8406 21.2796 20.3511 21.2796C20.8616 21.2796 21.2809 21.6989 21.2809 22.2094C21.2809 22.7226 21.6975 23.1392 22.2107 23.1392C22.724 23.1392 23.1406 22.7226 23.1406 22.2094C23.1406 20.6789 21.8816 19.42 20.3511 19.42C18.8206 19.42 17.5616 20.6789 17.5616 22.2094C17.5616 22.7226 17.9781 23.1392 18.4914 23.1392C19.0047 23.1392 19.4212 22.7226 19.4212 22.2094ZM29.6494 19.42C28.1189 19.42 26.8599 20.6789 26.8599 22.2094C26.8599 22.7226 27.2765 23.1392 27.7897 23.1392C28.303 23.1392 28.7196 22.7226 28.7196 22.2094C28.7196 21.6989 29.1389 21.2796 29.6494 21.2796C30.1599 21.2796 30.5792 21.6989 30.5792 22.2094C30.5792 22.7226 30.9958 23.1392 31.5091 23.1392C32.0223 23.1392 32.4389 22.7226 32.4389 22.2094C32.4389 20.6789 31.1799 19.42 29.6494 19.42Z" fill="white"/>
</svg>
